<svg width="65" height="65" viewBox="0 0 65 65" fill="none" xmlns="http://www.w3.org/2000/svg">
<path d="M32.5 65C50.4493 65 65 50.4493 65 32.5C65 14.5507 50.4493 0 32.5 0C14.5507 0 0 14.5507 0 32.5C0 50.4493 14.5507 65 32.5 65Z" fill="#BBE4EA"/>
<path d="M23.71 15.91C22.25 12.46 18.52 10.57 15.27 11.69C11.96 12.83 10.4 16.67 11.8 20.26C12.41 21.83 13.49 23.1 14.78 23.93" fill="#5BD0F5"/>
<path d="M19.54 17.66C19.13 16.69 18.08 16.16 17.16 16.47C16.24 16.78 15.79 17.87 16.18 18.88C16.35 19.32 16.65 19.68 17.02 19.91" fill="#3DAACD"/>
<path d="M41.05 15.91C42.51 12.46 46.24 10.57 49.49 11.69C52.8 12.83 54.36 16.67 52.96 20.26C52.35 21.83 51.27 23.1 49.98 23.93" fill="#5BD0F5"/>
<path d="M45.22 17.66C45.63 16.69 46.68 16.16 47.6 16.47C48.52 16.78 48.97 17.87 48.58 18.88C48.41 19.32 48.11 19.68 47.74 19.91" fill="#3DAACD"/>
<path d="M52.69 31.52C52.53 21.53 43.55 13.48 32.49 13.48C21.43 13.48 12.46 21.53 12.29 31.52C10.55 33.68 9.60001 36.19 9.60001 38.82C9.60001 47.29 19.84 54.15 32.48 54.15C45.12 54.15 55.36 47.29 55.36 38.82C55.36 36.21 54.39 33.67 52.68 31.52H52.69Z" fill="#5BD0F5"/>
<path d="M32.62 37.6H31.97V39.6H32.62V37.6Z" fill="#1E1D1D"/>
<path d="M36.35 34.17C36.8636 34.17 37.28 33.691 37.28 33.1C37.28 32.5091 36.8636 32.03 36.35 32.03C35.8364 32.03 35.42 32.5091 35.42 33.1C35.42 33.691 35.8364 34.17 36.35 34.17Z" fill="#1E1D1D"/>
<path d="M28.25 34.17C28.7636 34.17 29.18 33.691 29.18 33.1C29.18 32.5091 28.7636 32.03 28.25 32.03C27.7364 32.03 27.32 32.5091 27.32 33.1C27.32 33.691 27.7364 34.17 28.25 34.17Z" fill="#1E1D1D"/>
<path d="M32.3 38.07C33.3107 38.07 34.13 37.5193 34.13 36.84C34.13 36.1607 33.3107 35.61 32.3 35.61C31.2893 35.61 30.47 36.1607 30.47 36.84C30.47 37.5193 31.2893 38.07 32.3 38.07Z" fill="#1E1D1D"/>
<path d="M32.3 37.88V39.43" stroke="#1E1D1D" stroke-width="0.76" stroke-miterlimit="10" stroke-linecap="round"/>
<path d="M35.27 39.02C34.61 39.41 33.94 39.8 32.3 39.8C30.66 39.8 29.77 39.3 29.33 39.02" stroke="#1E1D1D" stroke-width="0.76" stroke-linecap="round" stroke-linejoin="round"/>
</svg>
