<?xml version="1.0" encoding="utf-8"?>
<!-- Generator: Adobe Illustrator 26.2.1, SVG Export Plug-In . SVG Version: 6.00 Build 0)  -->
<svg version="1.1" id="Layer_1" xmlns="http://www.w3.org/2000/svg" xmlns:xlink="http://www.w3.org/1999/xlink" x="0px" y="0px"
	 viewBox="0 0 256 388" width="200" height="303" style="enable-background:new 0 0 256 388;" xml:space="preserve">
<style type="text/css">
	.st0{clip-path:url(#SVGID_00000074424523116382648790000012092495307788037564_);}
	.st1{fill:#F8F3EB;stroke:#231D1D;stroke-width:2.5;stroke-linejoin:round;}
	.st2{fill:#F8F3EB;}
	.st3{fill:none;stroke:#231D1D;stroke-width:2.5;stroke-miterlimit:10;}
	.st4{fill:none;stroke:#231D1D;stroke-width:2.5;stroke-linecap:round;stroke-linejoin:round;}
	.st5{fill:none;stroke:#231D1D;stroke-width:2.5;stroke-linejoin:round;}
	.st6{fill:#231D1D;}
	.st7{fill:none;stroke:#231815;stroke-width:2.71;stroke-linecap:round;stroke-miterlimit:10;}
	.st8{fill:none;stroke:#231D1D;stroke-width:2.71;stroke-linecap:round;stroke-linejoin:round;}
	.st9{fill:#FF9600;stroke:#231D1D;stroke-width:2.5;stroke-linecap:round;stroke-linejoin:round;}
	.st10{fill:#FF9600;}
</style>
<g>
	<defs>
		<rect id="SVGID_1_" y="0" width="256" height="388"/>
	</defs>
	<clipPath id="SVGID_00000133510699285019305180000001711343705727591050_">
		<use xlink:href="#SVGID_1_"  style="overflow:visible;"/>
	</clipPath>
	<g style="clip-path:url(#SVGID_00000133510699285019305180000001711343705727591050_);">
		<path class="st1" d="M128,386.8c70.1,0,126.8-14,126.8-31.2s-56.8-31.2-126.8-31.2c-70.1,0-126.8,14-126.8,31.2
			S57.9,386.8,128,386.8z"/>
		<path class="st2" d="M133.7,295.6c-2.3,14-4.2,29.7-2.3,43.8c1.1,8.4,4.4,15.8,11.4,20c9.6,5.9,22,5.5,32.6,3.7
			c7.2-1.2,15.3-4,19.6-10.8c6.6-10.4,3.9-23.4-0.7-34c-6.2-14.4-6.9-26-8-37.5"/>
		<path class="st3" d="M133.7,295.6c-2.3,14-4.2,29.7-2.3,43.8c1.1,8.4,4.4,15.8,11.4,20c9.6,5.9,22,5.5,32.6,3.7
			c7.2-1.2,15.3-4,19.6-10.8c6.6-10.4,3.9-23.4-0.7-34c-6.2-14.4-6.9-26-8-37.5"/>
		<path class="st2" d="M122.3,295.6c2.3,14,4.2,29.7,2.3,43.8c-1.1,8.4-4.4,15.8-11.4,20c-9.6,5.9-22,5.5-32.6,3.7
			c-7.2-1.2-15.3-4-19.6-10.8c-6.6-10.4-3.9-23.4,0.7-34c6.2-14.4,6.9-26,8-37.5"/>
		<path class="st3" d="M122.3,295.6c2.3,14,4.2,29.7,2.3,43.8c-1.1,8.4-4.4,15.8-11.4,20c-9.6,5.9-22,5.5-32.6,3.7
			c-7.2-1.2-15.3-4-19.6-10.8c-6.6-10.4-3.9-23.4,0.7-34c6.2-14.4,6.9-26,8-37.5"/>
		<path class="st2" d="M127.4,308.2c-8.9,0-17.8-1.1-26.4-3.4c-10.2-2.7-20.1-7.7-27-15.8c-17.4-20.5-13.4-46.6-9-71
			c2.8-15.7,9.8-30.6,19.8-42.9"/>
		<path class="st4" d="M127.4,308.2c-8.9,0-17.8-1.1-26.4-3.4c-10.2-2.7-20.1-7.7-27-15.8c-17.4-20.5-13.4-46.6-9-71
			c2.8-15.7,9.8-30.6,19.8-42.9"/>
		<path class="st2" d="M127.4,308.2c8.9,0,17.8-1.1,26.4-3.4c10.2-2.7,20.1-7.7,27-15.8c17.4-20.5,13.4-46.6,9-71
			c-2.8-15.7-9.8-30.6-19.8-42.9l-83.6,2.5l-10.1-4.4c-12.8,6.1-23.8,17.6-28.4,31.3c-4.8,14.3-1.5,31.3,12.4,38.8
			c13.4,7.2,40.7,2.9,40.9-16.4c0.1-6.4-3.9-9.7-6.4-15c-2-4.2-2.4-8.2-2.4-11"/>
		<path class="st4" d="M127.4,308.2c8.9,0,17.8-1.1,26.4-3.4c10.2-2.7,20.1-7.7,27-15.8c17.4-20.5,13.4-46.6,9-71
			c-2.8-15.7-9.8-30.6-19.8-42.9l-83.6,2.5l-10.1-4.4c-12.8,6.1-23.8,17.6-28.4,31.3c-4.8,14.3-1.5,31.3,12.4,38.8
			c13.4,7.2,40.7,2.9,40.9-16.4c0.1-6.4-3.9-9.7-6.4-15c-2-4.2-2.4-8.2-2.4-11"/>
		<path class="st2" d="M101.4,77.7c-4.7-9.2-15.1-14.1-24.1-11C67.5,70.1,63,81.4,67.1,92c1.6,4.2,4.3,7.6,7.7,10"/>
		<path class="st5" d="M101.4,77.7c-4.7-9.2-15.1-14.1-24.1-11C67.5,70.1,63,81.4,67.1,92c1.6,4.2,4.3,7.6,7.7,10"/>
		<path class="st2" d="M89.8,84.3c-1.2-2.9-4.3-4.4-7-3.5c-2.7,0.9-4,4.1-2.9,7.1c0.5,1.3,1.4,2.4,2.5,3"/>
		<path class="st5" d="M89.8,84.3c-1.2-2.9-4.3-4.4-7-3.5c-2.7,0.9-4,4.1-2.9,7.1c0.5,1.3,1.4,2.4,2.5,3"/>
		<path class="st2" d="M154,77.4c4.8-9.1,15-13.8,24-10.7c9.8,3.4,14.3,14.7,10.2,25.3c-1.5,4-4.1,7.3-7.1,9.7"/>
		<path class="st5" d="M154,77.4c4.8-9.1,15-13.8,24-10.7c9.8,3.4,14.3,14.7,10.2,25.3c-1.5,4-4.1,7.3-7.1,9.7"/>
		<path class="st2" d="M165.4,84.3c1.2-2.9,4.3-4.4,7-3.5c2.7,0.9,4,4.1,2.9,7.1c-0.5,1.3-1.4,2.4-2.5,3"/>
		<path class="st5" d="M165.4,84.3c1.2-2.9,4.3-4.4,7-3.5c2.7,0.9,4,4.1,2.9,7.1c-0.5,1.3-1.4,2.4-2.5,3"/>
		<path class="st1" d="M74.7,102c5.7-10.5,15.2-19.1,26.7-24.3c8-3.6,17-5.7,26.6-5.7c9.5,0,18.1,1.9,26,5.4
			c19.6,8.6,33.1,26.7,33.5,47.7c5,6.3,7.9,13.8,7.9,21.5c0,24.9-30.2,45.2-67.4,45.2c-37.2,0-67.4-20.2-67.4-45.2
			c0-7.7,2.8-15.1,7.9-21.5C68.7,116.9,70.9,109,74.7,102L74.7,102z"/>
		<path class="st6" d="M128.4,143.1h-1.9v5.9h1.9V143.1z"/>
		<path class="st6" d="M139.3,133c1.5,0,2.8-1.4,2.8-3.1c0-1.7-1.2-3.1-2.8-3.1c-1.5,0-2.8,1.4-2.8,3.1
			C136.6,131.5,137.8,133,139.3,133z"/>
		<path class="st6" d="M115.5,133c1.5,0,2.8-1.4,2.8-3.1c0-1.7-1.2-3.1-2.8-3.1c-1.5,0-2.8,1.4-2.8,3.1
			C112.7,131.5,114,133,115.5,133z"/>
		<path class="st6" d="M127.4,144.4c3,0,5.4-1.6,5.4-3.6c0-2-2.4-3.6-5.4-3.6c-3,0-5.4,1.6-5.4,3.6
			C122,142.8,124.4,144.4,127.4,144.4z"/>
		<path class="st7" d="M127.4,143.9v4.6"/>
		<path class="st8" d="M136.1,147.3c-2,1.2-3.9,2.3-8.7,2.3c-4.8,0-7.5-1.5-8.7-2.3"/>
		<path class="st2" d="M184.4,216.9c13.7-3.4,26.8-12.6,34-25.1c7.2-12.5,7.6-30.4-4.5-40.5c-11.7-9.7-39.3-10.9-43.3,8
			c-1.3,6.2,1.9,10.3,3.3,15.9c1.2,4.5,0.7,8.5,0.2,11.2"/>
		<path class="st4" d="M184.4,216.9c13.7-3.4,26.8-12.6,34-25.1c7.2-12.5,7.6-30.4-4.5-40.5c-11.7-9.7-39.3-10.9-43.3,8
			c-1.3,6.2,1.9,10.3,3.3,15.9c1.2,4.5,0.7,8.5,0.2,11.2"/>
		<path class="st9" d="M225.2,197.7c-0.6,0-1.1-0.3-1.6-0.7l-55.5-51.3c-0.9-0.9-0.9-2.3,0-3.2c1-0.9,2.5-0.8,3.5,0.1l55.5,51.4
			c0.9,0.9,0.9,2.3,0,3.2C226.5,197.5,225.8,197.8,225.2,197.7z"/>
		<path class="st10" d="M166.5,149.1c-0.4,0-0.7-0.2-0.9-0.5l-2.9-4.2l-5.1,0c-0.4,0-0.8-0.2-1-0.6c-0.2-0.4-0.2-0.9,0.1-1.2
			l3.1-4.1l-1.6-4.8c-0.1-0.4,0-0.9,0.3-1.2c0.2-0.2,0.5-0.3,0.8-0.3c0.1,0,0.2,0,0.4,0.1l4.8,1.7l4.1-3c0.2-0.1,0.4-0.2,0.7-0.2
			c0.2,0,0.4,0,0.5,0.1c0.4,0.2,0.6,0.6,0.6,1l-0.1,5.1l4.1,2.9c0.4,0.3,0.5,0.7,0.5,1.1c-0.1,0.4-0.4,0.8-0.8,0.9l-4.9,1.5
			l-1.5,4.8c-0.1,0.4-0.5,0.7-0.9,0.8C166.6,149.2,166.6,149.2,166.5,149.1L166.5,149.1z"/>
		<path class="st6" d="M169.1,131.9l-0.1,5.7l4.6,3.3l-5.4,1.7l-1.7,5.4l-3.3-4.7l-5.7,0l3.4-4.5l-1.8-5.4l5.4,1.9L169.1,131.9
			 M169.1,129.6L169.1,129.6c-0.5,0-1,0.2-1.4,0.5l-3.6,2.6l-4.2-1.5c-0.2-0.1-0.5-0.1-0.7-0.1c-0.6,0-1.2,0.2-1.6,0.7
			c-0.6,0.6-0.8,1.5-0.6,2.4l1.4,4.2l-2.7,3.6c-0.5,0.7-0.6,1.6-0.2,2.4c0.4,0.8,1.2,1.3,2.1,1.3h0l4.5,0l2.6,3.7
			c0.4,0.6,1.1,1,1.9,1c0.1,0,0.2,0,0.3,0c0.9-0.1,1.6-0.7,1.9-1.6l1.3-4.3l4.3-1.3c0.8-0.3,1.5-1,1.6-1.8c0.1-0.9-0.2-1.7-0.9-2.2
			l-3.6-2.6l0.1-4.4c0,0,0-0.1,0-0.1C171.5,130.7,170.4,129.6,169.1,129.6L169.1,129.6z"/>
		<path class="st2" d="M166.2,1.2c3.2,0,5.8,2.5,5.8,5.6s-2.6,5.6-5.8,5.6c-3.2,0-5.8-2.5-5.8-5.6S163,1.2,166.2,1.2z"/>
		<path class="st10" d="M160.5,8.3l1.8,3.1c-1.7,1.7-3.8,4.5-5.4,8.4c-1.2,2.9-1.7,5.7-1.9,8.9c-0.3,5.2,0.8,21.4,2.5,37.4H97.9
			c1.5-8.5,3.9-18.8,7.7-27.1c6-13.2,17.7-22.1,32.6-26.3C145.4,10.6,153,9.4,160.5,8.3L160.5,8.3z"/>
		<path class="st2" d="M128.3,72.7c10.9-0.1,19.8-2.3,26-4.4c1.2,0.2,2.3,0.4,3.4,0.7c0.5,4.7,1.1,9.2,1.7,13.4
			c-6.6,2.5-18.4,6.1-33.6,5.8c-13.4-0.2-23.8-3.4-30.2-5.8c0.2-1.7,0.6-6.8,1.6-13.3c1.2-0.3,2.5-0.5,3.8-0.8
			C107.6,70.6,116.9,72.8,128.3,72.7L128.3,72.7z"/>
		<path class="st2" d="M157.6,67.2l0.2,1.9c-1.1-0.2-2.3-0.5-3.4-0.7C155.5,67.9,156.6,67.5,157.6,67.2L157.6,67.2z"/>
		<path class="st10" d="M157.6,67.2c-1,0.4-2.1,0.8-3.2,1.2c-7.9-1.4-16.8-2.2-26.3-2.2h29.4C157.5,66.5,157.5,66.8,157.6,67.2
			L157.6,67.2z"/>
		<path class="st10" d="M128,66.1c-9.7,0-18.9,0.8-26.8,2.3c-1.3-0.4-2.4-0.9-3.5-1.3c0-0.3,0.1-0.7,0.2-1H128L128,66.1z"/>
		<path class="st10" d="M128,66.1c9.5,0,18.5,0.8,26.3,2.2c-6.2,2.1-15.1,4.3-26,4.4c-11.4,0.1-20.7-2.2-27.2-4.3
			C109.1,67,118.3,66.1,128,66.1L128,66.1z"/>
		<path class="st2" d="M97.7,67.2c1,0.4,2.2,0.8,3.5,1.3c-1.3,0.2-2.6,0.5-3.8,0.8C97.4,68.5,97.6,67.9,97.7,67.2L97.7,67.2z"/>
		<path class="st10" d="M184.2,85.1c0,10.5-25.2,18.9-56.2,18.9c-31,0-56.2-8.5-56.2-18.9c0-6.6,10.2-12.5,25.6-15.9
			c-1,6.5-1.5,11.6-1.6,13.3c6.3,2.4,16.8,5.6,30.2,5.8c15.1,0.3,27-3.3,33.6-5.8c-0.6-4.2-1.2-8.8-1.7-13.4
			C173.6,72.3,184.2,78.3,184.2,85.1L184.2,85.1z"/>
		<path class="st4" d="M157.8,69c15.9,3.3,26.4,9.3,26.4,16c0,10.5-25.2,18.9-56.2,18.9c-31,0-56.2-8.5-56.2-18.9
			c0-6.6,10.2-12.5,25.6-15.9"/>
		<path class="st4" d="M157.4,66.1c-1.7-16-2.8-32.3-2.5-37.4c0.2-3.2,0.7-6,1.9-8.9c1.6-3.9,3.8-6.6,5.4-8.4l-1.8-3.1
			c-7.5,1-15.1,2.2-22.4,4.3c-14.9,4.2-26.6,13.1-32.6,26.3c-3.8,8.4-6.2,18.6-7.7,27.1c-0.1,0.4-0.1,0.7-0.2,1
			c-0.1,0.7-0.2,1.4-0.3,2c-1,6.5-1.5,11.6-1.6,13.3c6.3,2.4,16.8,5.6,30.2,5.8c15.1,0.3,27-3.3,33.6-5.8c-0.6-4.2-1.2-8.8-1.7-13.4
			l-0.2-1.9C157.5,66.8,157.5,66.5,157.4,66.1L157.4,66.1z"/>
		<path class="st4" d="M172,6.7c0,3.1-2.6,5.6-5.8,5.6c-3.2,0-5.8-2.5-5.8-5.6s2.6-5.6,5.8-5.6C169.4,1.2,172,3.6,172,6.7z"/>
		<path class="st4" d="M97.6,67.1C97.6,67.1,97.7,67.2,97.6,67.1c1.1,0.4,2.2,0.8,3.5,1.3c6.4,2.2,15.8,4.4,27.2,4.3
			c10.9-0.1,19.8-2.3,26-4.4c1.2-0.4,2.3-0.8,3.2-1.2c0,0,0,0,0,0"/>
		<path class="st2" d="M116.3,62.5c-0.4,0-0.8-0.2-1-0.6l-1.1-2.1l-2.4-0.3c-0.4-0.1-0.8-0.4-0.9-0.8c-0.1-0.4,0-0.9,0.3-1.2
			l1.7-1.7l-0.4-2.4c-0.1-0.4,0.1-0.9,0.5-1.1c0.2-0.1,0.4-0.2,0.7-0.2c0.2,0,0.4,0,0.5,0.1l2.1,1.1l2.1-1.1
			c0.2-0.1,0.4-0.1,0.5-0.1c0.2,0,0.5,0.1,0.7,0.2c0.4,0.3,0.5,0.7,0.5,1.1l-0.4,2.4l1.7,1.7c0.3,0.3,0.4,0.8,0.3,1.2
			c-0.1,0.4-0.5,0.7-0.9,0.8l-2.4,0.3l-1.1,2.1C117.2,62.3,116.8,62.5,116.3,62.5L116.3,62.5z"/>
		<path class="st6" d="M119,53.2l-0.5,3l2.1,2.1l-3,0.4l-1.3,2.7l-1.3-2.7l-3-0.4l2.1-2.1l-0.5-3l2.7,1.4L119,53.2z M119,50.9
			C119,50.9,118.9,50.9,119,50.9c-0.4,0-0.8,0.1-1.1,0.3l-1.5,0.8l-1.6-0.8c-0.3-0.2-0.7-0.3-1.1-0.3c-0.5,0-0.9,0.1-1.4,0.4
			c-0.7,0.5-1.1,1.4-0.9,2.3l0.3,1.8l-1.3,1.3c-0.6,0.6-0.9,1.5-0.6,2.4c0.3,0.8,1,1.4,1.9,1.6l1.8,0.3l0.8,1.6
			c0.4,0.8,1.2,1.3,2.1,1.3c0.9,0,1.7-0.5,2.1-1.3l0.8-1.6l1.8-0.3c0.9-0.1,1.6-0.7,1.9-1.6c0.3-0.8,0-1.8-0.6-2.4l-1.3-1.3l0.3-1.7
			c0-0.2,0.1-0.3,0.1-0.5C121.3,51.9,120.3,50.9,119,50.9L119,50.9z"/>
		<path class="st2" d="M142,58.6c-0.4,0-0.8-0.2-1-0.6l-1.1-2.1l-2.4-0.3c-0.4-0.1-0.8-0.4-0.9-0.8s0-0.9,0.3-1.2l1.7-1.7l-0.4-2.4
			c-0.1-0.4,0.1-0.9,0.5-1.1c0.2-0.1,0.4-0.2,0.7-0.2c0.2,0,0.4,0,0.5,0.1l2.1,1.1l2.1-1.1c0.2-0.1,0.3-0.1,0.5-0.1
			c0.2,0,0.5,0.1,0.7,0.2c0.4,0.3,0.5,0.7,0.5,1.1l-0.4,2.4l1.7,1.7c0.3,0.3,0.4,0.8,0.3,1.2c-0.1,0.4-0.5,0.7-0.9,0.8l-2.4,0.3
			l-1.1,2.1C142.8,58.3,142.4,58.6,142,58.6L142,58.6z"/>
		<path class="st6" d="M144.6,49.2l-0.5,3l2.1,2.1l-3,0.4l-1.3,2.7l-1.3-2.7l-3-0.4l2.1-2.1l-0.5-3l2.7,1.4L144.6,49.2z M144.6,46.9
			C144.6,46.9,144.6,46.9,144.6,46.9c-0.4,0-0.8,0.1-1.1,0.3L142,48l-1.6-0.8c-0.3-0.2-0.7-0.3-1.1-0.3c-0.5,0-0.9,0.1-1.4,0.4
			c-0.7,0.5-1.1,1.4-0.9,2.3l0.3,1.8l-1.3,1.3c-0.6,0.6-0.9,1.5-0.6,2.4c0.3,0.8,1,1.4,1.9,1.6l1.8,0.3l0.8,1.6
			c0.4,0.8,1.2,1.3,2.1,1.3s1.7-0.5,2.1-1.3l0.8-1.6l1.8-0.3c0.9-0.1,1.6-0.7,1.9-1.6c0.3-0.8,0-1.8-0.6-2.4l-1.3-1.3l0.3-1.7
			c0-0.2,0.1-0.3,0.1-0.5C147,48,145.9,46.9,144.6,46.9L144.6,46.9z"/>
		<path class="st2" d="M126,39.3c-0.4,0-0.8-0.2-1-0.6l-1.1-2.1l-2.4-0.3c-0.4-0.1-0.8-0.4-0.9-0.8s0-0.9,0.3-1.2l1.7-1.7l-0.4-2.4
			c-0.1-0.4,0.1-0.9,0.5-1.1c0.2-0.1,0.4-0.2,0.7-0.2c0.2,0,0.4,0,0.5,0.1l2.1,1.1l2.1-1.1c0.2-0.1,0.4-0.1,0.5-0.1
			c0.2,0,0.5,0.1,0.7,0.2c0.4,0.3,0.5,0.7,0.5,1.1l-0.4,2.4l1.7,1.7c0.3,0.3,0.4,0.8,0.3,1.2c-0.1,0.4-0.5,0.7-0.9,0.8l-2.4,0.3
			l-1.1,2.1C126.8,39.1,126.4,39.3,126,39.3L126,39.3z"/>
		<path class="st6" d="M128.6,30l-0.5,3l2.1,2.1l-3,0.4l-1.3,2.7l-1.3-2.7l-3-0.4l2.1-2.1l-0.5-3l2.7,1.4L128.6,30z M128.6,27.7
			C128.6,27.7,128.6,27.7,128.6,27.7c-0.4,0-0.8,0.1-1.1,0.3l-1.5,0.8l-1.6-0.8c-0.3-0.2-0.7-0.3-1.1-0.3c-0.5,0-0.9,0.1-1.4,0.4
			c-0.7,0.5-1.1,1.4-0.9,2.3l0.3,1.8l-1.3,1.3c-0.6,0.6-0.9,1.5-0.6,2.4c0.3,0.8,1,1.4,1.9,1.6l1.8,0.3l0.8,1.6
			c0.4,0.8,1.2,1.3,2.1,1.3s1.7-0.5,2.1-1.3l0.8-1.6l1.8-0.3c0.9-0.1,1.6-0.7,1.9-1.6c0.3-0.8,0-1.8-0.6-2.4l-1.3-1.3l0.3-1.7
			c0-0.2,0.1-0.3,0.1-0.5C130.9,28.7,129.9,27.7,128.6,27.7L128.6,27.7z"/>
		<path class="st2" d="M143.4,29.6c-0.4,0-0.8-0.2-1-0.6l-1.1-2.1l-2.4-0.3c-0.4-0.1-0.8-0.4-0.9-0.8c-0.1-0.4,0-0.9,0.3-1.2
			l1.7-1.7l-0.4-2.4c-0.1-0.4,0.1-0.9,0.5-1.1c0.2-0.1,0.4-0.2,0.7-0.2c0.2,0,0.4,0,0.5,0.1l2.1,1.1l2.1-1.1
			c0.2-0.1,0.3-0.1,0.5-0.1c0.2,0,0.5,0.1,0.7,0.2c0.4,0.3,0.5,0.7,0.5,1.1l-0.4,2.4l1.7,1.7c0.3,0.3,0.4,0.8,0.3,1.2
			c-0.1,0.4-0.5,0.7-0.9,0.8l-2.4,0.3l-1.1,2.1C144.3,29.4,143.9,29.6,143.4,29.6L143.4,29.6z"/>
		<path class="st6" d="M146.1,20.3l-0.5,3l2.1,2.1l-3,0.4l-1.3,2.7l-1.3-2.7l-3-0.4l2.1-2.1l-0.5-3l2.7,1.4L146.1,20.3z M146.1,18
			C146.1,18,146.1,18,146.1,18c-0.4,0-0.8,0.1-1.1,0.3l-1.5,0.8l-1.6-0.8c-0.3-0.2-0.7-0.3-1.1-0.3c-0.5,0-0.9,0.1-1.4,0.4
			c-0.7,0.5-1.1,1.4-0.9,2.3l0.3,1.8l-1.3,1.3c-0.6,0.6-0.9,1.5-0.6,2.4c0.3,0.8,1,1.4,1.9,1.6l1.8,0.3l0.8,1.6
			c0.4,0.8,1.2,1.3,2.1,1.3s1.7-0.5,2.1-1.3l0.8-1.6l1.8-0.3c0.9-0.1,1.6-0.7,1.9-1.6c0.3-0.8,0-1.8-0.6-2.4l-1.3-1.3l0.3-1.7
			c0-0.2,0.1-0.3,0.1-0.5C148.4,19,147.4,18,146.1,18L146.1,18z"/>
	</g>
</g>
<path class="st10" d="M40.1,28.6c0.3-0.2,0.6-0.2,0.9-0.2c0.3,0,0.5,0.2,0.7,0.6l6.8,13.6c0.2,0.3,0.2,0.6,0.1,0.8
	c-0.1,0.2-0.3,0.4-0.5,0.5c-0.3,0.1-0.5,0.2-0.7,0.1c-0.2-0.1-0.4-0.3-0.6-0.6l-7.2-13.3c-0.2-0.3-0.2-0.6-0.1-0.9
	C39.6,29,39.8,28.8,40.1,28.6z M49.5,46.5c0.4-0.2,0.9-0.3,1.3-0.1c0.5,0.1,0.8,0.4,1,0.8c0.2,0.4,0.3,0.9,0.1,1.3
	c-0.1,0.4-0.4,0.8-0.8,1c-0.4,0.2-0.9,0.3-1.3,0.1c-0.4-0.1-0.8-0.4-1-0.8c-0.2-0.4-0.3-0.9-0.1-1.3C48.8,47.1,49,46.8,49.5,46.5z
	 M48,24.5c0.3-0.2,0.6-0.2,0.9-0.2c0.3,0,0.5,0.2,0.7,0.6l6.8,13.6c0.2,0.3,0.2,0.6,0.1,0.8c-0.1,0.2-0.3,0.4-0.5,0.5
	c-0.3,0.1-0.5,0.2-0.7,0.1c-0.2-0.1-0.4-0.3-0.6-0.6L47.4,26c-0.2-0.3-0.2-0.6-0.1-0.9C47.4,24.9,47.6,24.6,48,24.5z M57.3,42.4
	c0.4-0.2,0.9-0.3,1.3-0.1c0.5,0.1,0.8,0.4,1,0.8c0.2,0.4,0.3,0.9,0.1,1.3c-0.1,0.4-0.4,0.8-0.8,1c-0.4,0.2-0.9,0.3-1.3,0.1
	c-0.4-0.1-0.8-0.4-1-0.8c-0.2-0.4-0.3-0.9-0.1-1.3C56.6,43,56.9,42.6,57.3,42.4z"/>
<path class="st10" d="M210.7,44.4c0.2,0.1,0.4,0.2,0.5,0.4c0.1,0.2,0.1,0.4,0,0.6l-4.2,9.2c-0.1,0.2-0.2,0.3-0.4,0.4
	c-0.2,0-0.3,0-0.5-0.1c-0.2-0.1-0.3-0.2-0.4-0.3c-0.1-0.1,0-0.3,0-0.5l3.9-9.3c0.1-0.2,0.2-0.4,0.4-0.4
	C210.3,44.3,210.5,44.3,210.7,44.4z M205.3,56.7c0.3,0.1,0.5,0.3,0.6,0.6c0.1,0.3,0.1,0.6,0,0.9c-0.1,0.3-0.3,0.5-0.6,0.6
	c-0.3,0.1-0.6,0.1-0.9,0c-0.3-0.1-0.5-0.3-0.6-0.6c-0.1-0.3-0.1-0.6,0-0.9c0.1-0.3,0.3-0.5,0.6-0.6C204.7,56.6,205,56.6,205.3,56.7z
	"/>
</svg>
