<svg width="200" height="303" viewBox="0 0 256 388" preserveAspectRatio="none" fill="none" xmlns="http://www.w3.org/2000/svg">
<g clip-path="url(#clip0_1823_3397)">
<path d="M128 386.852C198.057 386.852 254.849 372.925 254.849 355.746C254.849 338.566 198.057 324.639 128 324.639C57.9433 324.639 1.15106 338.566 1.15106 355.746C1.15106 372.925 57.9433 386.852 128 386.852Z" fill="#F8F3EB" stroke="#231D1D" stroke-width="2.5" stroke-linejoin="round"/>
<path d="M133.663 295.911C131.315 309.816 129.473 325.502 131.352 339.581C132.475 347.957 135.763 355.323 142.743 359.557C152.375 365.398 164.733 365.058 175.36 363.276C182.543 362.073 190.683 359.318 194.974 352.522C201.549 342.116 198.86 329.185 194.275 318.596C188.059 304.25 187.377 292.715 186.235 281.189" fill="#F8F3EB"/>
<path d="M133.663 295.911C131.315 309.816 129.473 325.502 131.352 339.581C132.475 347.957 135.763 355.323 142.743 359.557C152.375 365.398 164.733 365.058 175.36 363.276C182.543 362.073 190.683 359.318 194.974 352.522C201.549 342.116 198.86 329.185 194.275 318.596C188.059 304.25 187.377 292.715 186.235 281.189" stroke="#231D1D" stroke-width="2.5" stroke-miterlimit="10"/>
<path d="M122.337 295.911C124.685 309.816 126.527 325.502 124.648 339.581C123.525 347.957 120.237 355.323 113.257 359.557C103.625 365.398 91.2667 365.058 80.64 363.276C73.4573 362.073 65.3168 359.318 61.0256 352.522C54.4506 342.116 57.1396 329.185 61.7255 318.596C67.9413 304.25 68.6227 292.715 69.7646 281.189" fill="#F8F3EB"/>
<path d="M122.337 295.911C124.685 309.816 126.527 325.502 124.648 339.581C123.525 347.957 120.237 355.323 113.257 359.557C103.625 365.398 91.2667 365.058 80.64 363.276C73.4573 362.073 65.3168 359.318 61.0256 352.522C54.4506 342.116 57.1396 329.185 61.7255 318.596C67.9413 304.25 68.6227 292.715 69.7646 281.189" stroke="#231D1D" stroke-width="2.5" stroke-miterlimit="10"/>
<path d="M170.111 175.838C180.075 188.127 187.037 202.922 189.864 218.572C194.256 242.891 198.253 268.937 180.848 289.326C173.905 297.463 164.015 302.377 153.803 305.114C145.239 307.41 136.306 308.493 127.401 308.466C118.497 308.493 109.564 307.41 101 305.114C90.7971 302.377 80.8979 297.463 73.9546 289.326C56.5502 268.928 60.5468 242.891 64.9393 218.572C67.7664 202.913 74.7281 188.127 84.6918 175.838" fill="#F8F3EB"/>
<path d="M170.111 175.838C180.075 188.127 187.037 202.922 189.864 218.572C194.256 242.891 198.253 268.937 180.848 289.326C173.905 297.463 164.015 302.377 153.803 305.114C145.239 307.41 136.306 308.493 127.401 308.466C118.497 308.493 109.564 307.41 101 305.114C90.7971 302.377 80.8979 297.463 73.9546 289.326C56.5502 268.928 60.5468 242.891 64.9393 218.572C67.7664 202.913 74.7281 188.127 84.6918 175.838" stroke="#231D1D" stroke-width="2.5" stroke-linecap="round" stroke-linejoin="round"/>
<path d="M211.9 248.411C211.338 248.558 210.73 248.522 210.187 248.264L141.288 217.259C140.109 216.717 139.667 215.367 140.303 214.256C140.938 213.135 142.411 212.676 143.59 213.218L212.489 244.223C213.668 244.765 214.11 246.115 213.475 247.227C213.134 247.833 212.544 248.237 211.891 248.411H211.9Z" fill="#FF9600" stroke="#231D1D" stroke-width="2.5" stroke-linecap="round" stroke-linejoin="round"/>
<path d="M140.542 221.079C140.303 221.079 140.054 221.006 139.851 220.85L135.781 217.837L130.984 219.472C130.864 219.509 130.735 219.536 130.615 219.536C130.311 219.536 130.026 219.417 129.805 219.206C129.492 218.893 129.381 218.443 129.529 218.021L131.14 213.227L128.092 209.186C127.825 208.837 127.788 208.368 127.982 207.973C128.175 207.588 128.571 207.34 129.013 207.34L134.096 207.386L137.015 203.253C137.236 202.941 137.586 202.766 137.955 202.766C138.01 202.766 138.074 202.766 138.129 202.775C138.562 202.84 138.921 203.152 139.05 203.565L140.57 208.387L145.414 209.875C145.828 210.003 146.141 210.361 146.215 210.793C146.288 211.225 146.104 211.656 145.745 211.913L141.61 214.843L141.693 219.904C141.693 220.344 141.454 220.739 141.067 220.941C140.901 221.024 140.717 221.07 140.542 221.07V221.079Z" fill="#FF9600"/>
<path d="M137.955 203.923L139.658 209.324L145.082 210.986L140.459 214.265L140.551 219.922L135.993 216.552L130.624 218.388L132.429 213.025L129.022 208.497L134.695 208.552L137.955 203.923M137.955 201.627C137.209 201.627 136.509 201.986 136.076 202.601L133.507 206.247L129.041 206.201H129.022C128.157 206.201 127.365 206.688 126.969 207.459C126.573 208.24 126.656 209.177 127.18 209.875L129.86 213.438L128.442 217.663C128.166 218.489 128.378 219.408 129.004 220.023C129.446 220.455 130.026 220.694 130.624 220.694C130.873 220.694 131.122 220.657 131.37 220.574L135.597 219.132L139.188 221.787C139.594 222.09 140.073 222.237 140.561 222.237C140.92 222.237 141.279 222.154 141.61 221.979C142.393 221.584 142.872 220.776 142.863 219.904L142.789 215.449L146.426 212.869C147.145 212.364 147.504 211.491 147.366 210.628C147.228 209.765 146.611 209.057 145.773 208.8L141.5 207.487L140.165 203.235C139.898 202.399 139.189 201.784 138.323 201.655C138.203 201.637 138.083 201.627 137.973 201.627H137.955Z" fill="#231D1D"/>
<path d="M162.818 201.655C162.809 204.419 162.413 208.424 160.405 212.575C157.882 217.791 153.922 221.134 153.987 227.481C154.199 246.786 181.539 251.038 194.882 243.847C208.806 236.353 212.112 219.408 207.286 205.163C202.682 191.553 191.668 180.027 178.878 173.983L168.767 178.327H86.5519L76.4408 173.983C63.6501 180.017 52.6365 191.543 48.0322 205.163C43.4279 218.783 46.522 236.353 60.4362 243.847C73.7888 251.029 101.12 246.776 101.332 227.481C101.405 221.134 97.4457 217.791 94.9134 212.575C92.9059 208.415 92.5099 204.41 92.5007 201.655" fill="#F8F3EB"/>
<path d="M162.818 201.655C162.809 204.419 162.413 208.424 160.405 212.575C157.882 217.791 153.922 221.134 153.987 227.481C154.199 246.786 181.539 251.038 194.882 243.847C208.806 236.353 212.112 219.408 207.286 205.163C202.682 191.553 191.668 180.027 178.878 173.983L168.767 178.327H86.5519L76.4408 173.983C63.6501 180.017 52.6365 191.543 48.0322 205.163C43.4279 218.783 46.522 236.353 60.4362 243.847C73.7888 251.029 101.12 246.776 101.332 227.481C101.405 221.134 97.4457 217.791 94.9134 212.575C92.9059 208.415 92.5099 204.41 92.5007 201.655" stroke="#231D1D" stroke-width="2.5" stroke-linecap="round" stroke-linejoin="round"/>
<path d="M101.433 78.7721C96.7275 69.5788 86.3678 64.7388 77.2881 67.8522C67.5361 71.2044 62.9502 82.4641 67.0573 93.0166C68.678 97.177 71.4037 100.603 74.7096 103.018" fill="#F8F3EB"/>
<path d="M101.433 78.7721C96.7275 69.5788 86.3678 64.7388 77.2881 67.8522C67.5361 71.2044 62.9502 82.4641 67.0573 93.0166C68.678 97.177 71.4037 100.603 74.7096 103.018" stroke="#231D1D" stroke-width="2.5" stroke-linejoin="round"/>
<path d="M89.8394 85.3937C88.6239 82.5374 85.539 80.9853 82.8408 81.9037C80.1427 82.8221 78.8075 86.0182 79.9585 88.9939C80.465 90.298 81.3583 91.345 82.4265 92.0246" fill="#F8F3EB"/>
<path d="M89.8394 85.3937C88.6239 82.5374 85.539 80.9853 82.8408 81.9037C80.1427 82.8221 78.8075 86.0182 79.9585 88.9939C80.465 90.298 81.3583 91.345 82.4265 92.0246" stroke="#231D1D" stroke-width="2.5" stroke-linejoin="round"/>
<path d="M153.987 78.5148C158.748 69.4868 169.006 64.7662 178.003 67.8521C187.755 71.2042 192.341 82.4639 188.234 93.0165C186.696 96.9656 184.164 100.244 181.088 102.641" fill="#F8F3EB"/>
<path d="M153.987 78.5148C158.748 69.4868 169.006 64.7662 178.003 67.8521C187.755 71.2042 192.341 82.4639 188.234 93.0165C186.696 96.9656 184.164 100.244 181.088 102.641" stroke="#231D1D" stroke-width="2.5" stroke-linejoin="round"/>
<path d="M165.442 85.3937C166.658 82.5374 169.743 80.9853 172.441 81.9037C175.139 82.8221 176.474 86.0182 175.323 88.9939C174.817 90.298 173.924 91.345 172.855 92.0246" fill="#F8F3EB"/>
<path d="M165.442 85.3937C166.658 82.5374 169.743 80.9853 172.441 81.9037C175.139 82.8221 176.474 86.0182 175.323 88.9939C174.817 90.298 173.924 91.345 172.855 92.0246" stroke="#231D1D" stroke-width="2.5" stroke-linejoin="round"/>
<path d="M74.7097 103.018C70.8881 109.979 68.6872 117.804 68.5491 126.079C63.4383 132.425 60.6481 139.791 60.6481 147.496C60.6481 172.358 90.8063 192.508 128 192.508C165.194 192.508 195.352 172.358 195.352 147.496C195.352 139.846 192.497 132.388 187.451 126.079C187.101 105.158 173.546 87.1201 153.987 78.5146" fill="#F8F3EB"/>
<path d="M74.7097 103.018C70.8881 109.979 68.6872 117.804 68.5491 126.079C63.4383 132.425 60.6481 139.791 60.6481 147.496C60.6481 172.358 90.8063 192.508 128 192.508C165.194 192.508 195.352 172.358 195.352 147.496C195.352 139.846 192.497 132.388 187.451 126.079C187.101 105.158 173.546 87.1201 153.987 78.5146" stroke="#231D1D" stroke-width="2.5" stroke-linejoin="round"/>
<path d="M153.987 78.5146C146.132 75.0614 137.319 73.1235 128 73.1235C118.681 73.1235 109.426 75.1624 101.433 78.7809C89.8763 84.0159 80.4651 92.5479 74.7189 103.027" fill="#F8F3EB"/>
<path d="M153.987 78.5146C146.132 75.0614 137.319 73.1235 128 73.1235C118.681 73.1235 109.426 75.1624 101.433 78.7809C89.8763 84.0159 80.4651 92.5479 74.7189 103.027" stroke="#231D1D" stroke-width="2.5" stroke-linejoin="round"/>
<path d="M128.359 143.924H126.453V149.783H128.359V143.924Z" fill="#231D1D"/>
<path d="M139.336 133.84C140.856 133.84 142.089 132.438 142.089 130.708C142.089 128.978 140.856 127.576 139.336 127.576C137.815 127.576 136.582 128.978 136.582 130.708C136.582 132.438 137.815 133.84 139.336 133.84Z" fill="#231D1D"/>
<path d="M115.476 133.84C116.997 133.84 118.23 132.438 118.23 130.708C118.23 128.978 116.997 127.576 115.476 127.576C113.956 127.576 112.723 128.978 112.723 130.708C112.723 132.438 113.956 133.84 115.476 133.84Z" fill="#231D1D"/>
<path d="M127.401 145.283C130.372 145.283 132.779 143.671 132.779 141.683C132.779 139.694 130.372 138.083 127.401 138.083C124.431 138.083 122.024 139.694 122.024 141.683C122.024 143.671 124.431 145.283 127.401 145.283Z" fill="#231D1D"/>
<path d="M127.401 144.75V149.287" stroke="#231815" stroke-width="2.71" stroke-miterlimit="10" stroke-linecap="round"/>
<path d="M136.14 148.084C134.188 149.232 132.227 150.38 127.401 150.38C122.576 150.38 119.942 148.92 118.662 148.084" stroke="#231D1D" stroke-width="2.71" stroke-linecap="round" stroke-linejoin="round"/>
<path d="M166.216 3.11719C169.402 3.11719 171.99 5.59689 171.99 8.65519C171.99 11.7135 169.402 14.2024 166.216 14.2024C163.03 14.2024 160.433 11.7135 160.433 8.65519C160.433 5.59689 163.02 3.11719 166.216 3.11719Z" fill="#F8F3EB"/>
<path d="M157.771 70.7397C173.647 74.0644 184.209 79.9789 184.209 86.7292C184.209 97.1532 159.042 105.603 128.009 105.603C96.9761 105.603 71.8089 97.1532 71.8089 86.7292C71.8089 80.1075 81.9752 74.2848 97.3629 70.9234C96.3407 77.4074 95.8803 82.4586 95.7237 84.1393C102.068 86.5456 112.557 89.6957 125.9 89.9437C141.039 90.2284 152.854 86.665 159.475 84.1393C158.867 79.933 158.306 75.3777 157.771 70.7397V70.7397Z" fill="#FF9600"/>
<path d="M160.497 10.29L162.33 13.33C160.672 15.0566 158.508 17.7934 156.897 21.6691C155.709 24.5254 155.156 27.3541 154.972 30.5501C154.677 35.7116 155.755 51.9031 157.458 67.8651H97.8601C99.3335 59.3882 101.728 49.1755 105.522 40.8271C111.498 27.6663 123.239 18.8129 138.111 14.579C145.404 12.5034 152.965 11.3095 160.506 10.29H160.497Z" fill="#FF9600"/>
<path d="M157.771 70.7397C158.296 75.3776 158.867 79.933 159.475 84.1393C152.854 86.6649 141.039 90.2375 125.9 89.9436C112.548 89.6956 102.059 86.5455 95.7237 84.1393C95.8802 82.4586 96.3407 77.4073 97.3628 70.9234C98.5968 70.657 99.8768 70.3999 101.175 70.1519C107.594 72.301 116.95 74.5511 128.331 74.45C139.207 74.3674 148.139 72.1632 154.355 70.0601C155.525 70.2713 156.666 70.4917 157.781 70.7305L157.771 70.7397Z" fill="#F8F3EB"/>
<path d="M157.569 68.8936L157.771 70.7396C156.657 70.5008 155.515 70.2804 154.346 70.0691C155.515 69.6742 156.602 69.2793 157.569 68.9027V68.8936Z" fill="#F8F3EB"/>
<path d="M157.449 67.8647C157.495 68.2137 157.523 68.5536 157.569 68.8934C156.593 69.2791 155.515 69.674 154.346 70.0597C146.491 68.6546 137.522 67.8647 128.009 67.8647H157.458H157.449Z" fill="#FF9600"/>
<path d="M154.337 70.0597C148.121 72.1629 139.188 74.3579 128.313 74.4497C116.931 74.5416 107.575 72.3007 101.157 70.1516C109.131 68.6913 118.276 67.8647 128 67.8647C137.724 67.8647 146.491 68.6638 154.337 70.0597V70.0597Z" fill="#FF9600"/>
<path d="M97.8601 67.8647H128C118.276 67.8647 109.141 68.6913 101.157 70.1516C99.8768 69.7199 98.7258 69.2975 97.6852 68.8934C97.7312 68.5536 97.8049 68.2137 97.8601 67.8647V67.8647Z" fill="#FF9600"/>
<path d="M97.6851 68.8936C98.7257 69.2977 99.8768 69.7201 101.157 70.1518C99.8584 70.3906 98.5784 70.6477 97.3444 70.9232C97.4457 70.262 97.5562 69.5915 97.6851 68.8936V68.8936Z" fill="#F8F3EB"/>
<path d="M157.771 70.7397C173.647 74.0644 184.209 79.9789 184.209 86.7292C184.209 97.1532 159.042 105.603 128.009 105.603C96.9761 105.603 71.8089 97.1532 71.8089 86.7292C71.8089 80.1075 81.9752 74.2848 97.3629 70.9234" stroke="#231D1D" stroke-width="2.5" stroke-linecap="round" stroke-linejoin="round"/>
<path d="M157.449 67.8651C155.746 51.9031 154.668 35.7116 154.963 30.5501C155.147 27.3541 155.7 24.5346 156.887 21.6691C158.508 17.7934 160.672 15.0566 162.321 13.33L160.488 10.29C152.946 11.3095 145.386 12.5034 138.093 14.579C123.221 18.8129 111.48 27.6663 105.503 40.8271C101.709 49.1755 99.3151 59.3882 97.8417 67.8651C97.7865 68.2141 97.7128 68.5539 97.6667 68.8937C97.5378 69.5825 97.4365 70.2529 97.326 70.9234C96.3039 77.4073 95.8434 82.4586 95.6869 84.1393C102.032 86.5455 112.52 89.6956 125.864 89.9436C141.003 90.2283 152.817 86.6649 159.438 84.1393C158.83 79.933 158.269 75.3777 157.735 70.7397L157.532 68.8937C157.495 68.5539 157.468 68.2141 157.412 67.8651H157.449Z" stroke="#231D1D" stroke-width="2.5" stroke-linecap="round" stroke-linejoin="round"/>
<path d="M171.99 8.65519C171.99 11.7135 169.402 14.2024 166.216 14.2024C163.03 14.2024 160.433 11.7135 160.433 8.65519C160.433 5.59689 163.02 3.11719 166.216 3.11719C169.411 3.11719 171.99 5.59689 171.99 8.65519Z" stroke="#231D1D" stroke-width="2.5" stroke-linecap="round" stroke-linejoin="round"/>
<path d="M97.6483 68.8843C97.6483 68.8843 97.6759 68.8935 97.6852 68.8935C98.7257 69.2976 99.8768 69.72 101.157 70.1517C107.575 72.3008 116.931 74.5509 128.313 74.4498C139.188 74.3672 148.121 72.163 154.337 70.0598C155.506 69.6649 156.593 69.27 157.56 68.8935C157.569 68.8935 157.578 68.8843 157.587 68.8843" stroke="#231D1D" stroke-width="2.5" stroke-linecap="round" stroke-linejoin="round"/>
<path d="M116.333 64.2559C115.891 64.2559 115.495 64.0079 115.301 63.613L114.242 61.4731L111.876 61.1333C111.443 61.069 111.084 60.7659 110.946 60.3526C110.807 59.9394 110.927 59.4802 111.24 59.1771L112.953 57.5148L112.548 55.1636C112.474 54.732 112.649 54.3003 113.008 54.0432C113.211 53.8962 113.45 53.8228 113.68 53.8228C113.865 53.8228 114.049 53.8687 114.215 53.9513L116.333 55.0626L118.451 53.9513C118.616 53.8595 118.801 53.8228 118.985 53.8228C119.224 53.8228 119.464 53.8962 119.657 54.0432C120.016 54.3003 120.191 54.732 120.117 55.1636L119.712 57.5148L121.425 59.1771C121.738 59.4802 121.849 59.9394 121.72 60.3526C121.581 60.7659 121.222 61.069 120.79 61.1333L118.423 61.4731L117.364 63.613C117.171 64.0079 116.765 64.2559 116.333 64.2559V64.2559Z" fill="#F8F3EB"/>
<path d="M118.985 54.9523L118.478 57.9004L120.624 59.9851L117.659 60.4168L116.333 63.0986L115.007 60.4168L112.041 59.9851L114.187 57.9004L113.681 54.9523L116.333 56.3483L118.985 54.9523ZM113.671 52.6562C113.192 52.6562 112.723 52.8032 112.318 53.0971C111.609 53.6114 111.249 54.4839 111.406 55.3472L111.71 57.1105L110.43 58.3596C109.804 58.9657 109.573 59.8841 109.85 60.7107C110.126 61.5373 110.844 62.1434 111.71 62.272L113.478 62.5291L114.27 64.1272C114.657 64.9078 115.458 65.4038 116.333 65.4038C117.207 65.4038 118.009 64.9078 118.395 64.1272L119.187 62.5291L120.955 62.272C121.821 62.1434 122.539 61.5373 122.815 60.7107C123.092 59.8841 122.862 58.9657 122.235 58.3596L120.955 57.1105L121.241 55.4574C121.278 55.3013 121.296 55.136 121.296 54.9615C121.296 53.6941 120.265 52.6654 118.994 52.6654H118.939C118.552 52.6654 118.193 52.7756 117.88 52.9501L116.333 53.7583L114.749 52.9318C114.408 52.7573 114.04 52.6654 113.681 52.6654L113.671 52.6562Z" fill="#231D1D"/>
<path d="M141.997 60.3252C141.555 60.3252 141.159 60.0772 140.966 59.6823L139.907 57.5424L137.54 57.2026C137.107 57.1383 136.748 56.8353 136.61 56.422C136.472 56.0087 136.592 55.5495 136.905 55.2464L138.618 53.5841L138.212 51.233C138.139 50.8013 138.314 50.3697 138.673 50.1125C138.875 49.9656 139.115 49.8921 139.345 49.8921C139.529 49.8921 139.713 49.938 139.879 50.0207L141.997 51.1319L144.115 50.0207C144.281 49.9288 144.465 49.8921 144.649 49.8921C144.889 49.8921 145.128 49.9656 145.321 50.1125C145.671 50.3697 145.855 50.8013 145.782 51.233L145.377 53.5841L147.089 55.2464C147.403 55.5495 147.513 56.0087 147.384 56.422C147.246 56.8353 146.887 57.1383 146.454 57.2026L144.087 57.5424L143.028 59.6823C142.835 60.0772 142.43 60.3252 141.997 60.3252V60.3252Z" fill="#F8F3EB"/>
<path d="M144.649 51.0216L144.143 53.9697L146.288 56.0545L143.323 56.4861L141.997 59.1679L140.671 56.4861L137.706 56.0545L139.851 53.9697L139.345 51.0216L141.997 52.4176L144.649 51.0216ZM139.336 48.7256C138.857 48.7256 138.387 48.8725 137.982 49.1664C137.273 49.6807 136.914 50.5532 137.07 51.4165L137.374 53.1799L136.094 54.4289C135.468 55.0351 135.238 55.9535 135.514 56.78C135.781 57.6158 136.509 58.2127 137.374 58.3413L139.142 58.5985L139.934 60.1965C140.321 60.9772 141.122 61.4731 141.997 61.4731C142.872 61.4731 143.673 60.9772 144.06 60.1965L144.852 58.5985L146.62 58.3413C147.485 58.2127 148.204 57.6066 148.48 56.78C148.747 55.9443 148.526 55.0351 147.9 54.4289L146.62 53.1799L146.905 51.5267C146.942 51.3706 146.961 51.2053 146.961 51.0308C146.961 49.7634 145.929 48.7348 144.658 48.7348H144.594C144.216 48.744 143.857 48.845 143.544 49.0195L141.997 49.8277L140.413 49.0011C140.072 48.8266 139.704 48.7348 139.345 48.7348L139.336 48.7256Z" fill="#231D1D"/>
<path d="M125.974 41.1762C125.532 41.1762 125.136 40.9282 124.943 40.5333L123.884 38.3934L121.517 38.0536C121.084 37.9893 120.725 37.6862 120.587 37.273C120.449 36.8597 120.569 36.4005 120.882 36.0974L122.595 34.4259L122.189 32.0748C122.116 31.6431 122.291 31.2115 122.65 30.9543C122.852 30.8074 123.092 30.7339 123.322 30.7339C123.506 30.7339 123.69 30.7798 123.856 30.8625L125.974 31.9737L128.092 30.8625C128.258 30.7706 128.442 30.7339 128.626 30.7339C128.866 30.7339 129.105 30.8074 129.298 30.9543C129.648 31.2115 129.832 31.6431 129.759 32.0748L129.354 34.4259L131.066 36.0974C131.38 36.4005 131.49 36.8597 131.361 37.273C131.223 37.6862 130.864 37.9893 130.431 38.0536L128.064 38.3934L127.005 40.5333C126.812 40.9282 126.407 41.1762 125.974 41.1762V41.1762Z" fill="#F8F3EB"/>
<path d="M128.626 31.8727L128.12 34.8208L130.265 36.9056L127.3 37.3372L125.974 40.019L124.648 37.3372L121.683 36.9056L123.828 34.8208L123.322 31.8727L125.974 33.2687L128.626 31.8727ZM123.313 29.5767C122.834 29.5767 122.364 29.7236 121.959 30.0175C121.25 30.5318 120.891 31.4043 121.047 32.2676L121.351 34.0309L120.071 35.28C119.445 35.8861 119.215 36.8045 119.491 37.6311C119.758 38.4669 120.486 39.0638 121.351 39.1924L123.119 39.4496L123.911 41.0476C124.298 41.8282 125.099 42.3242 125.974 42.3242C126.849 42.3242 127.65 41.8282 128.037 41.0476L128.829 39.4496L130.597 39.1924C131.462 39.0638 132.181 38.4577 132.457 37.6311C132.724 36.7954 132.503 35.8861 131.877 35.28L130.597 34.0309L130.882 32.3778C130.919 32.2217 130.938 32.0564 130.938 31.8819C130.938 30.6145 129.906 29.5858 128.645 29.5858C128.645 29.5858 128.599 29.5858 128.58 29.5858C128.203 29.595 127.843 29.6961 127.53 29.8706L125.983 30.6788L124.399 29.8522C124.059 29.6777 123.69 29.5858 123.331 29.5858L123.313 29.5767Z" fill="#231D1D"/>
<path d="M143.434 31.4687C142.992 31.4687 142.596 31.2207 142.402 30.8258L141.343 28.6859L138.977 28.3461C138.544 28.2818 138.185 27.9787 138.047 27.5654C137.908 27.1522 138.028 26.6929 138.341 26.3899L140.054 24.7184L139.649 22.3672C139.575 21.9356 139.75 21.5039 140.109 21.2468C140.312 21.0998 140.551 21.0264 140.782 21.0264C140.966 21.0264 141.15 21.0723 141.316 21.1549L143.434 22.2662L145.552 21.1549C145.717 21.0631 145.902 21.0264 146.086 21.0264C146.325 21.0264 146.565 21.0998 146.758 21.2468C147.117 21.5039 147.292 21.9356 147.218 22.3672L146.813 24.7184L148.526 26.3899C148.839 26.6929 148.95 27.1522 148.821 27.5654C148.683 27.9787 148.323 28.2818 147.891 28.3461L145.524 28.6859L144.465 30.8258C144.272 31.2207 143.866 31.4687 143.434 31.4687V31.4687Z" fill="#F8F3EB"/>
<path d="M146.095 22.1652L145.588 25.1133L147.734 27.198L144.769 27.6297L143.443 30.3114L142.117 27.6297L139.152 27.198L141.297 25.1133L140.791 22.1652L143.443 23.5611L146.095 22.1652ZM140.782 19.8691C140.303 19.8691 139.833 20.0161 139.428 20.31C138.719 20.8243 138.36 21.6968 138.516 22.5601L138.82 24.3234L137.54 25.5725C136.914 26.1786 136.684 27.097 136.96 27.9236C137.227 28.7593 137.955 29.3563 138.82 29.4849L140.588 29.742L141.38 31.3401C141.767 32.1207 142.568 32.6166 143.443 32.6166C144.318 32.6166 145.119 32.1207 145.506 31.3401L146.298 29.742L148.066 29.4849C148.931 29.3563 149.649 28.7502 149.926 27.9236C150.193 27.0878 149.972 26.1786 149.346 25.5725L148.066 24.3234L148.351 22.6703C148.388 22.5142 148.406 22.3488 148.406 22.1743C148.406 20.9069 147.375 19.8783 146.104 19.8783H146.049C145.662 19.8783 145.303 19.9885 144.99 20.163L143.443 20.9712L141.859 20.1447C141.518 19.9702 141.15 19.8783 140.791 19.8783L140.782 19.8691Z" fill="#231D1D"/>
</g>
<defs>
<clipPath id="clip0_1823_3397">
<rect width="256" height="388" fill="white"/>
</clipPath>
</defs>
</svg>
