<svg width="250" height="325" viewBox="0 0 250 325" fill="none" xmlns="http://www.w3.org/2000/svg">
<g clip-path="url(#clip0_1687_3461)">
<path d="M124.829 243.402C133.693 243.071 156.114 242.217 173.254 226.538C197.724 204.162 190.798 170.47 189.54 164.417C185.664 145.789 175.33 132.875 169.332 126.445H80.3259C74.3279 132.875 63.9943 145.789 60.1181 164.417C58.8597 170.47 51.9432 204.153 76.4037 226.538C93.5528 242.217 115.965 243.071 124.829 243.402Z" fill="#F8F3EB" stroke="#231D1D" stroke-width="2.46065" stroke-miterlimit="10"/>
<path d="M238.801 323.323H10.8662L1.14813 207.212H248.51L238.801 323.323Z" fill="#F8F3EB" stroke="#231D1D" stroke-width="2.46065" stroke-linecap="round" stroke-linejoin="round"/>
<path d="M248.51 207.212H1.14813L32.7182 190.311H216.94L248.51 207.212Z" fill="#F8F3EB" stroke="#231D1D" stroke-width="2.46065" stroke-linecap="round" stroke-linejoin="round"/>
<path d="M172.455 202.215H77.212L85.6901 194.701H163.968L172.455 202.215Z" fill="#FF9B25" stroke="#231D1D" stroke-width="2.46065" stroke-linecap="round" stroke-linejoin="round"/>
<path d="M75.2372 126.445C62.4788 132.48 51.4931 144.008 46.9004 157.629C42.3077 171.251 45.394 188.823 59.2731 196.318C72.5918 203.501 99.854 199.248 100.065 179.95C100.139 173.603 96.189 170.259 93.663 165.042C91.6606 160.881 91.2657 156.876 91.2565 154.121" fill="#F8F3EB"/>
<path d="M75.2372 126.445C62.4788 132.48 51.4931 144.008 46.9004 157.629C42.3077 171.251 45.394 188.823 59.2731 196.318C72.5918 203.501 99.854 199.248 100.065 179.95C100.139 173.603 96.189 170.259 93.663 165.042C91.6606 160.881 91.2657 156.876 91.2565 154.121" stroke="#231D1D" stroke-width="2.46065" stroke-linecap="round" stroke-linejoin="round"/>
<path d="M174.421 126.445C187.179 132.48 198.165 144.008 202.758 157.629C207.561 171.867 204.264 188.823 190.385 196.318C177.066 203.501 149.804 199.248 149.593 179.95C149.519 173.603 153.469 170.259 155.995 165.042C157.997 160.881 158.392 156.876 158.401 154.121" fill="#F8F3EB"/>
<path d="M174.421 126.445C187.179 132.48 198.165 144.008 202.758 157.629C207.561 171.867 204.264 188.823 190.385 196.318C177.066 203.501 149.804 199.248 149.593 179.95C149.519 173.603 153.469 170.259 155.995 165.042C157.997 160.881 158.392 156.876 158.401 154.121" stroke="#231D1D" stroke-width="2.46065" stroke-linecap="round" stroke-linejoin="round"/>
<path d="M98.3293 29.3748C93.6355 20.1803 83.302 15.3396 74.2453 18.4534C64.518 21.8061 59.9437 33.0673 64.0403 43.6212C65.657 47.7822 68.3758 51.2083 71.6734 53.624" fill="#F8F3EB"/>
<path d="M98.3293 29.3748C93.6355 20.1803 83.302 15.3396 74.2453 18.4534C64.518 21.8061 59.9437 33.0673 64.0403 43.6212C65.657 47.7822 68.3758 51.2083 71.6734 53.624" stroke="#231D1D" stroke-width="2.46065" stroke-linejoin="round"/>
<path d="M86.7741 35.9973C85.5616 33.1407 82.4845 31.5884 79.7932 32.5069C77.056 33.453 75.77 36.6219 76.9182 39.598C77.4234 40.9023 78.3144 41.9494 79.3799 42.6291" fill="#F8F3EB"/>
<path d="M86.7741 35.9973C85.5616 33.1407 82.4845 31.5884 79.7932 32.5069C77.056 33.453 75.77 36.6219 76.9182 39.598C77.4234 40.9023 78.3144 41.9494 79.3799 42.6291" stroke="#231D1D" stroke-width="2.46065" stroke-linejoin="round"/>
<path d="M150.75 29.1175C155.499 20.0883 165.731 15.3671 174.706 18.4533C184.433 21.806 189.007 33.0672 184.91 43.6211C183.376 47.5708 180.851 50.85 177.783 53.2474" fill="#F8F3EB"/>
<path d="M150.75 29.1175C155.499 20.0883 165.731 15.3671 174.706 18.4533C184.433 21.806 189.007 33.0672 184.91 43.6211C183.376 47.5708 180.851 50.85 177.783 53.2474" stroke="#231D1D" stroke-width="2.46065" stroke-linejoin="round"/>
<path d="M162.177 35.9973C163.389 33.1407 166.466 31.5884 169.158 32.5069C171.849 33.4254 173.181 36.6219 172.033 39.598C171.527 40.9023 170.636 41.9494 169.571 42.6291" fill="#F8F3EB"/>
<path d="M162.177 35.9973C163.389 33.1407 166.466 31.5884 169.158 32.5069C171.849 33.4254 173.181 36.6219 172.033 39.598C171.527 40.9023 170.636 41.9494 169.571 42.6291" stroke="#231D1D" stroke-width="2.46065" stroke-linejoin="round"/>
<path d="M71.6733 53.6239C67.8614 60.5864 65.6661 68.4123 65.5283 76.6883C60.4304 83.0354 57.6473 90.402 57.6473 98.1085C57.6473 122.973 87.7293 143.126 124.829 143.126C161.929 143.126 192.011 122.973 192.011 98.1085C192.011 90.4571 189.163 82.9986 184.13 76.6883C183.781 55.7641 170.26 37.7242 150.75 29.1175C142.915 25.6638 134.125 23.7257 124.829 23.7257C115.533 23.7257 106.302 25.7649 98.3292 29.3839C86.8016 34.6195 77.4142 43.1527 71.6825 53.6331L71.6733 53.6239Z" fill="#F8F3EB" stroke="#231D1D" stroke-width="2.46065" stroke-linejoin="round"/>
<path d="M125.187 94.5354H123.286V100.396H125.187V94.5354Z" fill="#231D1D"/>
<path d="M136.136 84.4407C137.653 84.4407 138.882 83.0384 138.882 81.3085C138.882 79.5786 137.653 78.1763 136.136 78.1763C134.619 78.1763 133.39 79.5786 133.39 81.3085C133.39 83.0384 134.619 84.4407 136.136 84.4407Z" fill="#231D1D"/>
<path d="M112.337 84.4407C113.854 84.4407 115.083 83.0384 115.083 81.3085C115.083 79.5786 113.854 78.1763 112.337 78.1763C110.82 78.1763 109.59 79.5786 109.59 81.3085C109.59 83.0384 110.82 84.4407 112.337 84.4407Z" fill="#231D1D"/>
<path d="M124.241 95.8948C127.204 95.8948 129.605 94.2827 129.605 92.2942C129.605 90.3056 127.204 88.6935 124.241 88.6935C121.278 88.6935 118.877 90.3056 118.877 92.2942C118.877 94.2827 121.278 95.8948 124.241 95.8948Z" fill="#231D1D"/>
<path d="M124.241 95.3529V99.8996" stroke="#231815" stroke-width="2.66735" stroke-miterlimit="10" stroke-linecap="round"/>
<path d="M132.958 98.6963C131.011 99.8445 129.054 100.993 124.241 100.993C119.428 100.993 116.801 99.5322 115.524 98.6963" stroke="#231D1D" stroke-width="2.66735" stroke-linecap="round" stroke-linejoin="round"/>
<path d="M186.04 62.6072C186.04 62.6072 200.241 98.7055 161.065 110.545" stroke="black" stroke-width="2.46065" stroke-linecap="round" stroke-linejoin="round"/>
<path d="M154.029 112.878L161.074 110.536" stroke="black" stroke-width="5.90557" stroke-linecap="round" stroke-linejoin="round"/>
<path d="M68.3391 51.4103C68.3391 23.6522 93.4518 1.14819 124.434 1.14819C155.416 1.14819 180.529 23.6522 180.529 51.4103" stroke="black" stroke-width="2.46065" stroke-miterlimit="10"/>
<path d="M86.3063 50.7879C89.9405 38.9821 85.7687 27.2204 76.9882 24.5175C68.2077 21.8146 58.1436 29.194 54.5094 40.9999C50.8752 52.8057 55.0471 64.5674 63.8275 67.2703C72.608 69.9732 82.6721 62.5938 86.3063 50.7879Z" fill="#FF9600" stroke="black" stroke-width="2.46065" stroke-miterlimit="10"/>
<path d="M185.837 67.2882C194.617 64.5853 198.789 52.8237 195.155 41.0178C191.52 29.212 181.456 21.8326 172.676 24.5355C163.895 27.2384 159.724 39 163.358 50.8059C166.992 62.6117 177.056 69.9911 185.837 67.2882Z" fill="#FF9600" stroke="black" stroke-width="2.46065" stroke-miterlimit="10"/>
<path d="M74.1074 24.0013C76.5048 26.0588 81.2352 30.7892 82.512 37.9997C84.4593 48.9486 77.6805 61.1559 65.3354 67.6408" fill="#FF9600"/>
<path d="M74.1074 24.0013C76.5048 26.0588 81.2352 30.7892 82.512 37.9997C84.4593 48.9486 77.6805 61.1559 65.3354 67.6408" stroke="black" stroke-width="2.46065" stroke-linecap="round" stroke-linejoin="round"/>
<path d="M175.955 24.0013C173.557 26.0588 168.827 30.7892 167.55 37.9997C165.603 48.9486 172.381 61.1559 184.727 67.6408" fill="#FF9600"/>
<path d="M175.955 24.0013C173.557 26.0588 168.827 30.7892 167.55 37.9997C165.603 48.9486 172.381 61.1559 184.727 67.6408" stroke="black" stroke-width="2.46065" stroke-linecap="round" stroke-linejoin="round"/>
<path d="M124.829 194.701V202.215" stroke="#231D1D" stroke-width="2.46065" stroke-linecap="round" stroke-linejoin="round"/>
<path d="M134.823 194.701L136.724 202.215" stroke="#231D1D" stroke-width="2.46065" stroke-linecap="round" stroke-linejoin="round"/>
<path d="M144.816 194.701L148.077 202.215" stroke="#231D1D" stroke-width="2.46065" stroke-linecap="round" stroke-linejoin="round"/>
<path d="M154.635 194.701L160.56 202.215" stroke="#231D1D" stroke-width="2.46065" stroke-linecap="round" stroke-linejoin="round"/>
<path d="M115.065 194.701L113.164 202.215" stroke="#231D1D" stroke-width="2.46065" stroke-linecap="round" stroke-linejoin="round"/>
<path d="M105.071 194.701L101.81 202.215" stroke="#231D1D" stroke-width="2.46065" stroke-linecap="round" stroke-linejoin="round"/>
<path d="M95.2521 194.701L89.3184 202.215" stroke="#231D1D" stroke-width="2.46065" stroke-linecap="round" stroke-linejoin="round"/>
<path d="M165.098 198.072H84.5604" stroke="#231D1D" stroke-width="2.46065" stroke-linecap="round" stroke-linejoin="round"/>
</g>
<defs>
<clipPath id="clip0_1687_3461">
<rect width="249.658" height="324.472" fill="white"/>
</clipPath>
</defs>
</svg>
