<svg width="250" height="325" viewBox="0 0 250 325" fill="none" xmlns="http://www.w3.org/2000/svg">
<g clip-path="url(#clip0_1687_3461)">
<path d="M124.829 243.599C133.693 243.268 156.114 242.414 173.254 226.735C197.724 204.359 190.798 170.668 189.54 164.615C185.664 145.987 175.33 133.072 169.332 126.642H80.3259C74.3279 133.072 63.9943 145.987 60.1181 164.615C58.8597 170.668 51.9432 204.35 76.4037 226.735C93.5528 242.414 115.965 243.268 124.829 243.599Z" fill="#F8F3EB" stroke="#231D1D" stroke-width="2.46065" stroke-miterlimit="10"/>
<path d="M238.801 323.521H10.8662L1.14813 207.409H248.51L238.801 323.521Z" fill="#F8F3EB" stroke="#231D1D" stroke-width="2.46065" stroke-linecap="round" stroke-linejoin="round"/>
<path d="M248.51 207.409H1.14813L32.7182 190.508H216.94L248.51 207.409Z" fill="#F8F3EB" stroke="#231D1D" stroke-width="2.46065" stroke-linecap="round" stroke-linejoin="round"/>
<path d="M172.455 202.412H77.212L85.6901 194.899H163.968L172.455 202.412Z" fill="#FF9B25" stroke="#231D1D" stroke-width="2.46065" stroke-linecap="round" stroke-linejoin="round"/>
<path d="M75.2372 126.642C62.4788 132.677 51.4931 144.205 46.9004 157.827C42.3077 171.448 45.394 189.02 59.2731 196.515C72.5918 203.698 99.854 199.445 100.065 180.147C100.139 173.8 96.189 170.456 93.663 165.239C91.6606 161.078 91.2657 157.073 91.2565 154.318" fill="#F8F3EB"/>
<path d="M75.2372 126.642C62.4788 132.677 51.4931 144.205 46.9004 157.827C42.3077 171.448 45.394 189.02 59.2731 196.515C72.5918 203.698 99.854 199.445 100.065 180.147C100.139 173.8 96.189 170.456 93.663 165.239C91.6606 161.078 91.2657 157.073 91.2565 154.318" stroke="#231D1D" stroke-width="2.46065" stroke-linecap="round" stroke-linejoin="round"/>
<path d="M174.421 126.642C187.179 132.677 198.165 144.205 202.758 157.827C207.561 172.064 204.264 189.02 190.385 196.515C177.066 203.698 149.804 199.445 149.593 180.147C149.519 173.8 153.469 170.456 155.995 165.239C157.997 161.078 158.392 157.073 158.401 154.318" fill="#F8F3EB"/>
<path d="M174.421 126.642C187.179 132.677 198.165 144.205 202.758 157.827C207.561 172.064 204.264 189.02 190.385 196.515C177.066 203.698 149.804 199.445 149.593 180.147C149.519 173.8 153.469 170.456 155.995 165.239C157.997 161.078 158.392 157.073 158.401 154.318" stroke="#231D1D" stroke-width="2.46065" stroke-linecap="round" stroke-linejoin="round"/>
<path d="M98.3293 29.572C93.6355 20.3775 83.302 15.5368 74.2453 18.6506C64.518 22.0033 59.9437 33.2645 64.0403 43.8184C65.657 47.9794 68.3758 51.4055 71.6734 53.8212" fill="#F8F3EB"/>
<path d="M98.3293 29.572C93.6355 20.3775 83.302 15.5368 74.2453 18.6506C64.518 22.0033 59.9437 33.2645 64.0403 43.8184C65.657 47.9794 68.3758 51.4055 71.6734 53.8212" stroke="#231D1D" stroke-width="2.46065" stroke-linejoin="round"/>
<path d="M86.7741 36.1945C85.5616 33.3379 82.4845 31.7856 79.7932 32.7041C77.056 33.6502 75.77 36.8191 76.9182 39.7952C77.4234 41.0995 78.3144 42.1466 79.3799 42.8263" fill="#F8F3EB"/>
<path d="M86.7741 36.1945C85.5616 33.3379 82.4845 31.7856 79.7932 32.7041C77.056 33.6502 75.77 36.8191 76.9182 39.7952C77.4234 41.0995 78.3144 42.1466 79.3799 42.8263" stroke="#231D1D" stroke-width="2.46065" stroke-linejoin="round"/>
<path d="M150.75 29.3147C155.499 20.2855 165.731 15.5643 174.706 18.6505C184.433 22.0032 189.007 33.2644 184.91 43.8183C183.376 47.768 180.851 51.0472 177.783 53.4446" fill="#F8F3EB"/>
<path d="M150.75 29.3147C155.499 20.2855 165.731 15.5643 174.706 18.6505C184.433 22.0032 189.007 33.2644 184.91 43.8183C183.376 47.768 180.851 51.0472 177.783 53.4446" stroke="#231D1D" stroke-width="2.46065" stroke-linejoin="round"/>
<path d="M162.177 36.1945C163.389 33.3379 166.466 31.7856 169.158 32.7041C171.849 33.6226 173.181 36.8191 172.033 39.7952C171.527 41.0995 170.636 42.1466 169.571 42.8263" fill="#F8F3EB"/>
<path d="M162.177 36.1945C163.389 33.3379 166.466 31.7856 169.158 32.7041C171.849 33.6226 173.181 36.8191 172.033 39.7952C171.527 41.0995 170.636 42.1466 169.571 42.8263" stroke="#231D1D" stroke-width="2.46065" stroke-linejoin="round"/>
<path d="M71.6733 53.8212C67.8614 60.7836 65.6661 68.6095 65.5283 76.8855C60.4304 83.2326 57.6473 90.5992 57.6473 98.3057C57.6473 123.17 87.7293 143.323 124.829 143.323C161.929 143.323 192.011 123.17 192.011 98.3057C192.011 90.6543 189.163 83.1958 184.13 76.8855C183.781 55.9613 170.26 37.9214 150.75 29.3147C142.915 25.861 134.125 23.9229 124.829 23.9229C115.533 23.9229 106.302 25.9621 98.3292 29.5811C86.8016 34.8167 77.4142 43.3499 71.6825 53.8303L71.6733 53.8212Z" fill="#F8F3EB" stroke="#231D1D" stroke-width="2.46065" stroke-linejoin="round"/>
<path d="M125.187 94.7326H123.286V100.593H125.187V94.7326Z" fill="#231D1D"/>
<path d="M136.136 84.6379C137.653 84.6379 138.882 83.2356 138.882 81.5057C138.882 79.7759 137.653 78.3735 136.136 78.3735C134.619 78.3735 133.39 79.7759 133.39 81.5057C133.39 83.2356 134.619 84.6379 136.136 84.6379Z" fill="#231D1D"/>
<path d="M112.337 84.6379C113.854 84.6379 115.083 83.2356 115.083 81.5057C115.083 79.7758 113.854 78.3735 112.337 78.3735C110.82 78.3735 109.59 79.7758 109.59 81.5057C109.59 83.2356 110.82 84.6379 112.337 84.6379Z" fill="#231D1D"/>
<path d="M124.241 96.092C127.204 96.092 129.605 94.48 129.605 92.4914C129.605 90.5028 127.204 88.8907 124.241 88.8907C121.278 88.8907 118.877 90.5028 118.877 92.4914C118.877 94.48 121.278 96.092 124.241 96.092Z" fill="#231D1D"/>
<path d="M124.241 95.5501V100.097" stroke="#231815" stroke-width="2.66735" stroke-miterlimit="10" stroke-linecap="round"/>
<path d="M132.958 98.8935C131.011 100.042 129.054 101.19 124.241 101.19C119.428 101.19 116.801 99.7294 115.524 98.8935" stroke="#231D1D" stroke-width="2.66735" stroke-linecap="round" stroke-linejoin="round"/>
<path d="M186.04 62.8044C186.04 62.8044 200.241 98.9027 161.065 110.743" stroke="black" stroke-width="2.46065" stroke-linecap="round" stroke-linejoin="round"/>
<path d="M154.029 113.076L161.074 110.733" stroke="black" stroke-width="5.90557" stroke-linecap="round" stroke-linejoin="round"/>
<path d="M68.3391 51.6075C68.3391 23.8494 93.4518 1.34539 124.434 1.34539C155.416 1.34539 180.529 23.8494 180.529 51.6075" stroke="black" stroke-width="2.46065" stroke-miterlimit="10"/>
<path d="M86.3063 50.9851C89.9405 39.1793 85.7687 27.4176 76.9882 24.7147C68.2077 22.0119 58.1436 29.3912 54.5094 41.1971C50.8752 53.0029 55.0471 64.7646 63.8275 67.4675C72.608 70.1704 82.6721 62.791 86.3063 50.9851Z" fill="#FF9600" stroke="black" stroke-width="2.46065" stroke-miterlimit="10"/>
<path d="M185.837 67.4854C194.617 64.7825 198.789 53.0209 195.155 41.215C191.52 29.4092 181.456 22.0298 172.676 24.7327C163.895 27.4356 159.724 39.1972 163.358 51.0031C166.992 62.8089 177.056 70.1883 185.837 67.4854Z" fill="#FF9600" stroke="black" stroke-width="2.46065" stroke-miterlimit="10"/>
<path d="M74.1074 24.1985C76.5048 26.256 81.2352 30.9864 82.512 38.1969C84.4593 49.1458 77.6805 61.3531 65.3354 67.838" fill="#FF9600"/>
<path d="M74.1074 24.1985C76.5048 26.256 81.2352 30.9864 82.512 38.1969C84.4593 49.1458 77.6805 61.3531 65.3354 67.838" stroke="black" stroke-width="2.46065" stroke-linecap="round" stroke-linejoin="round"/>
<path d="M175.955 24.1985C173.557 26.256 168.827 30.9864 167.55 38.1969C165.603 49.1458 172.381 61.3531 184.727 67.838" fill="#FF9600"/>
<path d="M175.955 24.1985C173.557 26.256 168.827 30.9864 167.55 38.1969C165.603 49.1458 172.381 61.3531 184.727 67.838" stroke="black" stroke-width="2.46065" stroke-linecap="round" stroke-linejoin="round"/>
<path d="M124.829 194.899V202.412" stroke="#231D1D" stroke-width="2.46065" stroke-linecap="round" stroke-linejoin="round"/>
<path d="M134.823 194.899L136.724 202.412" stroke="#231D1D" stroke-width="2.46065" stroke-linecap="round" stroke-linejoin="round"/>
<path d="M144.816 194.899L148.077 202.412" stroke="#231D1D" stroke-width="2.46065" stroke-linecap="round" stroke-linejoin="round"/>
<path d="M154.635 194.899L160.56 202.412" stroke="#231D1D" stroke-width="2.46065" stroke-linecap="round" stroke-linejoin="round"/>
<path d="M115.065 194.899L113.164 202.412" stroke="#231D1D" stroke-width="2.46065" stroke-linecap="round" stroke-linejoin="round"/>
<path d="M105.071 194.899L101.81 202.412" stroke="#231D1D" stroke-width="2.46065" stroke-linecap="round" stroke-linejoin="round"/>
<path d="M95.2521 194.899L89.3184 202.412" stroke="#231D1D" stroke-width="2.46065" stroke-linecap="round" stroke-linejoin="round"/>
<path d="M165.098 198.27H84.5604" stroke="#231D1D" stroke-width="2.46065" stroke-linecap="round" stroke-linejoin="round"/>
</g>
<defs>
<clipPath id="clip0_1687_3461">
<rect width="249.658" height="324.472" fill="white" transform="translate(0 0.197205)"/>
</clipPath>
</defs>
</svg>
