<svg width="247" height="375" viewBox="0 0 265 402" fill="none" xmlns="http://www.w3.org/2000/svg">
<g clip-path="url(#clip0_1823_3804)">
<path d="M132.5 400.797C205.02 400.797 263.808 386.318 263.808 368.457C263.808 350.596 205.02 336.117 132.5 336.117C59.9803 336.117 1.19153 350.596 1.19153 368.457C1.19153 386.318 59.9803 400.797 132.5 400.797Z" fill="#FF9B25" stroke="#231D1D" stroke-width="2.5" stroke-linejoin="round"/>
<path d="M138.362 306.26C135.932 320.716 134.025 337.024 135.97 351.662C137.133 360.37 140.536 368.027 147.761 372.429C157.732 378.502 170.525 378.148 181.525 376.296C188.96 375.045 197.387 372.181 201.829 365.115C208.635 354.297 205.852 340.853 201.104 329.844C194.67 314.93 193.965 302.937 192.783 290.954" fill="#F8F3EB"/>
<path d="M138.362 306.26C135.932 320.716 134.025 337.024 135.97 351.662C137.133 360.37 140.536 368.027 147.761 372.429C157.732 378.502 170.525 378.148 181.525 376.296C188.96 375.045 197.387 372.181 201.829 365.115C208.635 354.297 205.852 340.853 201.104 329.844C194.67 314.93 193.965 302.937 192.783 290.954" stroke="#231D1D" stroke-width="2.5" stroke-miterlimit="10"/>
<path d="M126.638 306.26C129.068 320.716 130.975 337.024 129.03 351.662C127.867 360.37 124.464 368.027 117.239 372.429C107.268 378.502 94.4753 378.149 83.4749 376.296C76.0397 375.045 67.6131 372.181 63.171 365.115C56.3649 354.297 59.1483 340.853 63.8954 329.844C70.3298 314.93 71.0352 302.937 72.2172 290.954" fill="#F8F3EB"/>
<path d="M126.638 306.26C129.068 320.716 130.975 337.024 129.03 351.662C127.867 360.37 124.464 368.027 117.239 372.429C107.268 378.502 94.4753 378.149 83.4749 376.296C76.0397 375.045 67.6131 372.181 63.171 365.115C56.3649 354.297 59.1483 340.853 63.8954 329.844C70.3298 314.93 71.0352 302.937 72.2172 290.954" stroke="#231D1D" stroke-width="2.5" stroke-miterlimit="10"/>
<path d="M131.88 319.312C122.663 319.341 113.416 318.214 104.551 315.827C93.9892 312.982 83.7419 307.873 76.5545 299.414C58.5383 278.207 62.6754 251.138 67.2223 225.854C70.1487 209.574 77.3552 194.202 87.6692 181.426" fill="#F8F3EB"/>
<path d="M131.88 319.312C122.663 319.341 113.416 318.214 104.551 315.827C93.9892 312.982 83.7419 307.873 76.5545 299.414C58.5383 278.207 62.6754 251.138 67.2223 225.854C70.1487 209.574 77.3552 194.202 87.6692 181.426" stroke="#231D1D" stroke-width="2.5" stroke-linecap="round" stroke-linejoin="round"/>
<path d="M131.88 319.312C141.098 319.341 150.345 318.214 159.21 315.827C169.772 312.982 180.019 307.873 187.206 299.414C205.223 278.207 201.085 251.138 196.539 225.854C193.612 209.574 186.406 194.202 176.092 181.426L89.5948 184.033L79.1283 179.516C65.8878 185.79 54.4871 197.773 49.7209 211.933C44.7355 226.733 48.1576 244.359 62.561 252.15C76.383 259.617 104.675 255.196 104.894 235.135C104.971 228.537 100.872 225.062 98.2502 219.638C96.1722 215.313 95.7623 211.15 95.7528 208.285" fill="#F8F3EB"/>
<path d="M131.88 319.312C141.098 319.341 150.345 318.214 159.21 315.827C169.772 312.982 180.019 307.873 187.206 299.414C205.223 278.207 201.085 251.138 196.539 225.854C193.612 209.574 186.406 194.202 176.092 181.426L89.5948 184.033L79.1283 179.516C65.8878 185.79 54.4871 197.773 49.7209 211.933C44.7355 226.733 48.1576 244.359 62.561 252.15C76.383 259.617 104.675 255.196 104.894 235.135C104.971 228.537 100.872 225.062 98.2502 219.638C96.1722 215.313 95.7623 211.15 95.7528 208.285" stroke="#231D1D" stroke-width="2.5" stroke-linecap="round" stroke-linejoin="round"/>
<path d="M104.999 80.5108C100.128 70.953 89.4041 65.9211 80.0052 69.1579C69.9104 72.643 65.1633 84.3492 69.4148 95.3201C71.0925 99.6455 73.914 103.207 77.3362 105.718" fill="#F8F3EB"/>
<path d="M104.999 80.5108C100.128 70.953 89.4041 65.9211 80.0052 69.1579C69.9104 72.643 65.1633 84.3492 69.4148 95.3201C71.0925 99.6455 73.914 103.207 77.3362 105.718" stroke="#231D1D" stroke-width="2.5" stroke-linejoin="round"/>
<path d="M92.9978 87.3855C91.7396 84.416 88.5462 82.8023 85.7532 83.7572C82.9126 84.7406 81.578 88.0348 82.7696 91.1284C83.2939 92.4843 84.2185 93.5727 85.3243 94.2793" fill="#F8F3EB"/>
<path d="M92.9978 87.3855C91.7396 84.416 88.5462 82.8023 85.7532 83.7572C82.9126 84.7406 81.578 88.0348 82.7696 91.1284C83.2939 92.4843 84.2185 93.5727 85.3243 94.2793" stroke="#231D1D" stroke-width="2.5" stroke-linejoin="round"/>
<path d="M159.4 80.2434C164.329 70.8575 174.948 65.9497 184.261 69.1579C194.356 72.643 199.103 84.3492 194.851 95.3201C193.259 99.4258 190.638 102.835 187.454 105.327" fill="#F8F3EB"/>
<path d="M159.4 80.2434C164.329 70.8575 174.948 65.9497 184.261 69.1579C194.356 72.643 199.103 84.3492 194.851 95.3201C193.259 99.4258 190.638 102.835 187.454 105.327" stroke="#231D1D" stroke-width="2.5" stroke-linejoin="round"/>
<path d="M171.259 87.3855C172.517 84.416 175.71 82.8023 178.503 83.7572C181.296 84.712 182.678 88.0348 181.487 91.1284C180.963 92.4843 180.038 93.5727 178.932 94.2793" fill="#F8F3EB"/>
<path d="M171.259 87.3855C172.517 84.416 175.71 82.8023 178.503 83.7572C181.296 84.712 182.678 88.0348 181.487 91.1284C180.963 92.4843 180.038 93.5727 178.932 94.2793" stroke="#231D1D" stroke-width="2.5" stroke-linejoin="round"/>
<path d="M77.3361 105.718C83.2843 94.8331 93.0264 85.9533 104.99 80.5108C113.264 76.7488 122.605 74.6291 132.49 74.6291C142.375 74.6291 151.26 76.6437 159.391 80.2339C179.638 89.1901 193.669 107.933 194.031 129.684C199.255 136.244 202.21 143.997 202.21 151.951C202.21 177.798 170.992 198.747 132.49 198.747C93.9892 198.747 62.7706 177.798 62.7706 151.951C62.7706 143.93 65.6589 136.272 70.9494 129.684C71.0924 121.081 73.3706 112.946 77.3266 105.709L77.3361 105.718Z" fill="#F8F3EB" stroke="#231D1D" stroke-width="2.5" stroke-linejoin="round"/>
<path d="M132.872 148.246H130.899V154.338H132.872V148.246Z" fill="#231D1D"/>
<path d="M144.234 137.752C145.808 137.752 147.085 136.295 147.085 134.497C147.085 132.698 145.808 131.241 144.234 131.241C142.66 131.241 141.384 132.698 141.384 134.497C141.384 136.295 142.66 137.752 144.234 137.752Z" fill="#231D1D"/>
<path d="M119.536 137.752C121.11 137.752 122.386 136.295 122.386 134.497C122.386 132.698 121.11 131.241 119.536 131.241C117.962 131.241 116.686 132.698 116.686 134.497C116.686 136.295 117.962 137.752 119.536 137.752Z" fill="#231D1D"/>
<path d="M131.88 149.65C134.955 149.65 137.447 147.974 137.447 145.907C137.447 143.84 134.955 142.164 131.88 142.164C128.806 142.164 126.313 143.84 126.313 145.907C126.313 147.974 128.806 149.65 131.88 149.65Z" fill="#231D1D"/>
<path d="M131.88 149.096V153.813" stroke="#231815" stroke-width="2.71" stroke-miterlimit="10" stroke-linecap="round"/>
<path d="M140.927 152.571C138.906 153.765 136.875 154.958 131.88 154.958C126.885 154.958 124.159 153.44 122.834 152.571" stroke="#231D1D" stroke-width="2.71" stroke-linecap="round" stroke-linejoin="round"/>
<path d="M190.838 224.708C205.051 221.166 218.587 211.665 226.041 198.737C233.495 185.809 233.953 167.257 221.361 156.773C209.283 146.718 180.667 145.477 176.511 165.108C175.148 171.563 178.475 175.774 179.971 181.608C181.163 186.258 180.743 190.421 180.19 193.237" fill="#F8F3EB"/>
<path d="M190.838 224.708C205.051 221.166 218.587 211.665 226.041 198.737C233.495 185.809 233.953 167.257 221.361 156.773C209.283 146.718 180.667 145.477 176.511 165.108C175.148 171.563 178.475 175.774 179.971 181.608C181.163 186.258 180.743 190.421 180.19 193.237" stroke="#231D1D" stroke-width="2.5" stroke-linecap="round" stroke-linejoin="round"/>
<path d="M233.076 204.848C232.475 204.81 231.894 204.571 231.446 204.141L173.994 150.939C173.013 150.012 173.022 148.542 174.013 147.654C175.005 146.756 176.606 146.785 177.588 147.711L235.04 200.914C236.022 201.84 236.012 203.311 235.021 204.199C234.487 204.676 233.772 204.896 233.076 204.848Z" fill="#FF9600" stroke="#231D1D" stroke-width="2.5" stroke-linecap="round" stroke-linejoin="round"/>
<path d="M172.374 154.529C171.993 154.529 171.621 154.338 171.402 154.023L168.389 149.716L163.127 149.755C162.679 149.755 162.27 149.497 162.06 149.096C161.86 148.695 161.898 148.208 162.174 147.845L165.339 143.644L163.68 138.66C163.537 138.23 163.652 137.752 163.976 137.437C164.205 137.208 164.5 137.094 164.815 137.094C164.948 137.094 165.072 137.113 165.206 137.16L170.172 138.879L174.395 135.757C174.604 135.604 174.852 135.528 175.1 135.528C175.291 135.528 175.472 135.575 175.643 135.661C176.044 135.871 176.301 136.292 176.292 136.74L176.196 142.001L180.467 145.057C180.839 145.324 181.02 145.773 180.953 146.222C180.886 146.671 180.562 147.033 180.124 147.167L175.1 148.704L173.518 153.717C173.384 154.147 173.013 154.471 172.565 154.538C172.507 154.538 172.441 154.548 172.383 154.548L172.374 154.529Z" fill="#FF9600"/>
<path d="M175.091 136.702L174.986 142.584L179.762 146.012L174.137 147.73L172.364 153.345L168.999 148.523L163.128 148.571L166.664 143.873L164.805 138.287L170.363 140.206L175.091 136.712M175.091 134.325H175.053C174.528 134.325 174.042 134.516 173.651 134.802L169.953 137.533L165.587 136.024C165.329 135.938 165.072 135.891 164.815 135.891C164.195 135.891 163.595 136.129 163.137 136.578C162.489 137.218 162.27 138.163 162.556 139.032L164.014 143.424L161.231 147.119C160.687 147.845 160.592 148.819 161.002 149.63C161.402 150.433 162.231 150.948 163.128 150.948H163.147L167.77 150.91L170.42 154.701C170.868 155.34 171.602 155.722 172.374 155.722C172.498 155.722 172.612 155.722 172.736 155.694C173.632 155.56 174.376 154.92 174.652 154.051L176.044 149.64L180.467 148.284C181.334 148.017 181.973 147.282 182.126 146.384C182.278 145.487 181.897 144.589 181.163 144.054L177.397 141.362L177.483 136.836C177.483 136.788 177.483 136.731 177.483 136.683C177.483 135.365 176.416 134.296 175.11 134.296L175.091 134.325Z" fill="#231D1D"/>
<path d="M172.059 1.19353C175.358 1.19353 178.036 3.77155 178.036 6.95112C178.036 10.1307 175.358 12.7183 172.059 12.7183C168.761 12.7183 166.073 10.1307 166.073 6.95112C166.073 3.77155 168.752 1.19353 172.059 1.19353Z" fill="#F8F3EB"/>
<path d="M166.14 8.6507L168.037 11.8112C166.321 13.6062 164.081 16.4516 162.413 20.481C161.183 23.4505 160.611 26.3913 160.42 29.7141C160.115 35.0802 161.231 51.9138 162.994 68.5086H101.301C102.826 59.6956 105.304 49.078 109.231 40.3986C115.418 26.716 127.572 17.5115 142.967 13.1097C150.516 10.9518 158.342 9.71056 166.149 8.6507H166.14Z" fill="#FF9600"/>
<path d="M132.834 75.3547C144.091 75.2688 153.338 72.9772 159.772 70.7906C160.983 71.0103 162.165 71.2394 163.318 71.4877C163.862 76.3095 164.453 81.0455 165.082 85.4186C158.228 88.0443 145.998 91.7586 130.327 91.453C116.505 91.1952 105.647 87.9202 99.0891 85.4186C99.2512 83.6617 99.7278 78.4101 100.786 71.6786C102.063 71.4017 103.388 71.1344 104.732 70.8766C111.376 73.1109 121.061 75.4502 132.843 75.3452L132.834 75.3547Z" fill="#F8F3EB"/>
<path d="M163.109 69.578L163.318 71.4972C162.165 71.249 160.983 71.0198 159.772 70.8002C160.983 70.3801 162.108 69.9695 163.109 69.5876V69.578Z" fill="#F8F3EB"/>
<path d="M163.108 69.578C162.098 69.9695 160.983 70.3801 159.772 70.7907C151.641 69.3298 142.356 68.5086 132.51 68.5086H162.994C163.042 68.8715 163.07 69.2247 163.118 69.578H163.108Z" fill="#FF9600"/>
<path d="M132.5 68.5086C122.434 68.5086 112.978 69.368 104.713 70.8861C103.388 70.4374 102.197 69.9981 101.12 69.578C101.167 69.2247 101.243 68.8715 101.301 68.5086H132.5V68.5086Z" fill="#FF9600"/>
<path d="M132.5 68.5086C142.356 68.5086 151.641 69.3393 159.763 70.7907C153.328 72.9772 144.082 75.2592 132.824 75.3547C121.042 75.4502 111.357 73.1204 104.713 70.8861C112.968 69.368 122.434 68.5086 132.5 68.5086V68.5086Z" fill="#FF9600"/>
<path d="M101.119 69.578C102.197 69.9981 103.388 70.4374 104.713 70.8861C103.369 71.1344 102.044 71.4017 100.767 71.6882C100.872 71.0007 100.986 70.3037 101.119 69.578V69.578Z" fill="#F8F3EB"/>
<path d="M190.676 88.1207C190.676 98.958 164.624 107.742 132.5 107.742C100.376 107.742 74.324 98.958 74.324 88.1207C74.324 81.2364 84.8477 75.1828 100.776 71.6882C99.7182 78.4197 99.2416 83.6712 99.0796 85.4281C105.647 87.9297 116.505 91.2048 130.317 91.4626C145.988 91.7586 158.218 88.0539 165.072 85.4281C164.443 81.055 163.862 76.3191 163.309 71.4972C179.743 74.9537 190.676 81.1027 190.676 88.1207V88.1207Z" fill="#FF9600"/>
<path d="M163.318 71.4972C179.752 74.9537 190.686 81.1027 190.686 88.1207C190.686 98.958 164.634 107.742 132.51 107.742C100.385 107.742 74.3335 98.958 74.3335 88.1207C74.3335 81.2364 84.8572 75.1828 100.786 71.6882" stroke="#231D1D" stroke-width="2.5" stroke-linecap="round" stroke-linejoin="round"/>
<path d="M162.985 68.5086C161.221 51.9138 160.106 35.0802 160.411 29.7141C160.601 26.3913 161.173 23.46 162.403 20.481C164.081 16.4516 166.321 13.6062 168.027 11.8112L166.13 8.6507C158.323 9.71056 150.497 10.9518 142.947 13.1097C127.553 17.5115 115.399 26.716 109.212 40.3986C105.285 49.078 102.807 59.6956 101.281 68.5086C101.224 68.8715 101.148 69.2247 101.1 69.578C100.967 70.2941 100.862 70.9912 100.748 71.6882C99.6896 78.4197 99.213 83.6712 99.0509 85.4281C105.619 87.9297 116.476 91.2048 130.288 91.4626C145.96 91.7586 158.19 88.0539 165.044 85.4281C164.414 81.055 163.833 76.3191 163.28 71.4972L163.07 69.578C163.032 69.2247 163.004 68.8715 162.946 68.5086H162.985Z" stroke="#231D1D" stroke-width="2.5" stroke-linecap="round" stroke-linejoin="round"/>
<path d="M178.036 6.95112C178.036 10.1307 175.358 12.7183 172.059 12.7183C168.761 12.7183 166.073 10.1307 166.073 6.95112C166.073 3.77155 168.752 1.19353 172.059 1.19353C175.367 1.19353 178.036 3.77155 178.036 6.95112Z" stroke="#231D1D" stroke-width="2.5" stroke-linecap="round" stroke-linejoin="round"/>
<path d="M101.081 69.5685C101.081 69.5685 101.11 69.578 101.119 69.578C102.197 69.9981 103.388 70.4374 104.713 70.8861C111.357 73.1204 121.042 75.4597 132.824 75.3547C144.082 75.2688 153.328 72.9772 159.763 70.7906C160.973 70.3705 162.098 69.96 163.099 69.578C163.108 69.578 163.118 69.5685 163.128 69.5685" stroke="#231D1D" stroke-width="2.5" stroke-linecap="round" stroke-linejoin="round"/>
<path d="M120.422 64.7562C119.965 64.7562 119.555 64.4984 119.355 64.0878L118.259 61.863L115.809 61.5098C115.361 61.4429 114.989 61.1278 114.846 60.6982C114.703 60.2685 114.827 59.7911 115.151 59.476L116.924 57.7478L116.505 55.3034C116.428 54.8546 116.61 54.4059 116.981 54.1385C117.191 53.9857 117.439 53.9094 117.677 53.9094C117.868 53.9094 118.058 53.9571 118.23 54.043L120.422 55.1984L122.615 54.043C122.787 53.9476 122.977 53.9094 123.168 53.9094C123.416 53.9094 123.663 53.9857 123.864 54.1385C124.235 54.4059 124.417 54.8546 124.34 55.3034L123.921 57.7478L125.694 59.476C126.018 59.7911 126.132 60.2685 125.999 60.6982C125.856 61.1278 125.484 61.4429 125.036 61.5098L122.586 61.863L121.49 64.0878C121.29 64.4984 120.87 64.7562 120.422 64.7562V64.7562Z" fill="#F8F3EB"/>
<path d="M123.168 55.0838L122.644 58.1488L124.865 60.3162L121.795 60.765L120.422 63.5531L119.05 60.765L115.98 60.3162L118.201 58.1488L117.677 55.0838L120.422 56.5351L123.168 55.0838ZM123.168 52.6967C123.168 52.6967 123.13 52.6967 123.101 52.6967C122.71 52.7063 122.339 52.8113 122.014 52.9927L120.413 53.833L118.773 52.9736C118.421 52.7922 118.039 52.6967 117.668 52.6967C117.172 52.6967 116.686 52.8495 116.266 53.1551C115.532 53.6898 115.161 54.5968 115.323 55.4944L115.637 57.3276L114.312 58.6262C113.664 59.2564 113.426 60.2112 113.712 61.0705C113.988 61.9394 114.741 62.5601 115.637 62.6937L117.467 62.9611L118.287 64.6225C118.688 65.4341 119.517 65.9497 120.422 65.9497C121.328 65.9497 122.157 65.4341 122.558 64.6225L123.378 62.9611L125.208 62.6937C126.104 62.5601 126.847 61.9299 127.133 61.0705C127.41 60.2017 127.181 59.2564 126.533 58.6262L125.208 57.3276L125.503 55.609C125.541 55.4466 125.56 55.2748 125.56 55.0933C125.56 53.7757 124.493 52.7063 123.177 52.7063L123.168 52.6967Z" fill="#231D1D"/>
<path d="M146.989 60.6695C146.532 60.6695 146.122 60.4117 145.922 60.0011L144.825 57.7764L142.376 57.4231C141.928 57.3563 141.556 57.0412 141.413 56.6115C141.27 56.1818 141.394 55.7044 141.718 55.3893L143.491 53.6611L143.071 51.2168C142.995 50.768 143.176 50.3192 143.548 50.0519C143.758 49.8991 144.006 49.8227 144.244 49.8227C144.435 49.8227 144.625 49.8705 144.797 49.9564L146.989 51.1117L149.182 49.9564C149.353 49.8609 149.544 49.8227 149.735 49.8227C149.982 49.8227 150.23 49.8991 150.43 50.0519C150.802 50.3192 150.983 50.768 150.907 51.2168L150.488 53.6611L152.261 55.3893C152.585 55.7044 152.699 56.1818 152.566 56.6115C152.423 57.0412 152.051 57.3563 151.603 57.4231L149.153 57.7764L148.057 60.0011C147.857 60.4117 147.437 60.6695 146.989 60.6695V60.6695Z" fill="#F8F3EB"/>
<path d="M149.735 50.9971L149.21 54.0621L151.431 56.2296L148.362 56.6784L146.989 59.4664L145.617 56.6784L142.547 56.2296L144.768 54.0621L144.244 50.9971L146.989 52.4485L149.735 50.9971ZM149.735 48.6101C149.735 48.6101 149.696 48.6101 149.668 48.6101C149.277 48.6196 148.905 48.7247 148.581 48.9061L146.98 49.7463L145.34 48.887C144.987 48.7056 144.606 48.6101 144.234 48.6101C143.739 48.6101 143.253 48.7629 142.833 49.0684C142.099 49.6031 141.727 50.5102 141.889 51.4077L142.204 53.241L140.879 54.5395C140.231 55.1697 139.993 56.1246 140.278 56.9839C140.564 57.8432 141.308 58.4734 142.204 58.6071L144.034 58.8744L144.854 60.5358C145.254 61.3474 146.084 61.863 146.989 61.863C147.895 61.863 148.724 61.3474 149.125 60.5358L149.944 58.8744L151.775 58.6071C152.671 58.4734 153.414 57.8432 153.7 56.9839C153.986 56.1246 153.748 55.1697 153.1 54.5395L151.775 53.241L152.07 51.5223C152.108 51.36 152.127 51.1881 152.127 51.0067C152.127 49.689 151.06 48.6196 149.744 48.6196L149.735 48.6101Z" fill="#231D1D"/>
<path d="M130.403 40.7614C129.945 40.7614 129.535 40.5036 129.335 40.0931L128.239 37.8683L125.789 37.515C125.341 37.4482 124.969 37.1331 124.826 36.7034C124.684 36.2738 124.807 35.7964 125.132 35.4813L126.905 33.7435L126.485 31.2991C126.409 30.8504 126.59 30.4016 126.962 30.1342C127.171 29.9815 127.419 29.9051 127.658 29.9051C127.848 29.9051 128.039 29.9528 128.21 30.0388L130.403 31.1941L132.595 30.0388C132.767 29.9433 132.958 29.9051 133.148 29.9051C133.396 29.9051 133.644 29.9815 133.844 30.1342C134.216 30.4016 134.397 30.8504 134.321 31.2991L133.901 33.7435L135.674 35.4813C135.998 35.7964 136.113 36.2738 135.979 36.7034C135.836 37.1331 135.465 37.4482 135.017 37.515L132.567 37.8683L131.471 40.0931C131.27 40.5036 130.851 40.7614 130.403 40.7614V40.7614Z" fill="#F8F3EB"/>
<path d="M133.148 31.0891L132.624 34.1541L134.845 36.3215L131.776 36.7703L130.403 39.5584L129.03 36.7703L125.961 36.3215L128.182 34.1541L127.658 31.0891L130.403 32.5404L133.148 31.0891ZM133.148 28.702C133.148 28.702 133.101 28.702 133.082 28.702C132.691 28.7116 132.319 28.8166 131.995 28.998L130.393 29.8383L128.754 28.9789C128.401 28.7975 128.02 28.702 127.648 28.702C127.152 28.702 126.666 28.8548 126.247 29.1603C125.513 29.695 125.141 30.6021 125.303 31.4996L125.618 33.3329L124.293 34.6315C123.645 35.2617 123.406 36.2165 123.692 37.0758C123.978 37.9352 124.722 38.5653 125.618 38.699L127.448 38.9664L128.268 40.6278C128.668 41.4394 129.497 41.955 130.403 41.955C131.309 41.955 132.138 41.4394 132.538 40.6278L133.358 38.9664L135.188 38.699C136.084 38.5653 136.828 37.9352 137.114 37.0758C137.4 36.2165 137.161 35.2617 136.513 34.6315L135.188 33.3329L135.484 31.6142C135.522 31.4519 135.541 31.28 135.541 31.0986C135.541 29.781 134.473 28.7116 133.167 28.7116L133.148 28.702Z" fill="#231D1D"/>
<path d="M148.476 30.6689C148.019 30.6689 147.609 30.4111 147.409 30.0006L146.312 27.7758L143.863 27.4225C143.415 27.3557 143.043 27.0406 142.9 26.6109C142.757 26.1813 142.881 25.7039 143.205 25.3888L144.978 23.651L144.558 21.2066C144.482 20.7579 144.663 20.3091 145.035 20.0418C145.245 19.889 145.493 19.8126 145.731 19.8126C145.922 19.8126 146.112 19.8603 146.284 19.9463L148.476 21.1016L150.669 19.9463C150.84 19.8508 151.031 19.8126 151.222 19.8126C151.469 19.8126 151.717 19.889 151.917 20.0418C152.289 20.3091 152.47 20.7579 152.394 21.2066L151.975 23.651L153.748 25.3888C154.072 25.7039 154.186 26.1813 154.053 26.6109C153.91 27.0406 153.538 27.3557 153.09 27.4225L150.64 27.7758L149.544 30.0006C149.344 30.4111 148.924 30.6689 148.476 30.6689V30.6689Z" fill="#F8F3EB"/>
<path d="M151.231 20.9966L150.707 24.0616L152.928 26.229L149.859 26.6778L148.486 29.4659L147.113 26.6778L144.044 26.229L146.265 24.0616L145.741 20.9966L148.486 22.4479L151.231 20.9966ZM151.231 18.6095C151.231 18.6095 151.193 18.6095 151.164 18.6095C150.774 18.6191 150.402 18.7241 150.078 18.9055L148.476 19.7458L146.837 18.8864C146.484 18.705 146.103 18.6095 145.731 18.6095C145.235 18.6095 144.749 18.7623 144.33 19.0678C143.596 19.6025 143.224 20.5096 143.386 21.4072L143.701 23.2404L142.376 24.539C141.727 25.1692 141.489 26.124 141.775 26.9833C142.061 27.8427 142.805 28.4729 143.701 28.6065L145.531 28.8739L146.351 30.5353C146.751 31.3469 147.58 31.8625 148.486 31.8625C149.391 31.8625 150.221 31.3469 150.621 30.5353L151.441 28.8739L153.271 28.6065C154.167 28.4729 154.911 27.8427 155.197 26.9833C155.483 26.124 155.244 25.1692 154.596 24.539L153.271 23.2404L153.567 21.5217C153.605 21.3594 153.624 21.1875 153.624 21.0061C153.624 19.6885 152.556 18.6191 151.241 18.6191L151.231 18.6095Z" fill="#231D1D"/>
</g>
<path d="M44.8429 27.7907C45.1869 27.6088 45.5094 27.5483 45.8105 27.6091C46.1015 27.6508 46.3379 27.8436 46.5198 28.1875L53.6425 42.2812C53.8142 42.606 53.8545 42.8903 53.7634 43.134C53.6622 43.3587 53.4874 43.5367 53.239 43.6681C52.9715 43.8095 52.7164 43.8589 52.4737 43.816C52.24 43.744 52.0278 43.5506 51.8369 43.2359L44.227 29.4C44.026 29.0661 43.9902 28.7672 44.1196 28.5032C44.2579 28.21 44.499 27.9725 44.8429 27.7907ZM54.6939 46.4194C55.1333 46.187 55.5918 46.1524 56.0692 46.3156C56.5557 46.4495 56.9151 46.7362 57.1475 47.1756C57.3799 47.6151 57.4145 48.0736 57.2514 48.551C57.1073 49.0184 56.8156 49.3682 56.3761 49.6006C55.9176 49.8431 55.4546 49.8923 54.9872 49.7483C54.5199 49.6042 54.17 49.3125 53.9376 48.873C53.7053 48.4336 53.6611 47.9802 53.8051 47.5128C53.9391 47.0264 54.2353 46.6619 54.6939 46.4194ZM53.0154 23.469C53.3593 23.2872 53.6818 23.2266 53.9829 23.2875C54.2739 23.3292 54.5104 23.522 54.6922 23.8659L61.8149 37.9595C61.9867 38.2843 62.027 38.5686 61.9359 38.8124C61.8346 39.0371 61.6598 39.2151 61.4114 39.3465C61.144 39.4879 60.8889 39.5372 60.6462 39.4944C60.4125 39.4224 60.2002 39.229 60.0094 38.9143L52.3995 25.0783C52.1985 24.7445 52.1627 24.4456 52.292 24.1816C52.4304 23.8884 52.6715 23.6509 53.0154 23.469ZM62.8664 42.0978C63.3058 41.8654 63.7643 41.8308 64.2417 41.9939C64.7282 42.1279 65.0876 42.4146 65.32 42.854C65.5524 43.2935 65.587 43.7519 65.4238 44.2294C65.2798 44.6968 64.988 45.0466 64.5486 45.279C64.09 45.5215 63.6271 45.5707 63.1597 45.4267C62.6924 45.2826 62.3425 44.9909 62.1101 44.5514C61.8777 44.112 61.8336 43.6586 61.9776 43.1912C62.1115 42.7047 62.4078 42.3403 62.8664 42.0978Z" fill="#FF9600"/>
<path d="M221.283 59.778C221.52 59.8831 221.685 60.0271 221.777 60.2098C221.875 60.3795 221.872 60.5828 221.767 60.8198L217.322 70.3612C217.222 70.585 217.09 70.7234 216.925 70.7761C216.766 70.8158 216.6 70.7976 216.429 70.7217C216.245 70.6399 216.114 70.5266 216.036 70.3819C215.977 70.2298 215.991 70.0389 216.077 69.8091L220.186 60.1189C220.278 59.876 220.42 59.734 220.612 59.6929C220.822 59.6445 221.046 59.6728 221.283 59.778ZM215.588 72.618C215.891 72.7524 216.098 72.9782 216.209 73.2956C216.34 73.6056 216.338 73.912 216.203 74.2149C216.069 74.5178 215.843 74.725 215.526 74.8364C215.222 74.9536 214.918 74.9451 214.615 74.8107C214.299 74.6705 214.083 74.4484 213.965 74.1442C213.848 73.84 213.857 73.5365 213.991 73.2336C214.125 72.9307 214.345 72.7206 214.649 72.6034C214.959 72.473 215.272 72.4778 215.588 72.618Z" fill="#FF9600"/>
<defs>
<clipPath id="clip0_1823_3804">
<rect width="265" height="402" fill="white"/>
</clipPath>
</defs>
</svg>
