<svg width="193" height="365" viewBox="0 0 193 365" fill="none" xmlns="http://www.w3.org/2000/svg">
<g clip-path="url(#clip0_1783_3167)">
<path d="M137.47 155.79C143.54 163.57 153.99 179.19 157.91 201.73C159.18 209.05 166.18 249.81 141.44 276.89C124.1 295.86 101.43 296.89 92.47 297.29C83.5 296.88 60.83 295.86 43.5 276.89C18.76 249.81 25.75 209.05 27.03 201.73C30.95 179.19 41.4 163.56 47.47 155.79" fill="#F9F2E9"/>
<path d="M137.47 155.79C143.54 163.57 153.99 179.19 157.91 201.73C159.18 209.05 166.18 249.81 141.44 276.89C124.1 295.86 101.43 296.89 92.47 297.29C83.5 296.88 60.83 295.86 43.5 276.89C18.76 249.81 25.75 209.05 27.03 201.73C30.95 179.19 41.4 163.56 47.47 155.79" stroke="#241D1D" stroke-width="2.5" stroke-miterlimit="10"/>
<path d="M174.43 362.76H10.49L2.04999 240.36H182.86L174.43 362.76Z" fill="#F9F2E9" stroke="#241D1D" stroke-width="2.5" stroke-linecap="round" stroke-linejoin="round"/>
<path d="M182.86 240.36H2.04999L25.13 225.92H159.78L182.86 240.36Z" fill="#F9F2E9" stroke="#241D1D" stroke-width="2.5" stroke-linecap="round" stroke-linejoin="round"/>
<path d="M59.98 233.14H124.94" stroke="#241D1D" stroke-width="2.5" stroke-linecap="round" stroke-linejoin="round"/>
<path d="M106.64 229.57L68.98 215.22L76.02 184.79L119.67 201.42L113.05 230.01" fill="#F18B00"/>
<path d="M106.64 229.57L68.98 215.22L76.02 184.79L119.67 201.42L113.05 230.01" stroke="#241D1D" stroke-width="2.5" stroke-linecap="round" stroke-linejoin="round"/>
<path d="M104.9 230.01L63.88 220.24L70.92 189.82L119.67 201.42L113.05 230.01H104.9Z" fill="#F18B00" stroke="#241D1D" stroke-width="2.5" stroke-linecap="round" stroke-linejoin="round"/>
<path d="M42.3 155.79C29.4 161.88 18.29 173.53 13.64 187.27C8.98999 201.01 12.12 218.76 26.16 226.33C39.63 233.59 67.2 229.29 67.42 209.8C67.49 203.39 63.5 200.02 60.95 194.75C58.92 190.55 58.53 186.51 58.51 183.72" fill="#F9F2E9"/>
<path d="M42.3 155.79C29.4 161.88 18.29 173.53 13.64 187.27C8.98999 201.01 12.12 218.76 26.16 226.33C39.63 233.59 67.2 229.29 67.42 209.8C67.49 203.39 63.5 200.02 60.95 194.75C58.92 190.55 58.53 186.51 58.51 183.72" stroke="#241D1D" stroke-width="2.5" stroke-linecap="round" stroke-linejoin="round"/>
<path d="M126.4 183.72C126.39 186.51 125.99 190.55 123.96 194.75C121.41 200.02 117.42 203.39 117.49 209.8C117.7 229.29 145.28 233.59 158.75 226.33C172.79 218.76 176.13 201.65 171.27 187.27C166.62 173.52 155.52 161.88 142.61 155.79H42.3" fill="#F9F2E9"/>
<path d="M126.4 183.72C126.39 186.51 125.99 190.55 123.96 194.75C121.41 200.02 117.42 203.39 117.49 209.8C117.7 229.29 145.28 233.59 158.75 226.33C172.79 218.76 176.13 201.65 171.27 187.27C166.62 173.52 155.52 161.88 142.61 155.79H42.3" stroke="#241D1D" stroke-width="2.5" stroke-linecap="round" stroke-linejoin="round"/>
<path d="M8.40843 10.5745C8.67435 10.4341 8.93757 10.3745 9.19809 10.3956C9.45861 10.4168 9.73515 10.5541 10.0277 10.8077L25.6069 24.3451C25.8631 24.5726 25.9852 24.8255 25.9734 25.1038C25.97 25.3549 25.8676 25.5903 25.6662 25.81C25.4471 26.039 25.1994 26.1924 24.9231 26.2703C24.6552 26.321 24.3885 26.2238 24.1231 25.9786L19.3351 21.7396L11.3575 25.9511L12.1441 32.3364C12.1875 32.6762 12.1126 32.9424 11.9196 33.135C11.7172 33.3098 11.4597 33.4231 11.147 33.4748C10.852 33.5172 10.5998 33.469 10.3905 33.3301C10.1989 33.1819 10.0814 32.9379 10.0381 32.5981L7.66101 12.0571C7.61665 11.6725 7.65922 11.3667 7.78871 11.1396C7.93594 10.9032 8.14251 10.7148 8.40843 10.5745ZM9.60316 12.902C9.74507 13.6432 9.87811 14.389 10.0023 15.1395C10.1171 15.8723 10.2204 16.6905 10.3121 17.5942L11.0987 23.9795L17.8797 20.3998L13.1042 16.1202C12.4369 15.5431 11.8148 14.9874 11.2381 14.4531C10.6613 13.9188 10.1164 13.4018 9.60316 12.902ZM23.3247 2.46202C24.1933 2.00344 25.0342 1.70688 25.8473 1.57235C26.678 1.42847 27.4539 1.43823 28.1749 1.60166C28.8866 1.74736 29.5209 2.04721 30.0779 2.50121C30.6527 2.94585 31.1319 3.5316 31.5156 4.25845L31.6701 4.55096C32.138 5.43736 32.3287 6.35678 32.2421 7.30923C32.1462 8.24395 31.8525 9.36238 31.3612 10.6645C31.0736 11.451 30.8639 12.1058 30.732 12.6288C30.6001 13.1518 30.525 13.6108 30.5068 14.0058C30.497 14.3737 30.5404 14.7135 30.6369 15.0252C30.7419 15.3098 30.8832 15.6206 31.0611 15.9574C31.1921 16.2056 31.1928 16.4432 31.0634 16.6702C30.9516 16.8879 30.7805 17.0576 30.55 17.1793C30.3018 17.3103 30.0475 17.3652 29.7869 17.3441C29.5264 17.3229 29.326 17.1794 29.1856 16.9135C28.9516 16.4703 28.763 16.0485 28.6196 15.6481C28.4763 15.2478 28.3996 14.8235 28.3897 14.3754C28.3976 13.9179 28.4581 13.4099 28.5713 12.8514C28.7022 12.2836 28.9203 11.6017 29.2256 10.8058C29.4796 10.1277 29.6773 9.53596 29.8186 9.03067C29.9682 8.49829 30.0657 8.03881 30.111 7.65221C30.1646 7.23853 30.152 6.87115 30.0732 6.55006C30.0121 6.21962 29.8973 5.89485 29.7288 5.57574L29.6165 5.36301C29.1205 4.42342 28.3948 3.84312 27.4394 3.6221C26.5017 3.39172 25.4478 3.58537 24.2778 4.20305C23.3737 4.68035 22.6909 5.23346 22.2295 5.8624C21.7681 6.49133 21.4021 7.17196 21.1313 7.9043C21.0205 8.16679 20.8452 8.35001 20.6054 8.45395C20.3739 8.5308 20.1269 8.51383 19.8644 8.40305C19.5842 8.30163 19.3879 8.14456 19.2756 7.93182C19.1717 7.692 19.1704 7.43197 19.2719 7.15175C19.5584 6.32042 20.0331 5.48047 20.6958 4.63187C21.367 3.75619 22.2433 3.0329 23.3247 2.46202ZM31.8711 19.7461C32.2965 19.5215 32.7307 19.485 33.1734 19.6367C33.6068 19.7706 33.9311 20.0414 34.1464 20.4492C34.3616 20.8569 34.4023 21.2775 34.2684 21.7109C34.1345 22.1442 33.8548 22.4732 33.4293 22.6979C33.0216 22.9131 32.5921 22.9585 32.141 22.8339C31.7076 22.7 31.3833 22.4292 31.1681 22.0214C30.9528 21.6137 30.9121 21.1931 31.046 20.7597C31.1883 20.2993 31.4633 19.9614 31.8711 19.7461Z" fill="#F18B00"/>
<path d="M177.151 31.7321C178.556 32.3546 179.472 33.0748 179.9 33.8926C180.327 34.7104 180.297 35.6693 179.81 36.7693L179.68 37.0626C179.55 37.3559 179.386 37.6269 179.188 37.8755C178.996 38.1119 178.76 38.3144 178.48 38.483C178.206 38.6395 177.888 38.7471 177.526 38.8059C177.181 38.8579 176.792 38.8462 176.357 38.7707C177.159 39.2719 177.698 39.869 177.976 40.5622C178.254 41.2554 178.187 42.0664 177.776 42.9952L177.613 43.3618C177.131 44.4495 176.422 45.1589 175.486 45.4899C174.568 45.814 173.4 45.6622 171.982 45.0342L168.132 43.329C167.668 43.1233 167.382 42.8943 167.275 42.642C167.179 42.3952 167.234 42.0395 167.44 41.5751L172.142 30.9607C172.347 30.4963 172.574 30.2165 172.82 30.1211C173.08 30.0312 173.441 30.0891 173.906 30.2948L177.151 31.7321ZM174.466 37.2972C175.432 37.7248 176.232 37.8819 176.867 37.7685C177.502 37.655 177.99 37.2133 178.331 36.4434L178.437 36.2051C178.751 35.4962 178.751 34.8678 178.438 34.3199C178.143 33.7652 177.452 33.247 176.364 32.7652L173.486 31.4904L171.496 35.9818L174.466 37.2972ZM172.127 43.7169C173.166 44.177 174.017 44.3347 174.681 44.19C175.356 44.0507 175.889 43.5411 176.279 42.6612L176.417 42.3495C176.585 41.9707 176.672 41.6075 176.68 41.2601C176.705 40.9058 176.621 40.5687 176.426 40.2486C176.244 39.934 175.955 39.6303 175.558 39.3377C175.167 39.0328 174.647 38.7369 174 38.45L170.993 37.1184L168.736 42.2147L172.127 43.7169ZM187.481 36.0666C188.08 36.3318 188.583 36.6494 188.989 37.0194C189.407 37.3948 189.723 37.805 189.935 38.2499C190.153 38.6825 190.258 39.1384 190.25 39.6175C190.255 40.102 190.146 40.5948 189.924 41.0959L189.835 41.2976C189.564 41.9086 189.162 42.3882 188.628 42.7363C188.099 43.0722 187.392 43.3805 186.507 43.6612C185.977 43.8356 185.548 43.9963 185.219 44.1433C184.891 44.2903 184.62 44.4406 184.406 44.5942C184.209 44.7411 184.049 44.9041 183.926 45.0834C183.82 45.2559 183.716 45.4583 183.613 45.6905C183.537 45.8616 183.413 45.9601 183.241 45.9861C183.081 46.0176 182.921 45.9981 182.762 45.9277C182.591 45.8519 182.458 45.7415 182.361 45.5964C182.264 45.4513 182.257 45.2871 182.338 45.1038C182.473 44.7982 182.616 44.5252 182.766 44.2848C182.917 44.0444 183.107 43.8291 183.338 43.6388C183.58 43.4539 183.871 43.2757 184.21 43.1043C184.562 42.9383 185.009 42.7708 185.551 42.6018C186.011 42.4546 186.403 42.3137 186.725 42.1789C187.066 42.0373 187.347 41.8985 187.568 41.7625C187.806 41.6197 187.993 41.4614 188.129 41.2875C188.277 41.119 188.399 40.9248 188.497 40.7048L188.562 40.5582C188.849 39.9104 188.853 39.2909 188.574 38.6995C188.307 38.1135 187.77 37.6419 186.964 37.2846C186.34 37.0085 185.769 36.8797 185.249 36.898C184.729 36.9163 184.222 37.0058 183.727 37.1666C183.543 37.217 183.375 37.2009 183.222 37.1183C183.086 37.0289 182.993 36.8927 182.942 36.7095C182.879 36.5209 182.881 36.3533 182.946 36.2067C183.028 36.0532 183.164 35.9451 183.352 35.8825C183.906 35.689 184.542 35.5905 185.259 35.5869C185.995 35.5765 186.736 35.7364 187.481 36.0666ZM181.965 47.6795C182.258 47.8094 182.456 48.0215 182.56 48.3159C182.669 48.5981 182.661 48.8797 182.537 49.1608C182.412 49.4419 182.209 49.6369 181.927 49.7458C181.644 49.8548 181.357 49.8443 181.063 49.7144C180.782 49.5898 180.581 49.3838 180.46 49.0962C180.351 48.8141 180.359 48.5325 180.483 48.2514C180.608 47.9703 180.811 47.7753 181.093 47.6663C181.393 47.5506 181.684 47.555 181.965 47.6795Z" fill="#F18B00"/>
<path d="M65.66 57.78C60.92 48.5 50.46 43.61 41.3 46.75C31.46 50.13 26.84 61.51 30.98 72.16C32.61 76.36 35.36 79.82 38.7 82.26" fill="#F9F2E9"/>
<path d="M65.66 57.78C60.92 48.5 50.46 43.61 41.3 46.75C31.46 50.13 26.84 61.51 30.98 72.16C32.61 76.36 35.36 79.82 38.7 82.26" stroke="#241D1D" stroke-width="2.5" stroke-linejoin="round"/>
<path d="M53.97 64.46C52.75 61.58 49.63 60 46.91 60.94C44.14 61.89 42.84 65.1 44 68.1C44.51 69.41 45.41 70.47 46.49 71.16" fill="#F9F2E9"/>
<path d="M53.97 64.46C52.75 61.58 49.63 60 46.91 60.94C44.14 61.89 42.84 65.1 44 68.1C44.51 69.41 45.41 70.47 46.49 71.16" stroke="#241D1D" stroke-width="2.5" stroke-linejoin="round"/>
<path d="M118.67 57.52C123.47 48.41 133.82 43.64 142.89 46.76C152.73 50.14 157.35 61.52 153.21 72.17C151.66 76.15 149.11 79.47 146 81.89" fill="#F9F2E9"/>
<path d="M118.67 57.52C123.47 48.41 133.82 43.64 142.89 46.76C152.73 50.14 157.35 61.52 153.21 72.17C151.66 76.15 149.11 79.47 146 81.89" stroke="#241D1D" stroke-width="2.5" stroke-linejoin="round"/>
<path d="M130.23 64.46C131.45 61.58 134.57 60 137.29 60.94C140.01 61.88 141.36 65.1 140.2 68.1C139.69 69.41 138.79 70.47 137.71 71.16" fill="#F9F2E9"/>
<path d="M130.23 64.46C131.45 61.58 134.57 60 137.29 60.94C140.01 61.88 141.36 65.1 140.2 68.1C139.69 69.41 138.79 70.47 137.71 71.16" stroke="#241D1D" stroke-width="2.5" stroke-linejoin="round"/>
<path d="M38.7 82.26C34.84 89.29 32.62 97.19 32.48 105.55C27.32 111.96 24.51 119.39 24.51 127.18C24.51 152.28 54.93 172.63 92.45 172.63C129.97 172.63 160.39 152.28 160.39 127.18C160.39 119.45 157.51 111.92 152.42 105.55C152.07 84.42 138.39 66.21 118.66 57.52C110.74 54.03 101.85 52.07 92.45 52.07C83.05 52.07 73.71 54.13 65.65 57.78C53.99 63.06 44.5 71.68 38.7 82.26V82.26Z" fill="#F9F2E9" stroke="#241D1D" stroke-width="2.5" stroke-linejoin="round"/>
<path d="M92.82 123.56H90.9V129.48H92.82V123.56Z" fill="#241D1D"/>
<path d="M103.89 113.38C105.425 113.38 106.67 111.965 106.67 110.22C106.67 108.475 105.425 107.06 103.89 107.06C102.355 107.06 101.11 108.475 101.11 110.22C101.11 111.965 102.355 113.38 103.89 113.38Z" fill="#241D1D"/>
<path d="M79.83 113.38C81.3653 113.38 82.61 111.965 82.61 110.22C82.61 108.475 81.3653 107.06 79.83 107.06C78.2946 107.06 77.05 108.475 77.05 110.22C77.05 111.965 78.2946 113.38 79.83 113.38Z" fill="#241D1D"/>
<path d="M91.86 124.93C94.8534 124.93 97.28 123.305 97.28 121.3C97.28 119.295 94.8534 117.67 91.86 117.67C88.8666 117.67 86.44 119.295 86.44 121.3C86.44 123.305 88.8666 124.93 91.86 124.93Z" fill="#241D1D"/>
<path d="M91.86 124.4V128.98" stroke="#251714" stroke-width="2.71" stroke-miterlimit="10" stroke-linecap="round"/>
<path d="M100.67 127.77C98.7 128.93 96.72 130.09 91.85 130.09C86.98 130.09 84.33 128.62 83.03 127.77" stroke="#241D1D" stroke-width="2.71" stroke-linecap="round" stroke-linejoin="round"/>
</g>
<defs>
<clipPath id="clip0_1783_3167">
<rect width="192.14" height="364.01" fill="white"/>
</clipPath>
</defs>
</svg>
