<svg width="266" height="373" viewBox="0 0 266 373" fill="none" xmlns="http://www.w3.org/2000/svg">
<g clip-path="url(#clip0_1783_3196)">
<path d="M132.88 370.805C205.584 370.805 264.522 356.339 264.522 338.493C264.522 320.648 205.584 306.181 132.88 306.181C60.1764 306.181 1.2384 320.648 1.2384 338.493C1.2384 356.339 60.1764 370.805 132.88 370.805Z" fill="#F18B00" stroke="#241D1D" stroke-width="2.5" stroke-linecap="round" stroke-linejoin="round"/>
<path d="M138.755 276.359C136.318 290.797 134.406 307.088 136.357 321.715C137.516 330.408 140.934 338.065 148.176 342.456C158.172 348.521 170.991 348.172 182.028 346.32C189.478 345.075 197.928 342.208 202.386 335.148C209.212 324.334 206.418 310.911 201.663 299.908C195.214 285.012 194.5 273.023 193.321 261.054" fill="#F9F2E9"/>
<path d="M138.755 276.359C136.318 290.797 134.406 307.088 136.357 321.715C137.516 330.408 140.934 338.065 148.176 342.456C158.172 348.521 170.991 348.172 182.028 346.32C189.478 345.075 197.928 342.208 202.386 335.148C209.212 324.334 206.418 310.911 201.663 299.908C195.214 285.012 194.5 273.023 193.321 261.054" stroke="#241D1D" stroke-width="2.5" stroke-miterlimit="10"/>
<path d="M126.995 276.359C129.432 290.797 131.344 307.088 129.393 321.715C128.234 330.408 124.816 338.065 117.574 342.456C107.578 348.521 94.7586 348.172 83.7224 346.32C76.2725 345.075 67.822 342.208 63.3639 335.148C56.5382 324.334 59.3319 310.911 64.0871 299.908C70.5365 285.012 71.2498 273.023 72.4287 261.054" fill="#F9F2E9"/>
<path d="M126.995 276.359C129.432 290.797 131.344 307.088 129.393 321.715C128.234 330.408 124.816 338.065 117.574 342.456C107.578 348.521 94.7586 348.172 83.7224 346.32C76.2725 345.075 67.822 342.208 63.3639 335.148C56.5382 324.334 59.3319 310.911 64.0871 299.908C70.5365 285.012 71.2498 273.023 72.4287 261.054" stroke="#241D1D" stroke-width="2.5" stroke-miterlimit="10"/>
<path d="M132.256 289.403C123.013 289.433 113.74 288.308 104.863 285.918C94.2731 283.08 84.0096 277.972 76.7975 269.528C58.7275 248.349 62.8784 221.304 67.4356 196.042C70.368 179.782 77.5999 164.417 87.9327 151.662" fill="#F9F2E9"/>
<path d="M132.256 289.403C123.013 289.433 113.74 288.308 104.863 285.918C94.2731 283.08 84.0096 277.972 76.7975 269.528C58.7275 248.349 62.8784 221.304 67.4356 196.042C70.368 179.782 77.5999 164.417 87.9327 151.662" stroke="#241D1D" stroke-width="2.5" stroke-linecap="round" stroke-linejoin="round"/>
<path d="M132.256 289.403C141.499 289.433 150.772 288.308 159.648 285.918C170.238 283.08 180.502 277.972 187.714 269.528C205.784 248.349 201.633 221.304 197.076 196.042C194.144 179.782 186.912 164.417 176.579 151.662L89.8646 154.271L79.3733 149.75C66.0982 156.023 54.6756 167.992 49.8906 182.132C44.8877 196.918 48.3253 214.523 62.7695 222.3C76.6192 229.768 104.992 225.347 105.21 205.303C105.28 198.711 101.168 195.246 98.5528 189.829C96.4625 185.517 96.0563 181.355 96.0464 178.487" fill="#F9F2E9"/>
<path d="M132.256 289.403C141.499 289.433 150.772 288.308 159.648 285.918C170.238 283.08 180.502 277.972 187.714 269.528C205.784 248.349 201.633 221.304 197.076 196.042C194.144 179.782 186.912 164.417 176.579 151.662L89.8646 154.271L79.3733 149.75C66.0982 156.023 54.6756 167.992 49.8906 182.132C44.8877 196.918 48.3253 214.523 62.7695 222.3C76.6192 229.768 104.992 225.347 105.21 205.303C105.28 198.711 101.168 195.246 98.5528 189.829C96.4625 185.517 96.0563 181.355 96.0464 178.487" stroke="#241D1D" stroke-width="2.5" stroke-linecap="round" stroke-linejoin="round"/>
<path d="M41.2213 4.61667C41.5514 4.44249 41.8605 4.38489 42.1486 4.44384C42.4271 4.48442 42.6527 4.67011 42.8255 5.0009L49.5902 18.5562C49.7534 18.8686 49.7908 19.1418 49.7026 19.3759C49.6048 19.5917 49.4367 19.7624 49.1983 19.8882C48.9416 20.0237 48.6971 20.0706 48.4649 20.0291C48.2414 19.9595 48.0389 19.7733 47.8574 19.4706L40.6251 6.16205C40.4339 5.84094 40.4008 5.55365 40.5257 5.30019C40.6594 5.01868 40.8913 4.79084 41.2213 4.61667ZM50.5806 22.5346C51.0023 22.312 51.4415 22.2795 51.8981 22.4371C52.3634 22.5666 52.7064 22.8428 52.9272 23.2654C53.148 23.6881 53.1793 24.1287 53.0212 24.5873C52.8814 25.0361 52.6006 25.3718 52.1788 25.5944C51.7388 25.8266 51.2952 25.8731 50.8483 25.7339C50.4013 25.5947 50.0674 25.3137 49.8466 24.8911C49.6258 24.4684 49.5853 24.0326 49.7251 23.5837C49.8553 23.1165 50.1405 22.7668 50.5806 22.5346ZM49.0646 0.477789C49.3947 0.303616 49.7038 0.246007 49.9919 0.304964C50.2704 0.345543 50.496 0.531228 50.6688 0.86202L57.4335 14.4173C57.5967 14.7297 57.6342 15.003 57.5459 15.2371C57.4481 15.4528 57.28 15.6235 57.0416 15.7493C56.7849 15.8848 56.5404 15.9318 56.3082 15.8902C56.0847 15.8206 55.8822 15.6344 55.7007 15.3317L48.4684 2.02317C48.2773 1.70206 48.2441 1.41477 48.3691 1.16132C48.5027 0.879804 48.7346 0.651962 49.0646 0.477789ZM58.4239 18.3957C58.8456 18.1731 59.2848 18.1406 59.7414 18.2982C60.2067 18.4278 60.5497 18.7039 60.7705 19.1266C60.9913 19.5492 61.0226 19.9898 60.8645 20.4484C60.7247 20.8972 60.4439 21.2329 60.0222 21.4555C59.5821 21.6877 59.1385 21.7342 58.6916 21.595C58.2446 21.4558 57.9107 21.1749 57.6899 20.7522C57.4691 20.3295 57.4287 19.8937 57.5685 19.4449C57.6987 18.9776 57.9838 18.6279 58.4239 18.3957Z" fill="#F18B00"/>
<path d="M216.299 22.4549C216.526 22.5555 216.685 22.6935 216.774 22.8689C216.868 23.0316 216.866 23.2269 216.766 23.4546L212.546 32.6214C212.451 32.8365 212.325 32.9695 212.167 33.0204C212.015 33.0586 211.856 33.0414 211.692 32.9687C211.515 32.8904 211.389 32.7818 211.315 32.6429C211.258 32.497 211.27 32.3137 211.352 32.093L215.25 22.7836C215.337 22.5503 215.473 22.4138 215.656 22.3741C215.857 22.3273 216.072 22.3542 216.299 22.4549ZM210.894 34.7906C211.184 34.9192 211.383 35.1358 211.491 35.4403C211.617 35.7378 211.617 36.032 211.489 36.323C211.362 36.614 211.146 36.8132 210.843 36.9206C210.552 37.0336 210.261 37.0257 209.971 36.8971C209.668 36.7629 209.459 36.5499 209.346 36.258C209.232 35.9661 209.24 35.6747 209.367 35.3837C209.495 35.0927 209.704 34.8907 209.995 34.7777C210.291 34.6521 210.591 34.6564 210.894 34.7906Z" fill="#F18B00"/>
<path d="M105.299 50.8427C100.415 41.2935 89.6665 36.265 80.2352 39.5012C70.1105 42.9763 65.3552 54.6763 69.625 65.6295C71.3092 69.9511 74.1326 73.5059 77.5703 76.0251" fill="#F9F2E9"/>
<path d="M105.299 50.8427C100.415 41.2935 89.6665 36.265 80.2352 39.5012C70.1105 42.9763 65.3552 54.6763 69.625 65.6295C71.3092 69.9511 74.1326 73.5059 77.5703 76.0251" stroke="#241D1D" stroke-width="2.5" stroke-linejoin="round"/>
<path d="M93.2726 57.7133C92.0144 54.746 88.8046 53.1329 86.0109 54.0888C83.1578 55.0647 81.8203 58.3606 83.0191 61.4474C83.5441 62.8016 84.4654 63.887 85.5849 64.5939" fill="#F9F2E9"/>
<path d="M93.2726 57.7133C92.0144 54.746 88.8046 53.1329 86.0109 54.0888C83.1578 55.0647 81.8203 58.3606 83.0191 61.4474C83.5441 62.8016 84.4654 63.887 85.5849 64.5939" stroke="#241D1D" stroke-width="2.5" stroke-linejoin="round"/>
<path d="M159.846 50.5739C164.79 41.2039 175.43 36.2949 184.762 39.5012C194.887 42.9763 199.642 54.6763 195.372 65.6295C193.777 69.722 191.152 73.1374 187.952 75.6268" fill="#F9F2E9"/>
<path d="M159.846 50.5739C164.79 41.2039 175.43 36.2949 184.762 39.5012C194.887 42.9763 199.642 54.6763 195.372 65.6295C193.777 69.722 191.152 73.1374 187.952 75.6268" stroke="#241D1D" stroke-width="2.5" stroke-linejoin="round"/>
<path d="M171.725 57.7133C172.983 54.746 176.193 53.1329 178.986 54.0888C181.78 55.0448 183.177 58.3606 181.978 61.4474C181.453 62.8016 180.532 63.887 179.412 64.5939" fill="#F9F2E9"/>
<path d="M171.725 57.7133C172.983 54.746 176.193 53.1329 178.986 54.0888C181.78 55.0448 183.177 58.3606 181.978 61.4474C181.453 62.8016 180.532 63.887 179.412 64.5939" stroke="#241D1D" stroke-width="2.5" stroke-linejoin="round"/>
<path d="M77.5703 76.0251C83.5342 65.1516 93.3023 56.2795 105.299 50.8427C113.601 47.0888 122.963 44.9678 132.87 44.9678C142.777 44.9678 151.693 46.9792 159.836 50.5739C180.135 59.5156 194.203 78.2456 194.56 99.9727C199.791 106.525 202.763 114.272 202.763 122.218C202.763 148.037 171.467 168.968 132.87 168.968C94.2731 168.968 62.9775 148.037 62.9775 122.218C62.9775 114.212 65.8802 106.565 71.1804 99.9727C71.3191 91.3795 73.6075 83.2542 77.5703 76.0251V76.0251Z" fill="#F9F2E9" stroke="#241D1D" stroke-width="2.5" stroke-linejoin="round"/>
<path d="M133.246 118.504H131.275V124.588H133.246V118.504Z" fill="#241D1D"/>
<path d="M144.639 108.038C146.215 108.038 147.492 106.58 147.492 104.782C147.492 102.984 146.215 101.526 144.639 101.526C143.064 101.526 141.786 102.984 141.786 104.782C141.786 106.58 143.064 108.038 144.639 108.038Z" fill="#241D1D"/>
<path d="M119.882 108.038C121.458 108.038 122.735 106.58 122.735 104.782C122.735 102.984 121.458 101.526 119.882 101.526C118.306 101.526 117.029 102.984 117.029 104.782C117.029 106.58 118.306 108.038 119.882 108.038Z" fill="#241D1D"/>
<path d="M132.256 119.908C135.336 119.908 137.833 118.236 137.833 116.174C137.833 114.111 135.336 112.439 132.256 112.439C129.175 112.439 126.678 114.111 126.678 116.174C126.678 118.236 129.175 119.908 132.256 119.908Z" fill="#241D1D"/>
<path d="M132.256 119.36V124.08" stroke="#251714" stroke-width="2.71" stroke-miterlimit="10" stroke-linecap="round"/>
<path d="M141.331 122.835C139.3 124.03 137.269 125.215 132.266 125.215C127.263 125.215 124.529 123.701 123.201 122.835" stroke="#241D1D" stroke-width="2.71" stroke-linecap="round" stroke-linejoin="round"/>
<path d="M191.36 194.897C205.606 191.362 219.178 181.873 226.658 168.948C234.474 155.436 234.583 137.502 221.962 127.027C209.856 116.99 181.166 115.735 176.995 135.352C175.628 141.794 178.966 146.006 180.462 151.831C181.651 156.471 181.235 160.634 180.68 163.451" fill="#F9F2E9"/>
<path d="M191.36 194.897C205.606 191.362 219.178 181.873 226.658 168.948C234.474 155.436 234.583 137.502 221.962 127.027C209.856 116.99 181.166 115.735 176.995 135.352C175.628 141.794 178.966 146.006 180.462 151.831C181.651 156.471 181.235 160.634 180.68 163.451" stroke="#241D1D" stroke-width="2.5" stroke-linecap="round" stroke-linejoin="round"/>
</g>
<defs>
<clipPath id="clip0_1783_3196">
<rect width="265.75" height="372.05" fill="white"/>
</clipPath>
</defs>
</svg>
