<svg width="20" height="20" viewBox="0 0 20 20" fill="none" xmlns="http://www.w3.org/2000/svg">
<path d="M10.1532 5.30612C11.5903 5.30612 12.5596 5.92687 13.1124 6.44558L15.2722 4.33673C13.9457 3.10373 12.2195 2.34692 10.1532 2.34692C7.15996 2.34692 4.57492 4.06462 3.31641 6.56463L5.79091 8.48641C6.41166 6.64116 8.12936 5.30612 10.1532 5.30612Z" fill="#EA4335"/>
<path d="M17.5001 10.1701C17.5001 9.54082 17.449 9.08163 17.3385 8.60544H10.1531V11.4456H14.3708C14.2857 12.1514 13.8266 13.2143 12.8062 13.9286L15.2211 15.7994C16.6667 14.4643 17.5001 12.5 17.5001 10.1701Z" fill="#4285F4"/>
<path d="M5.79934 11.5136C5.63777 11.0374 5.54423 10.5272 5.54423 10C5.54423 9.4728 5.63777 8.96259 5.79083 8.4864L3.31633 6.56462C2.79762 7.60204 2.5 8.76701 2.5 10C2.5 11.233 2.79762 12.398 3.31633 13.4354L5.79934 11.5136Z" fill="#FBBC05"/>
<path d="M10.1532 17.6531C12.2196 17.6531 13.9543 16.9729 15.2213 15.7994L12.8063 13.9286C12.16 14.3793 11.2927 14.6939 10.1532 14.6939C8.1294 14.6939 6.4117 13.3589 5.79945 11.5136L3.32495 13.4354C4.58346 15.9354 7.16 17.6531 10.1532 17.6531Z" fill="#34A853"/>
</svg>
