<svg width="115" height="85" viewBox="0 0 115 85" fill="none" xmlns="http://www.w3.org/2000/svg">
<g clip-path="url(#clip0_1231_2462)">
<path d="M2.09349 40.081C0.861725 41.0395 0.0658943 42.4521 -2.45729e-06 44.1824C-0.167279 48.9044 5.00308 51.3007 8.98223 52.6325C14.4922 54.4789 20.2709 55.6039 26.0951 55.9923C31.9092 56.3808 37.7741 56.0579 43.5071 55.0641C47.4203 54.383 52.2207 53.2984 54.3496 49.7368C55.698 47.4767 55.7436 44.2178 53.8529 42.215C52.7985 41.095 51.2271 40.4342 49.6456 40.4392C47.1263 40.4493 44.9517 41.9728 42.6707 42.78C40.0652 43.7032 37.3178 44.2026 34.5958 44.6667C31.154 45.257 27.5955 45.5546 24.1436 44.9745C20.8741 44.4246 17.8428 43.0272 14.9535 41.5238C12.0642 40.0205 9.21541 38.4515 5.76343 38.724C4.35932 38.8349 3.08194 39.3092 2.08842 40.081H2.09349Z" fill="#FF9D00"/>
<path d="M11.5269 7.8245C8.92141 10.5739 6.64037 14.973 7.7961 18.9937C8.85551 22.6714 12.5255 24.9718 16.1244 24.8406C19.2723 24.7246 21.4063 23.4432 23.8546 21.7684C26.2269 20.1439 29.1923 18.8121 32.0613 18.6406C35.1382 18.4539 38.5598 19.8866 39.239 23.3676C40.0298 27.4236 36.5778 30.1932 33.9875 32.5642C33.0244 33.4471 31.9447 34.3854 31.3517 35.581C30.7535 36.7868 30.8701 38.391 31.7724 39.4151C32.5682 40.3131 33.8 40.6561 34.9405 40.6914C37.0796 40.757 39.1883 39.8338 41.079 38.9056C47.9678 35.5104 52.6819 28.2207 52.9962 20.3255C53.2649 13.5756 50.1221 7.28975 44.5969 3.61208C43.2891 2.73933 41.8799 2.02801 40.4049 1.5084C35.0926 -0.363228 29.2632 -0.44899 23.8546 0.993826C19.4852 2.15918 14.8014 4.37385 11.5269 7.82954V7.8245Z" fill="#FF9D00"/>
<path d="M26.1002 48.6118C28.7933 48.6118 30.9766 46.5293 30.9766 43.9605C30.9766 41.3916 28.7933 39.3092 26.1002 39.3092C23.4071 39.3092 21.2238 41.3916 21.2238 43.9605C21.2238 46.5293 23.4071 48.6118 26.1002 48.6118Z" fill="#F9F3EA"/>
<path d="M45.3978 60.1543C42.0472 57.9497 38.8335 59.216 34.023 59.2614C29.7803 59.3017 25.3956 59.1958 21.1275 58.6913C17.3714 58.2474 12.9918 56.522 9.42323 58.434C7.03574 59.7104 5.9155 62.1924 5.65698 64.6896C5.15008 69.5931 6.17402 74.6985 9.74258 78.5477C14.9281 84.1373 23.809 85.2775 31.3871 84.9546C35.6704 84.7679 40.1717 83.7943 43.5121 81.2265C49.0475 76.9787 52.2004 64.6391 45.3927 60.1594L45.3978 60.1543ZM32.1272 71.7826C31.6051 72.6301 30.5001 72.8824 29.5116 72.953C28.0619 73.0539 26.5361 73.0791 25.0712 72.8824C23.8293 72.7159 22.0349 72.4485 21.2999 71.4042C20.9298 70.8846 20.6764 70.0371 21.3556 69.6133C22.2072 69.0786 23.3122 69.5881 24.1942 69.7647C26.1813 70.1683 28.1886 70.1733 30.1807 69.8303C30.7636 69.7294 31.4226 69.6133 31.8991 69.9312C32.553 70.36 32.4922 71.1823 32.1272 71.7826Z" fill="#FF9D00"/>
<path d="M25.5274 48.0468C28.089 48.0468 30.1655 46.0659 30.1655 43.6225C30.1655 41.179 28.089 39.1982 25.5274 39.1982C22.9658 39.1982 20.8893 41.179 20.8893 43.6225C20.8893 46.0659 22.9658 48.0468 25.5274 48.0468Z" fill="#FF9D00"/>
<path d="M61.7655 40.081C60.5338 41.0395 59.738 42.447 59.6771 44.1824C59.5099 48.9044 64.6802 51.3007 68.6594 52.6325C74.1693 54.4789 79.948 55.6039 85.7723 55.9923C91.5864 56.3808 97.4512 56.0579 103.184 55.0641C107.097 54.383 111.898 53.2984 114.027 49.7368C115.375 47.4767 115.421 44.2178 113.53 42.215C112.476 41.095 110.904 40.4342 109.323 40.4392C106.803 40.4493 104.629 41.9728 102.348 42.78C99.7424 43.7032 96.995 44.2026 94.2729 44.6667C90.8311 45.257 87.2727 45.5546 83.8207 44.9745C80.5512 44.4246 77.5199 43.0272 74.6306 41.5238C71.7413 40.0205 68.8925 38.4515 65.4406 38.724C64.0365 38.8349 62.7591 39.3092 61.7655 40.081Z" fill="#FF9D00"/>
<path d="M71.1989 7.8245C68.5935 10.5739 66.3124 14.973 67.4682 18.9937C68.5276 22.6714 72.1975 24.9718 75.7965 24.8406C78.9443 24.7246 81.0784 23.4432 83.5267 21.7684C85.899 20.1439 88.8643 18.8121 91.7334 18.6406C94.8103 18.4539 98.2318 19.8866 98.9111 23.3676C99.7018 27.4236 96.2498 30.1932 93.6596 32.5643C92.6965 33.4471 91.6168 34.3854 91.0237 35.581C90.4256 36.7868 90.5422 38.391 91.4444 39.4151C92.2403 40.3131 93.472 40.6561 94.6126 40.6914C96.7517 40.757 98.8604 39.8338 100.751 38.9056C107.64 35.5104 112.354 28.2207 112.668 20.3255C112.937 13.5756 109.794 7.28975 104.269 3.61208C102.961 2.73933 101.552 2.02801 100.077 1.5084C94.7646 -0.373315 88.9353 -0.459077 83.5267 0.978694C79.1572 2.14405 74.4735 4.35872 71.1989 7.81441V7.8245Z" fill="#FF9D00"/>
<path d="M85.7672 48.6118C88.4603 48.6118 90.6435 46.5293 90.6435 43.9605C90.6435 41.3916 88.4603 39.3092 85.7672 39.3092C83.074 39.3092 80.8908 41.3916 80.8908 43.9605C80.8908 46.5293 83.074 48.6118 85.7672 48.6118Z" fill="#F9F3EA"/>
<path d="M105.065 60.1543C101.714 57.9497 98.5005 59.216 93.69 59.2614C89.4473 59.3017 85.0626 59.1958 80.7945 58.6913C77.0384 58.2474 72.6588 56.522 69.0902 58.434C66.7027 59.7104 65.5825 62.1924 65.324 64.6896C64.8171 69.5931 65.841 74.6985 69.4096 78.5477C74.5951 84.1373 83.476 85.2775 91.0541 84.9546C95.3374 84.7679 99.8387 83.7943 103.179 81.2265C108.714 76.9787 111.867 64.6391 105.06 60.1594L105.065 60.1543ZM91.7942 71.7826C91.2721 72.6301 90.1671 72.8824 89.1786 72.953C87.7289 73.0539 86.2031 73.0791 84.7382 72.8824C83.4963 72.7159 81.7019 72.4485 80.9669 71.4042C80.5968 70.8846 80.3434 70.0371 81.0226 69.6133C81.8742 69.0786 82.9792 69.5881 83.8612 69.7647C85.8483 70.1683 87.8556 70.1733 89.8477 69.8303C90.4306 69.7294 91.0896 69.6133 91.5661 69.9312C92.22 70.36 92.1592 71.1823 91.7942 71.7826Z" fill="#FF9D00"/>
<path d="M85.1944 48.0468C87.756 48.0468 89.8325 46.0659 89.8325 43.6225C89.8325 41.179 87.756 39.1982 85.1944 39.1982C82.6328 39.1982 80.5563 41.179 80.5563 43.6225C80.5563 46.0659 82.6328 48.0468 85.1944 48.0468Z" fill="#FF9D00"/>
</g>
<defs>
<clipPath id="clip0_1231_2462">
<rect width="115" height="85" fill="white"/>
</clipPath>
</defs>
</svg>
