<svg width="261" height="330" viewBox="0 0 261 330" fill="none" xmlns="http://www.w3.org/2000/svg">
<g clip-path="url(#clip0_1687_3113)">
<path d="M130.5 328.231C201.925 328.231 259.826 313.994 259.826 296.432C259.826 278.87 201.925 264.633 130.5 264.633C59.075 264.633 1.17355 278.87 1.17355 296.432C1.17355 313.994 59.075 328.231 130.5 328.231Z" fill="#F8F3EB" stroke="#231D1D" stroke-width="2.5" stroke-miterlimit="10"/>
<path d="M136.274 235.266C133.88 249.48 132.002 265.516 133.917 279.908C135.063 288.471 138.414 296 145.531 300.328C155.351 306.299 167.951 305.952 178.785 304.131C186.108 302.901 194.407 300.084 198.782 293.137C205.486 282.5 202.744 269.281 198.069 258.456C191.732 243.791 191.037 231.999 189.873 220.216" fill="#F8F3EB"/>
<path d="M136.274 235.266C133.88 249.48 132.002 265.516 133.917 279.908C135.063 288.471 138.414 296 145.531 300.328C155.351 306.299 167.951 305.952 178.785 304.131C186.108 302.901 194.407 300.084 198.782 293.137C205.486 282.5 202.744 269.281 198.069 258.456C191.732 243.791 191.037 231.999 189.873 220.216" stroke="#231D1D" stroke-width="2.5" stroke-miterlimit="10"/>
<path d="M124.726 235.266C127.12 249.48 128.998 265.516 127.083 279.908C125.937 288.471 122.585 296 115.469 300.328C105.649 306.299 93.0493 305.952 82.215 304.131C74.892 302.901 66.5925 300.084 62.2175 293.137C55.5141 282.5 58.2556 269.281 62.931 258.456C69.2683 243.791 69.963 231.999 71.1272 220.216" fill="#F8F3EB"/>
<path d="M124.726 235.266C127.12 249.48 128.998 265.516 127.083 279.908C125.937 288.471 122.585 296 115.469 300.328C105.649 306.299 93.0493 305.952 82.215 304.131C74.892 302.901 66.5925 300.084 62.2175 293.137C55.5141 282.5 58.2556 269.281 62.931 258.456C69.2683 243.791 69.963 231.999 71.1272 220.216" stroke="#231D1D" stroke-width="2.5" stroke-miterlimit="10"/>
<path d="M173.434 112.521C183.592 125.083 190.69 140.208 193.572 156.206C198.05 181.066 202.125 207.692 184.381 228.535C177.302 236.853 167.218 241.876 156.807 244.673C148.075 247.02 138.968 248.128 129.89 248.1C120.811 248.128 111.704 247.02 102.973 244.673C92.5705 241.876 82.4779 236.853 75.399 228.535C57.6547 207.683 61.7293 181.066 66.2076 156.206C69.0899 140.198 76.1876 125.083 86.3459 112.521" fill="#F8F3EB"/>
<path d="M173.434 112.521C183.592 125.083 190.69 140.208 193.572 156.206C198.05 181.066 202.125 207.692 184.381 228.535C177.302 236.853 167.218 241.876 156.807 244.673C148.075 247.02 138.968 248.128 129.89 248.1C120.811 248.128 111.704 247.02 102.973 244.673C92.5705 241.876 82.4779 236.853 75.399 228.535C57.6547 207.683 61.7293 181.066 66.2076 156.206C69.0899 140.198 76.1876 125.083 86.3459 112.521" stroke="#231D1D" stroke-width="2.5" stroke-linecap="round" stroke-linejoin="round"/>
<path d="M165.998 138.921C165.988 141.747 165.585 145.841 163.538 150.084C160.966 155.417 156.929 158.834 156.994 165.322C157.21 185.056 185.085 189.403 198.689 182.052C212.884 174.391 216.254 157.069 211.335 142.508C206.641 128.594 195.412 116.811 182.371 110.634L172.063 115.075H88.2424L77.9338 110.634C64.8932 116.802 53.6646 128.585 48.9703 142.508C44.2761 156.431 47.4306 174.391 61.6166 182.052C75.2299 189.394 103.095 185.047 103.311 165.322C103.386 158.834 99.349 155.417 96.7671 150.084C94.7205 145.831 94.3167 141.738 94.3074 138.921" fill="#F8F3EB"/>
<path d="M165.998 138.921C165.988 141.747 165.585 145.841 163.538 150.084C160.966 155.417 156.929 158.834 156.994 165.322C157.21 185.056 185.085 189.403 198.689 182.052C212.884 174.391 216.254 157.069 211.335 142.508C206.641 128.594 195.412 116.811 182.371 110.634L172.063 115.075H88.2424L77.9338 110.634C64.8932 116.802 53.6646 128.585 48.9703 142.508C44.2761 156.431 47.4306 174.391 61.6166 182.052C75.2299 189.394 103.095 185.047 103.311 165.322C103.386 158.834 99.349 155.417 96.7671 150.084C94.7205 145.831 94.3167 141.738 94.3074 138.921" stroke="#231D1D" stroke-width="2.5" stroke-linecap="round" stroke-linejoin="round"/>
<path d="M103.414 13.3037C98.6166 3.90582 88.0546 -1.04192 78.7975 2.14078C68.8551 5.56758 64.1797 17.0779 68.3669 27.8652C70.0193 32.1182 72.7983 35.6201 76.1688 38.0893" fill="#F8F3EB"/>
<path d="M103.414 13.3037C98.6166 3.90582 88.0546 -1.04192 78.7975 2.14078C68.8551 5.56758 64.1797 17.0779 68.3669 27.8652C70.0193 32.1182 72.7983 35.6201 76.1688 38.0893" stroke="#231D1D" stroke-width="2.5" stroke-linejoin="round"/>
<path d="M91.5941 20.0632C90.3548 17.1434 87.2096 15.5567 84.4588 16.4956C81.661 17.4626 80.3467 20.7016 81.5202 23.7435C82.0366 25.0766 82.9473 26.1469 84.0363 26.8417" fill="#F8F3EB"/>
<path d="M91.5941 20.0632C90.3548 17.1434 87.2096 15.5567 84.4588 16.4956C81.661 17.4626 80.3467 20.7016 81.5202 23.7435C82.0366 25.0766 82.9473 26.1469 84.0363 26.8417" stroke="#231D1D" stroke-width="2.5" stroke-linejoin="round"/>
<path d="M156.994 13.0314C161.848 3.80252 172.307 -1.02317 181.479 2.13136C191.422 5.55816 196.097 17.0685 191.91 27.8558C190.342 31.8929 187.76 35.2446 184.625 37.695" fill="#F8F3EB"/>
<path d="M156.994 13.0314C161.848 3.80252 172.307 -1.02317 181.479 2.13136C191.422 5.55816 196.097 17.0685 191.91 27.8558C190.342 31.8929 187.76 35.2446 184.625 37.695" stroke="#231D1D" stroke-width="2.5" stroke-linejoin="round"/>
<path d="M168.674 20.0632C169.913 17.1434 173.058 15.5567 175.809 16.4956C178.56 17.4344 179.921 20.7016 178.747 23.7435C178.231 25.0766 177.32 26.1469 176.231 26.8417" fill="#F8F3EB"/>
<path d="M168.674 20.0632C169.913 17.1434 173.058 15.5567 175.809 16.4956C178.56 17.4344 179.921 20.7016 178.747 23.7435C178.231 25.0766 177.32 26.1469 176.231 26.8417" stroke="#231D1D" stroke-width="2.5" stroke-linejoin="round"/>
<path d="M76.1688 38.0895C72.2726 45.206 70.0287 53.205 69.8879 61.664C64.6773 68.1514 61.8326 75.681 61.8326 83.558C61.8326 108.973 92.5799 129.571 130.5 129.571C168.42 129.571 199.167 108.973 199.167 83.558C199.167 75.7373 196.257 68.1139 191.112 61.664C190.755 40.277 176.935 21.838 156.994 13.041" fill="#F8F3EB"/>
<path d="M76.1688 38.0895C72.2726 45.206 70.0287 53.205 69.8879 61.664C64.6773 68.1514 61.8326 75.681 61.8326 83.558C61.8326 108.973 92.5799 129.571 130.5 129.571C168.42 129.571 199.167 108.973 199.167 83.558C199.167 75.7373 196.257 68.1139 191.112 61.664C190.755 40.277 176.935 21.838 156.994 13.041" stroke="#231D1D" stroke-width="2.5" stroke-linejoin="round"/>
<path d="M156.994 13.0408C148.986 9.51076 140.001 7.52979 130.5 7.52979C120.999 7.52979 111.563 9.61403 103.414 13.3131C91.6316 18.6645 82.0366 27.3864 76.1782 38.0987" fill="#F8F3EB"/>
<path d="M156.994 13.0408C148.986 9.51076 140.001 7.52979 130.5 7.52979C120.999 7.52979 111.563 9.61403 103.414 13.3131C91.6316 18.6645 82.0366 27.3864 76.1782 38.0987" stroke="#231D1D" stroke-width="2.5" stroke-linejoin="round"/>
<path d="M130.866 79.896H128.923V85.8859H130.866V79.896Z" fill="#231D1D"/>
<path d="M142.057 69.5875C143.608 69.5875 144.864 68.1542 144.864 66.386C144.864 64.6179 143.608 63.1846 142.057 63.1846C140.507 63.1846 139.25 64.6179 139.25 66.386C139.25 68.1542 140.507 69.5875 142.057 69.5875Z" fill="#231D1D"/>
<path d="M117.732 69.5875C119.282 69.5875 120.539 68.1542 120.539 66.386C120.539 64.6179 119.282 63.1846 117.732 63.1846C116.181 63.1846 114.924 64.6179 114.924 66.386C114.924 68.1542 116.181 69.5875 117.732 69.5875Z" fill="#231D1D"/>
<path d="M129.89 81.2859C132.918 81.2859 135.373 79.6382 135.373 77.6056C135.373 75.573 132.918 73.9253 129.89 73.9253C126.862 73.9253 124.407 75.573 124.407 77.6056C124.407 79.6382 126.862 81.2859 129.89 81.2859Z" fill="#231D1D"/>
<path d="M129.89 80.7412V85.3791" stroke="#231815" stroke-width="2.71" stroke-miterlimit="10" stroke-linecap="round"/>
<path d="M138.799 84.1587C136.809 85.3323 134.809 86.5058 129.89 86.5058C124.97 86.5058 122.285 85.013 120.98 84.1587" stroke="#231D1D" stroke-width="2.71" stroke-linecap="round" stroke-linejoin="round"/>
</g>
<defs>
<clipPath id="clip0_1687_3113">
<rect width="261" height="329.405" fill="white"/>
</clipPath>
</defs>
</svg>
