<svg width="20" height="20" viewBox="0 0 20 20" fill="none" xmlns="http://www.w3.org/2000/svg">
<mask id="mask0_1575_2997" style="mask-type:alpha" maskUnits="userSpaceOnUse" x="0" y="0" width="20" height="20">
<rect width="20" height="20" fill="#D9D9D9"/>
</mask>
<g mask="url(#mask0_1575_2997)">
<path d="M9.49967 13.5005H10.5003V9.07688H9.49967V13.5005ZM10 7.92299C10.1539 7.92299 10.2822 7.86852 10.3849 7.75959C10.4871 7.65067 10.5382 7.51928 10.5382 7.36542C10.5382 7.22449 10.4871 7.09956 10.3849 6.99064C10.2822 6.88109 10.1539 6.82632 10 6.82632C9.84615 6.82632 9.71783 6.87771 9.61506 6.98048C9.5129 7.08326 9.46182 7.21157 9.46182 7.36542C9.46182 7.51928 9.5129 7.65067 9.61506 7.75959C9.71783 7.86852 9.84615 7.92299 10 7.92299ZM10 17C9.03873 17 8.13161 16.8175 7.27865 16.4526C6.4263 16.087 5.68258 15.587 5.04747 14.9525C4.41299 14.3174 3.91296 13.5737 3.54741 12.7214C3.18247 11.8684 3 10.9613 3 10C3 9.0258 3.18247 8.11561 3.54741 7.26942C3.91296 6.42323 4.41299 5.68258 5.04747 5.04747C5.68258 4.41299 6.4263 3.91296 7.27865 3.54741C8.13161 3.18247 9.03873 3 10 3C10.9742 3 11.8844 3.18247 12.7306 3.54741C13.5768 3.91296 14.3174 4.41299 14.9525 5.04747C15.587 5.68258 16.087 6.4263 16.4526 7.27865C16.8175 8.13161 17 9.03873 17 10C17 10.9613 16.8175 11.8684 16.4526 12.7214C16.087 13.5737 15.587 14.3174 14.9525 14.9525C14.3174 15.587 13.5737 16.087 12.7214 16.4526C11.8684 16.8175 10.9613 17 10 17ZM10 16.0003C11.6665 16.0003 13.0832 15.4169 14.25 14.25C15.4169 13.0832 16.0003 11.6665 16.0003 10C16.0003 8.33347 15.4169 6.91679 14.25 5.74997C13.0832 4.58315 11.6665 3.99974 10 3.99974C8.33347 3.99974 6.91679 4.58315 5.74997 5.74997C4.58315 6.91679 3.99974 8.33347 3.99974 10C3.99974 11.6665 4.58315 13.0832 5.74997 14.25C6.91679 15.4169 8.33347 16.0003 10 16.0003Z" fill="#1E1D1D"/>
</g>
</svg>
