<svg width="32" height="32" viewBox="0 0 32 32" fill="none" xmlns="http://www.w3.org/2000/svg">
<mask id="mask0_414_1061" style="mask-type:alpha" maskUnits="userSpaceOnUse" x="0" y="0" width="32" height="32">
<rect width="32" height="32" fill="#D9D9D9"/>
</mask>
<g mask="url(#mask0_414_1061)">
<path d="M7 22.968V9.03205C7 8.65955 7.15419 8.37469 7.46258 8.17749C7.77012 7.98028 8.09381 7.94741 8.43363 8.07888L24.3947 15.014C24.7982 15.2112 25 15.5399 25 16C25 16.4601 24.7982 16.7888 24.3947 16.986L8.43363 23.9211C8.09381 24.0526 7.77012 24.0197 7.46258 23.8225C7.15419 23.6253 7 23.3405 7 22.968ZM8.27434 22.5735L23.3752 16L8.27434 9.42646V14.521L14.4549 16L8.27434 17.479V22.5735Z" fill="#FF9B25"/>
</g>
</svg>
