<svg width="20" height="20" viewBox="0 0 20 20" fill="none" xmlns="http://www.w3.org/2000/svg">
<path d="M10 10C9.0375 10 8.21354 9.65729 7.52813 8.97187C6.84271 8.28646 6.5 7.4625 6.5 6.5C6.5 5.5375 6.84271 4.71354 7.52813 4.02813C8.21354 3.34271 9.0375 3 10 3C10.9625 3 11.7865 3.34271 12.4719 4.02813C13.1573 4.71354 13.5 5.5375 13.5 6.5C13.5 7.4625 13.1573 8.28646 12.4719 8.97187C11.7865 9.65729 10.9625 10 10 10ZM4.75 17C4.26875 17 3.85692 16.8288 3.5145 16.4864C3.1715 16.1434 3 15.7313 3 15.25V14.55C3 14.0542 3.12775 13.5983 3.38325 13.1824C3.63817 12.767 3.97708 12.45 4.4 12.2313C5.30417 11.7792 6.22292 11.44 7.15625 11.2136C8.08958 10.9879 9.0375 10.875 10 10.875C10.9625 10.875 11.9104 10.9879 12.8438 11.2136C13.7771 11.44 14.6958 11.7792 15.6 12.2313C16.0229 12.45 16.3618 12.767 16.6168 13.1824C16.8723 13.5983 17 14.0542 17 14.55V15.25C17 15.7313 16.8288 16.1434 16.4864 16.4864C16.1434 16.8288 15.7313 17 15.25 17H4.75Z" fill="#95918C"/>
</svg>
