<svg width="24" height="24" viewBox="0 0 24 24" fill="none" xmlns="http://www.w3.org/2000/svg">
<mask id="mask0_1786_3223" style="mask-type:alpha" maskUnits="userSpaceOnUse" x="0" y="0" width="24" height="24">
<rect width="24" height="24" fill="#D9D9D9"/>
</mask>
<g mask="url(#mask0_1786_3223)">
<path d="M19 12.8774C18.7167 12.8774 18.4793 12.7828 18.288 12.5935C18.096 12.4049 18 12.171 18 11.8917C18 11.6124 18.096 11.3781 18.288 11.1888C18.4793 11.0002 18.7167 10.9059 19 10.9059H21C21.2833 10.9059 21.5207 11.0002 21.712 11.1888C21.904 11.3781 22 11.6124 22 11.8917C22 12.171 21.904 12.4049 21.712 12.5935C21.5207 12.7828 21.2833 12.8774 21 12.8774H19ZM18.4 19.1863L16.8 18.0034C16.5667 17.8391 16.4333 17.6255 16.4 17.3626C16.3667 17.0998 16.4333 16.8533 16.6 16.6233C16.7667 16.3933 16.9833 16.2619 17.25 16.229C17.5167 16.1962 17.7667 16.2619 18 16.4262L19.6 17.6091C19.8333 17.7734 19.9667 17.987 20 18.2498C20.0333 18.5127 19.9667 18.7591 19.8 18.9891C19.6333 19.2192 19.4167 19.3506 19.15 19.3834C18.8833 19.4163 18.6333 19.3506 18.4 19.1863ZM18 7.35716C17.7667 7.52145 17.5167 7.58717 17.25 7.55431C16.9833 7.52145 16.7667 7.39002 16.6 7.16001C16.4333 6.93 16.3667 6.68356 16.4 6.42069C16.4333 6.15782 16.5667 5.94424 16.8 5.77994L18.4 4.59703C18.6333 4.43274 18.8833 4.36702 19.15 4.39988C19.4167 4.43274 19.6333 4.56417 19.8 4.79418C19.9667 5.02419 20.0333 5.27063 20 5.5335C19.9667 5.79637 19.8333 6.00995 19.6 6.17425L18 7.35716ZM5 18.792V14.8489H4C3.45 14.8489 2.97933 14.6557 2.588 14.2693C2.196 13.8836 2 13.4196 2 12.8774V10.9059C2 10.3637 2.196 9.89944 2.588 9.51302C2.97933 9.12726 3.45 8.93438 4 8.93438H8L11.475 6.86428C11.8083 6.66713 12.146 6.66713 12.488 6.86428C12.8293 7.06143 13 7.34895 13 7.72682V16.0565C13 16.4344 12.8293 16.7219 12.488 16.919C12.146 17.1162 11.8083 17.1162 11.475 16.919L8 14.8489H7V18.792H5ZM14 15.194V8.58936C14.45 8.98367 14.8127 9.46439 15.088 10.0315C15.3627 10.598 15.5 11.2181 15.5 11.8917C15.5 12.5653 15.3627 13.1853 15.088 13.7518C14.8127 14.3189 14.45 14.7997 14 15.194Z" fill="#95918C"/>
</g>
</svg>
