<svg width="20" height="20" viewBox="0 0 20 20" fill="none" xmlns="http://www.w3.org/2000/svg">
<path d="M10 10C8.96875 10 8.08594 9.63281 7.35156 8.89844C6.61719 8.16406 6.25 7.28125 6.25 6.25C6.25 5.21875 6.61719 4.33594 7.35156 3.60156C8.08594 2.86719 8.96875 2.5 10 2.5C11.0313 2.5 11.9141 2.86719 12.6484 3.60156C13.3828 4.33594 13.75 5.21875 13.75 6.25C13.75 7.28125 13.3828 8.16406 12.6484 8.89844C11.9141 9.63281 11.0313 10 10 10ZM4.375 17.5C3.85937 17.5 3.41812 17.3166 3.05125 16.9497C2.68375 16.5822 2.5 16.1406 2.5 15.625V14.875C2.5 14.3438 2.63688 13.8553 2.91063 13.4097C3.18375 12.9647 3.54687 12.625 4 12.3906C4.96875 11.9063 5.95312 11.5428 6.95312 11.3003C7.95313 11.0584 8.96875 10.9375 10 10.9375C11.0313 10.9375 12.0469 11.0584 13.0469 11.3003C14.0469 11.5428 15.0312 11.9063 16 12.3906C16.4531 12.625 16.8163 12.9647 17.0894 13.4097C17.3631 13.8553 17.5 14.3438 17.5 14.875V15.625C17.5 16.1406 17.3166 16.5822 16.9497 16.9497C16.5822 17.3166 16.1406 17.5 15.625 17.5H4.375Z" fill="#95918C"/>
</svg>
