<svg width="32" height="32" viewBox="0 0 32 32" fill="none" xmlns="http://www.w3.org/2000/svg">
<path d="M7.13333 23.8946C6.94333 23.8946 6.79049 23.8374 6.6748 23.723C6.55827 23.6095 6.5 23.4595 6.5 23.273C6.5 23.1072 6.55827 22.9622 6.6748 22.8378C6.79049 22.7135 6.94333 22.6514 7.13333 22.6514H9.03333V13.327C9.03333 11.7315 9.56111 10.2914 10.6167 9.00676C11.6722 7.72207 13.0444 6.92432 14.7333 6.61351V5.74324C14.7333 5.37027 14.8549 5.06982 15.0981 4.84189C15.3405 4.61396 15.6411 4.5 16 4.5C16.3589 4.5 16.6599 4.61396 16.9031 4.84189C17.1455 5.06982 17.2667 5.37027 17.2667 5.74324V6.61351C18.9556 6.92432 20.3278 7.72207 21.3833 9.00676C22.4389 10.2914 22.9667 11.7315 22.9667 13.327V22.6514H24.8667C25.0567 22.6514 25.2099 22.7135 25.3265 22.8378C25.4422 22.9622 25.5 23.1072 25.5 23.273C25.5 23.4595 25.4422 23.6095 25.3265 23.723C25.2099 23.8374 25.0567 23.8946 24.8667 23.8946H7.13333ZM16 27.5C15.4511 27.5 14.971 27.3085 14.5598 26.9256C14.1477 26.5419 13.9417 26.0599 13.9417 25.4797H18.0583C18.0583 26.0599 17.8633 26.5419 17.4731 26.9256C17.0822 27.3085 16.5911 27.5 16 27.5ZM10.3 22.6514H21.7V13.327C21.7 11.7937 21.1406 10.4779 20.0217 9.37973C18.9028 8.28153 17.5622 7.73243 16 7.73243C14.4378 7.73243 13.0972 8.28153 11.9783 9.37973C10.8594 10.4779 10.3 11.7937 10.3 13.327V22.6514Z" fill="#1C1B1F"/>
</svg>
