<svg width="32" height="32" viewBox="0 0 32 32" fill="none" xmlns="http://www.w3.org/2000/svg">
<mask id="mask0_414_1065" style="mask-type:alpha" maskUnits="userSpaceOnUse" x="0" y="0" width="32" height="32">
<rect width="32" height="32" fill="#D9D9D9"/>
</mask>
<g mask="url(#mask0_414_1065)">
<path d="M10.375 26C9.775 26 9.277 25.8048 8.881 25.4143C8.48414 25.0229 8.28571 24.5314 8.28571 23.9398V8.2504H7.64286C7.45 8.2504 7.29486 8.19208 7.17743 8.07544C7.05914 7.95964 7 7.80666 7 7.61648C7 7.42631 7.05914 7.2729 7.17743 7.15626C7.29486 7.04047 7.45 6.98257 7.64286 6.98257H12.1429C12.1429 6.70787 12.2449 6.47544 12.4489 6.28526C12.652 6.09509 12.8929 6 13.1714 6H18.8286C19.1071 6 19.348 6.09509 19.5511 6.28526C19.7551 6.47544 19.8571 6.70787 19.8571 6.98257H24.3571C24.55 6.98257 24.7056 7.04047 24.8239 7.15626C24.9413 7.2729 25 7.42631 25 7.61648C25 7.80666 24.9413 7.95964 24.8239 8.07544C24.7056 8.19208 24.55 8.2504 24.3571 8.2504H23.7143V23.9398C23.7143 24.5314 23.5163 25.0229 23.1203 25.4143C22.7234 25.8048 22.225 26 21.625 26H10.375ZM9.57143 8.2504V23.9398C9.57143 24.1722 9.64643 24.3624 9.79643 24.5103C9.94643 24.6582 10.1393 24.7322 10.375 24.7322H21.625C21.8607 24.7322 22.0536 24.6582 22.2036 24.5103C22.3536 24.3624 22.4286 24.1722 22.4286 23.9398V8.2504H9.57143ZM13.1714 21.5626C13.1714 21.7528 13.2357 21.9062 13.3643 22.0228C13.4929 22.1386 13.6429 22.1965 13.8143 22.1965C14.0071 22.1965 14.1627 22.1386 14.281 22.0228C14.3984 21.9062 14.4571 21.7528 14.4571 21.5626V11.42C14.4571 11.2298 14.3984 11.0764 14.281 10.9597C14.1627 10.844 14.0071 10.7861 13.8143 10.7861C13.6429 10.7861 13.4929 10.844 13.3643 10.9597C13.2357 11.0764 13.1714 11.2298 13.1714 11.42V21.5626ZM17.5429 21.5626C17.5429 21.7528 17.602 21.9062 17.7203 22.0228C17.8377 22.1386 17.9929 22.1965 18.1857 22.1965C18.3571 22.1965 18.5071 22.1386 18.6357 22.0228C18.7643 21.9062 18.8286 21.7528 18.8286 21.5626V11.42C18.8286 11.2298 18.7643 11.0764 18.6357 10.9597C18.5071 10.844 18.3571 10.7861 18.1857 10.7861C17.9929 10.7861 17.8377 10.844 17.7203 10.9597C17.602 11.0764 17.5429 11.2298 17.5429 11.42V21.5626ZM9.57143 8.2504V23.9398C9.57143 24.1722 9.64643 24.3624 9.79643 24.5103C9.94643 24.6582 10.1393 24.7322 10.375 24.7322H9.57143V8.2504Z" fill="#1E1D1D"/>
</g>
</svg>
