<svg width="20" height="20" viewBox="0 0 20 20" fill="none" xmlns="http://www.w3.org/2000/svg">
<path d="M9.1382 11.4185L7.85332 10.0875C7.71736 9.97827 7.56779 9.92367 7.40464 9.92367C7.24148 9.92367 7.09871 9.97827 6.97634 10.0875C6.85397 10.2103 6.78926 10.357 6.78219 10.5273C6.77566 10.6982 6.83358 10.8451 6.95595 10.968L8.62833 12.6471C8.76429 12.7836 8.93425 12.8518 9.1382 12.8518C9.34215 12.8518 9.5189 12.7836 9.66846 12.6471L13.0336 9.24794C13.156 9.12508 13.2172 8.98174 13.2172 8.81793C13.2172 8.65412 13.156 8.50396 13.0336 8.36745C12.9248 8.25824 12.7856 8.20008 12.6159 8.19299C12.4457 8.18643 12.2994 8.24459 12.177 8.36745L9.1382 11.4185ZM9.99478 17.5C9.04302 17.5 8.14565 17.3157 7.30266 16.9471C6.45967 16.5786 5.72546 16.0803 5.10002 15.4523C4.47458 14.8244 3.9783 14.0905 3.61119 13.2507C3.24409 12.4114 3.06053 11.5072 3.06053 10.538C3.06053 9.56874 3.24409 8.66449 3.61119 7.82523C3.9783 6.98541 4.47458 6.25153 5.10002 5.62358C5.72546 4.99564 6.45967 4.49737 7.30266 4.1288C8.14565 3.76022 9.04302 3.57593 9.99478 3.57593C10.9601 3.57593 11.8643 3.76022 12.7073 4.1288C13.5503 4.49737 14.2845 4.99564 14.9099 5.62358C15.5354 6.25153 16.0281 6.98541 16.3882 7.82523C16.7487 8.66449 16.929 9.56874 16.929 10.538C16.929 11.5072 16.7487 12.4114 16.3882 13.2507C16.0281 14.0905 15.5354 14.8244 14.9099 15.4523C14.2845 16.0803 13.5503 16.5786 12.7073 16.9471C11.8643 17.3157 10.9601 17.5 9.99478 17.5ZM3.01974 5.8693C2.91097 5.99216 2.77174 6.05004 2.60206 6.04295C2.43183 6.03639 2.29233 5.97169 2.18355 5.84883C2.06118 5.73962 2 5.59956 2 5.42865C2 5.25828 2.06118 5.11167 2.18355 4.98881L4.48817 2.67496C4.61054 2.5521 4.7533 2.49395 4.91646 2.5005C5.07962 2.5076 5.22239 2.57258 5.34476 2.69543C5.45353 2.80464 5.50791 2.9447 5.50791 3.11561C5.50791 3.28598 5.45353 3.43259 5.34476 3.55545L3.01974 5.8693ZM16.9698 5.84883L14.6448 3.53497C14.536 3.41211 14.4852 3.26878 14.4923 3.10497C14.4988 2.94115 14.5564 2.80464 14.6652 2.69543C14.7876 2.57258 14.9336 2.51115 15.1033 2.51115C15.2735 2.51115 15.413 2.57258 15.5218 2.69543L17.8468 5.00929C17.9556 5.1185 18.0064 5.25828 17.9994 5.42865C17.9928 5.59956 17.9352 5.73962 17.8264 5.84883C17.704 5.97169 17.5577 6.03312 17.3875 6.03312C17.2178 6.03312 17.0786 5.97169 16.9698 5.84883Z" fill="#95918C"/>
</svg>
