<svg width="20" height="20" viewBox="0 0 20 20" fill="none" xmlns="http://www.w3.org/2000/svg">
<mask id="mask0_1583_3445" style="mask-type:alpha" maskUnits="userSpaceOnUse" x="0" y="0" width="20" height="20">
<rect width="20" height="20" fill="#D9D9D9"/>
</mask>
<g mask="url(#mask0_1583_3445)">
<path d="M4.55 15.45H5.41L13.33 7.53L12.47 6.67L4.55 14.59V15.45ZM15.05 6.95L13.05 4.97L14.03 3.99C14.1767 3.83 14.3633 3.75 14.59 3.75C14.8167 3.75 15.01 3.83 15.17 3.99L16.01 4.85C16.17 4.99667 16.25 5.18333 16.25 5.41C16.25 5.63667 16.1767 5.82333 16.03 5.97L15.05 6.95ZM4.41 16.25C4.22333 16.25 4.06653 16.19 3.9396 16.07C3.8132 15.95 3.75 15.7967 3.75 15.61V14.51C3.75 14.43 3.76653 14.3535 3.7996 14.2804C3.8332 14.2068 3.88333 14.13 3.95 14.05L12.47 5.53L14.47 7.53L5.95 16.05C5.88333 16.13 5.81347 16.1833 5.7404 16.21C5.6668 16.2367 5.58333 16.25 5.49 16.25H4.41Z" fill="#1E1D1D"/>
</g>
</svg>
