<svg width="32" height="32" viewBox="0 0 32 32" fill="none" xmlns="http://www.w3.org/2000/svg">
<path d="M11.1906 22.2849L4.82695 16.7343C4.71829 16.6391 4.63647 16.5258 4.58149 16.3945C4.52716 16.2625 4.5 16.1369 4.5 16.0176C4.5 15.8742 4.52716 15.7429 4.58149 15.6236C4.63647 15.5037 4.71829 15.3841 4.82695 15.2648L11.2318 9.67895C11.3411 9.55965 11.491 9.5 11.6815 9.5C11.8726 9.5 12.0363 9.5717 12.1724 9.71509C12.336 9.83439 12.4179 9.97175 12.4179 10.1272C12.4179 10.2826 12.336 10.432 12.1724 10.5754L6.66785 15.4085H26.8049C27.0228 15.4085 27.193 15.4621 27.3154 15.5694C27.4385 15.6772 27.5 15.8266 27.5 16.0176C27.5 16.1851 27.4385 16.3285 27.3154 16.4478C27.193 16.5671 27.0228 16.6268 26.8049 16.6268H6.66785L12.2136 21.4598C12.3229 21.5556 12.3841 21.6873 12.3972 21.8547C12.411 22.0217 12.336 22.165 12.1724 22.2849C12.0363 22.4283 11.8795 22.5 11.7021 22.5C11.5247 22.5 11.3542 22.4283 11.1906 22.2849Z" fill="#1E1D1D"/>
</svg>
