<svg width="20" height="20" viewBox="0 0 20 20" fill="none" xmlns="http://www.w3.org/2000/svg">
<path d="M9.98962 18C8.95177 18 7.97979 17.8027 7.07368 17.4082C6.16701 17.0131 5.37824 16.4795 4.70737 15.8074C4.03595 15.1358 3.50291 14.3462 3.10825 13.4385C2.71415 12.5315 2.51709 11.5584 2.51709 10.5195C2.51709 9.48052 2.71415 8.50722 3.10825 7.59958C3.50291 6.6925 4.03595 5.90289 4.70737 5.23075C5.37824 4.55917 6.16701 4.02611 7.07368 3.63158C7.97979 3.2365 8.95177 3.03896 9.98962 3.03896C11.0275 3.03896 11.9997 3.2365 12.9064 3.63158C13.8125 4.02611 14.6013 4.55917 15.2727 5.23075C15.9436 5.90289 16.4763 6.6925 16.871 7.59958C17.2651 8.50722 17.4621 9.48052 17.4621 10.5195C17.4621 11.5584 17.2651 12.5315 16.871 13.4385C16.4763 14.3462 15.9436 15.1358 15.2727 15.8074C14.6013 16.4795 13.8125 17.0131 12.9064 17.4082C11.9997 17.8027 11.0275 18 9.98962 18ZM9.15934 7.19481V10.4987C9.15934 10.6095 9.1801 10.7167 9.22161 10.8204C9.26313 10.9245 9.3254 11.0182 9.40843 11.1013L11.754 13.4494C11.9062 13.6017 12.093 13.6779 12.3144 13.6779C12.5358 13.6779 12.7295 13.5948 12.8956 13.4286C13.0478 13.2762 13.1239 13.0823 13.1239 12.8468C13.1239 12.6113 13.0478 12.4173 12.8956 12.2649L10.8199 10.187V7.17403C10.8199 6.93853 10.7405 6.74459 10.5816 6.59221C10.4222 6.43983 10.2249 6.36364 9.98962 6.36364C9.75438 6.36364 9.55732 6.44315 9.39846 6.60218C9.23905 6.76177 9.15934 6.95931 9.15934 7.19481ZM2.86996 5.8026C2.71775 5.95498 2.53093 6.03117 2.30952 6.03117C2.08812 6.03117 1.89438 5.94805 1.72833 5.78182C1.57611 5.62944 1.5 5.4355 1.5 5.2C1.5 4.9645 1.57611 4.77056 1.72833 4.61818L4.11538 2.22857C4.2676 2.07619 4.45442 2 4.67582 2C4.89723 2 5.09096 2.08312 5.25702 2.24935C5.40924 2.40173 5.48535 2.59567 5.48535 2.83117C5.48535 3.06667 5.40924 3.26061 5.25702 3.41299L2.86996 5.8026ZM17.0885 5.78182L14.7015 3.39221C14.5492 3.23983 14.4731 3.05281 14.4731 2.83117C14.4731 2.60952 14.5562 2.41558 14.7222 2.24935C14.8744 2.09697 15.0682 2.02078 15.3034 2.02078C15.5387 2.02078 15.7324 2.09697 15.8846 2.24935L18.2717 4.63896C18.4239 4.79134 18.5 4.97835 18.5 5.2C18.5 5.42164 18.417 5.61558 18.2509 5.78182C18.0987 5.9342 17.905 6.01039 17.6697 6.01039C17.4345 6.01039 17.2407 5.9342 17.0885 5.78182ZM9.98962 16.3377C11.6087 16.3377 12.982 15.773 14.1095 14.6437C15.2376 13.515 15.8016 12.1403 15.8016 10.5195C15.8016 8.8987 15.2376 7.52367 14.1095 6.39439C12.982 5.26566 11.6087 4.7013 9.98962 4.7013C8.37057 4.7013 6.99729 5.26566 5.86977 6.39439C4.74169 7.52367 4.17766 8.8987 4.17766 10.5195C4.17766 12.1403 4.74169 13.515 5.86977 14.6437C6.99729 15.773 8.37057 16.3377 9.98962 16.3377Z" fill="#6A6A6A"/>
</svg>
