<svg width="32" height="32" viewBox="0 0 32 32" fill="none" xmlns="http://www.w3.org/2000/svg">
<g clip-path="url(#clip0_1445_2056)">
<path d="M22.2 11.4C22.3 11.3 22.4 11.1 22.4 10.8C22.4 10.6 22.3 10.4 22.2 10.2L18.4 6.5C18.3 6.4 18.1 6.3 17.8 6.3C17.6 6.3 17.4 6.4 17.2 6.5L11.7 12C11.6 12.2 11.5 12.3 11.5 12.6C11.5 12.8 11.6 13 11.7 13.2L15.5 16.9C15.6 17 15.8 17.1 16.1 17.1C16.3 17.1 16.5 17 16.7 16.9L22.2 11.4V11.4ZM23.1 9.4C23.5 9.8 23.7 10.3 23.7 10.8C23.7 11.4 23.5 11.8 23.1 12.2L17.4 17.8C17 18.2 16.5 18.4 16 18.4C15.4 18.4 15 18.2 14.6 17.8L10.8 14C10.4 13.6 10.2 13.1 10.2 12.5C10.2 11.9 10.4 11.5 10.8 11.1L16.4 5.6C16.8 5.2 17.3 5 17.9 5C18.4 5 18.9 5.2 19.3 5.6L23.1 9.4V9.4Z" fill="#95918C"/>
<path d="M25.2 25V22.7H6.8V25C6.8 25.2 6.9 25.4 7 25.5C7.2 25.6 7.3 25.7 7.5 25.7H24.4C24.6 25.7 24.8 25.6 24.9 25.5C25.1 25.4 25.2 25.2 25.2 25ZM26.5 20.9V25C26.5 25.6 26.3 26 25.9 26.4C25.5 26.8 25 27 24.5 27H7.5C6.9 27 6.4 26.8 6.1 26.4C5.7 26 5.5 25.5 5.5 25V20.9L9.6 16.3L10.5 17.2L6.8 21.3H25.2L21.6 17.2L22.5 16.3L26.5 20.9Z" fill="#95918C"/>
</g>
<defs>
<clipPath id="clip0_1445_2056">
<rect width="21" height="22" fill="white" transform="translate(5.5 5)"/>
</clipPath>
</defs>
</svg>
