<svg width="24" height="24" viewBox="0 0 24 24" fill="none" xmlns="http://www.w3.org/2000/svg">
<path d="M19 12.9858C18.7167 12.9858 18.4793 12.8911 18.288 12.7019C18.096 12.5133 18 12.2793 18 12C18 11.7207 18.096 11.4864 18.288 11.2972C18.4793 11.1085 18.7167 11.0142 19 11.0142H21C21.2833 11.0142 21.5207 11.1085 21.712 11.2972C21.904 11.4864 22 11.7207 22 12C22 12.2793 21.904 12.5133 21.712 12.7019C21.5207 12.8911 21.2833 12.9858 21 12.9858H19ZM18.4 19.2946L16.8 18.1117C16.5667 17.9474 16.4333 17.7338 16.4 17.471C16.3667 17.2081 16.4333 16.9617 16.6 16.7317C16.7667 16.5016 16.9833 16.3702 17.25 16.3373C17.5167 16.3045 17.7667 16.3702 18 16.5345L19.6 17.7174C19.8333 17.8817 19.9667 18.0953 20 18.3582C20.0333 18.621 19.9667 18.8675 19.8 19.0975C19.6333 19.3275 19.4167 19.4589 19.15 19.4918C18.8833 19.5246 18.6333 19.4589 18.4 19.2946ZM18 7.4655C17.7667 7.62979 17.5167 7.69551 17.25 7.66265C16.9833 7.62979 16.7667 7.49836 16.6 7.26835C16.4333 7.03833 16.3667 6.79189 16.4 6.52902C16.4333 6.26616 16.5667 6.05257 16.8 5.88828L18.4 4.70537C18.6333 4.54107 18.8833 4.47536 19.15 4.50821C19.4167 4.54107 19.6333 4.67251 19.8 4.90252C19.9667 5.13253 20.0333 5.37897 20 5.64184C19.9667 5.90471 19.8333 6.11829 19.6 6.28258L18 7.4655ZM5 18.9003V14.9573H4C3.45 14.9573 2.97933 14.7641 2.588 14.3777C2.196 13.9919 2 13.5279 2 12.9858V11.0142C2 10.4721 2.196 10.0078 2.588 9.62136C2.97933 9.2356 3.45 9.04272 4 9.04272H8L11.475 6.97262C11.8083 6.77547 12.146 6.77547 12.488 6.97262C12.8293 7.16977 13 7.45728 13 7.83516V16.1648C13 16.5427 12.8293 16.8302 12.488 17.0274C12.146 17.2245 11.8083 17.2245 11.475 17.0274L8 14.9573H7V18.9003H5ZM14 15.3023V8.6977C14.45 9.092 14.8127 9.57273 15.088 10.1399C15.3627 10.7064 15.5 11.3264 15.5 12C15.5 12.6736 15.3627 13.2936 15.088 13.8601C14.8127 14.4273 14.45 14.908 14 15.3023ZM11 14.4151V9.58488L8.55 11.0142H4V12.9858H8.55L11 14.4151Z" fill="#FF9B25"/>
</svg>
