<svg width="32" height="32" viewBox="0 0 32 32" fill="none" xmlns="http://www.w3.org/2000/svg">
<mask id="mask0_1194_3697" style="mask-type:alpha" maskUnits="userSpaceOnUse" x="0" y="0" width="32" height="32">
<rect width="32" height="32" fill="#D9D9D9"/>
</mask>
<g mask="url(#mask0_1194_3697)">
<path d="M7.073 21.0362L7.07299 21.0362L7.07182 21.0368C6.43564 21.338 5.9229 21.7562 5.53479 22.2916C5.14571 22.8281 4.95 23.4008 4.95 24.0088V24.9434C4.95 25.2542 5.0578 25.5179 5.27313 25.7311C5.48785 25.9438 5.75385 26.05 6.06779 26.05H25.9322C26.2461 26.05 26.5122 25.9438 26.7269 25.7311C26.9422 25.5179 27.05 25.2542 27.05 24.9434V24.0088C27.05 23.4008 26.8543 22.8281 26.4652 22.2916C26.0769 21.756 25.5638 21.3509 24.9271 21.0763C23.3919 20.3708 21.8839 19.8413 20.4029 19.488L20.4029 19.4879C18.9217 19.1352 17.4541 18.9588 16 18.9588C14.5459 18.9588 13.0783 19.1352 11.5971 19.4879L11.5971 19.488C10.1163 19.8412 8.60823 20.3574 7.073 21.0362ZM25.5641 22.9207L25.5642 22.9207C25.8329 23.2794 25.965 23.6418 25.965 24.0088V24.9744H6.03505V24.0088C6.03505 23.6418 6.16712 23.2794 6.43582 22.9207L6.43585 22.9207C6.70401 22.5621 7.09392 22.2483 7.60821 21.9803C8.94571 21.3316 10.3171 20.8452 11.7224 20.5209C13.1279 20.1966 14.5538 20.0344 16 20.0344C17.4462 20.0344 18.8651 20.1966 20.2569 20.5209C21.6484 20.8452 23.0267 21.3316 24.392 21.9804C24.9062 22.2483 25.296 22.5621 25.5641 22.9207ZM12.8659 13.4141C13.7104 14.2505 14.7562 14.6685 16 14.6685C17.2438 14.6685 18.2896 14.2505 19.1341 13.4141C19.9787 12.5776 20.4009 11.5416 20.4009 10.3093C20.4009 9.07698 19.9787 8.04092 19.1341 7.20447C18.2896 6.36805 17.2438 5.95 16 5.95C14.7562 5.95 13.7104 6.36805 12.8659 7.20447C12.0213 8.04092 11.5991 9.07698 11.5991 10.3093C11.5991 11.5416 12.0213 12.5776 12.8659 13.4141ZM18.3457 12.6318C17.6984 13.2729 16.9175 13.5929 16 13.5929C15.0825 13.5929 14.3016 13.2729 13.6543 12.6318C13.0071 11.9907 12.6841 11.2175 12.6841 10.3093C12.6841 9.40103 13.0071 8.62779 13.6543 7.98674C14.3016 7.34568 15.0825 7.02561 16 7.02561C16.9175 7.02561 17.6984 7.34568 18.3457 7.98674C18.9929 8.62779 19.3159 9.40103 19.3159 10.3093C19.3159 11.2175 18.9929 11.9907 18.3457 12.6318Z" fill="#95918C" stroke="#95918C" stroke-width="0.1"/>
</g>
</svg>
