<svg width="24" height="24" viewBox="0 0 24 24" fill="none" xmlns="http://www.w3.org/2000/svg">
<mask id="mask0_576_983" style="mask-type:alpha" maskUnits="userSpaceOnUse" x="0" y="0" width="24" height="24">
<rect width="24" height="24" fill="#D9D9D9"/>
</mask>
<g mask="url(#mask0_576_983)">
<path d="M19.1358 19.8516L13.3086 14.0155C12.8148 14.4276 12.2469 14.7491 11.6049 14.9799C10.963 15.2107 10.321 15.3261 9.67901 15.3261C8.0823 15.3261 6.73679 14.7778 5.64247 13.6811C4.54749 12.5851 4 11.2457 4 9.66306C4 8.08037 4.54749 6.74069 5.64247 5.64402C6.73679 4.54801 8.07407 4 9.65432 4C11.2346 4 12.5761 4.54801 13.679 5.64402C14.7819 6.74069 15.3333 8.08037 15.3333 9.66306C15.3333 10.3555 15.2099 11.0232 14.963 11.6662C14.716 12.3091 14.3951 12.8532 14 13.2983L19.8765 19.1839C19.9588 19.2664 20 19.3696 20 19.4935C20 19.6169 19.9424 19.7362 19.8272 19.8516C19.7284 19.9505 19.6174 20 19.4943 20C19.3705 20 19.251 19.9505 19.1358 19.8516ZM9.67901 14.3369C10.9794 14.3369 12.0823 13.8879 12.9877 12.9897C13.893 12.0908 14.3457 10.982 14.3457 9.66306C14.3457 8.34415 13.893 7.23528 12.9877 6.33644C12.0823 5.43827 10.9794 4.98918 9.67901 4.98918C8.36214 4.98918 7.25103 5.43827 6.34568 6.33644C5.44033 7.23528 4.98765 8.34415 4.98765 9.66306C4.98765 10.982 5.44033 12.0908 6.34568 12.9897C7.25103 13.8879 8.36214 14.3369 9.67901 14.3369Z" fill="#1C1B1F"/>
</g>
</svg>
