<svg width="32" height="32" viewBox="0 0 32 32" fill="none" xmlns="http://www.w3.org/2000/svg">
<path fill-rule="evenodd" clip-rule="evenodd" d="M23.0251 24.2468C23.3625 24.5842 23.9095 24.5842 24.2469 24.2468C24.5842 23.9094 24.5842 23.3624 24.2469 23.025L17.2218 15.9999L24.2468 8.97482C24.5842 8.63744 24.5842 8.09043 24.2468 7.75304C23.9094 7.41566 23.3624 7.41566 23.0251 7.75304L16.0001 14.7781L8.97483 7.75279C8.63745 7.41541 8.09045 7.41541 7.75307 7.75279C7.41569 8.09018 7.41569 8.63719 7.75307 8.97457L14.7783 15.9999L7.75304 23.0253C7.41565 23.3627 7.41566 23.9097 7.75304 24.2471C8.09042 24.5845 8.63742 24.5845 8.9748 24.2471L16.0001 17.2217L23.0251 24.2468Z" fill="#FFFEFC"/>
</svg>
