<svg width="20" height="20" viewBox="0 0 20 20" fill="none" xmlns="http://www.w3.org/2000/svg">
<mask id="mask0_600_3936" style="mask-type:alpha" maskUnits="userSpaceOnUse" x="0" y="0" width="20" height="20">
<rect width="20" height="20" fill="#D9D9D9"/>
</mask>
<g mask="url(#mask0_600_3936)">
<path d="M0.903868 17C0.655347 17 0.442572 16.9076 0.265543 16.7229C0.0885143 16.5381 0 16.323 0 16.0775V15.1802C0 14.6707 0.132772 14.2446 0.398315 13.9021C0.664709 13.5596 1.01068 13.2917 1.43623 13.0985C2.32223 12.6767 3.23971 12.3426 4.18869 12.0963C5.13681 11.8499 6.2492 11.7267 7.52585 11.7267C8.8025 11.7267 9.91532 11.8541 10.8643 12.1089C11.8133 12.3637 12.7308 12.6936 13.6168 13.0985C14.0423 13.2917 14.3883 13.5596 14.6547 13.9021C14.9202 14.2446 15.053 14.6707 15.053 15.1802V16.0775C15.053 16.323 14.9602 16.5381 14.7747 16.7229C14.5883 16.9076 14.3798 17 14.1491 17H0.903868ZM16.9424 17C17.0131 16.8768 17.0616 16.7364 17.088 16.5786C17.1143 16.42 17.1275 16.2614 17.1275 16.1028V15.1018C17.1275 14.5568 17.0212 14.0029 16.8084 13.4402C16.5956 12.8783 16.259 12.4038 15.7985 12.0165C16.3484 12.122 16.8582 12.2717 17.328 12.4658C17.7978 12.659 18.2808 12.8699 18.777 13.0985C19.2561 13.3263 19.5796 13.625 19.7472 13.9945C19.9157 14.3632 20 14.8111 20 15.3384V16.0775C20 16.323 19.9115 16.5381 19.7345 16.7229C19.5574 16.9076 19.3447 17 19.0961 17H16.9424ZM7.52585 9.3274C6.60411 9.3274 5.84195 9.02874 5.23937 8.43144C4.63594 7.83413 4.33423 7.07822 4.33423 6.1637C4.33423 5.26774 4.63594 4.51647 5.23937 3.90988C5.84195 3.30329 6.60411 3 7.52585 3C8.43057 3 9.1889 3.30329 9.80084 3.90988C10.4119 4.51647 10.7175 5.26774 10.7175 6.1637C10.7175 7.07822 10.4119 7.83413 9.80084 8.43144C9.1889 9.02874 8.43057 9.3274 7.52585 9.3274ZM15.2662 6.1637C15.2662 7.07822 14.9602 7.83413 14.3483 8.43144C13.7372 9.02874 12.9793 9.3274 12.0746 9.3274C12.0209 9.3274 11.9367 9.31896 11.8218 9.30209C11.7069 9.28437 11.6316 9.27551 11.5958 9.27551C11.9328 8.83597 12.1988 8.35256 12.3937 7.82527C12.5886 7.29799 12.6861 6.74413 12.6861 6.1637C12.6861 5.6187 12.5844 5.0872 12.381 4.56919C12.1767 4.05035 11.915 3.56272 11.5958 3.1063C11.6665 3.08858 11.7465 3.06665 11.8358 3.04049C11.9243 3.0135 12.0039 3 12.0746 3C12.9793 3 13.7372 3.30329 14.3483 3.90988C14.9602 4.51647 15.2662 5.26774 15.2662 6.1637Z" fill="#95918C"/>
</g>
</svg>
