<svg width="32" height="32" viewBox="0 0 32 32" fill="none" xmlns="http://www.w3.org/2000/svg">
<g filter="url(#filter0_d_668_969)">
<path fill-rule="evenodd" clip-rule="evenodd" d="M24.247 8.9747C24.5844 8.63732 24.5844 8.0903 24.247 7.75292C23.9096 7.41553 23.3626 7.41553 23.0252 7.75292L16 14.7783L8.9748 7.753C8.63742 7.41561 8.09042 7.41561 7.75304 7.753C7.41565 8.09038 7.41565 8.63739 7.75304 8.97478L14.7782 16.0001L7.75312 23.0252C7.41574 23.3626 7.41574 23.9096 7.75312 24.247C8.0905 24.5844 8.6375 24.5844 8.97489 24.247L16 17.2218L23.0251 24.2471C23.3625 24.5845 23.9095 24.5845 24.2469 24.2471C24.5843 23.9097 24.5843 23.3627 24.2469 23.0253L17.2217 16.0001L24.247 8.9747Z" fill="white"/>
</g>
<defs>
<filter id="filter0_d_668_969" x="4.5" y="4.49988" width="23" height="23.0003" filterUnits="userSpaceOnUse" color-interpolation-filters="sRGB">
<feFlood flood-opacity="0" result="BackgroundImageFix"/>
<feColorMatrix in="SourceAlpha" type="matrix" values="0 0 0 0 0 0 0 0 0 0 0 0 0 0 0 0 0 0 127 0" result="hardAlpha"/>
<feOffset/>
<feGaussianBlur stdDeviation="1.5"/>
<feComposite in2="hardAlpha" operator="out"/>
<feColorMatrix type="matrix" values="0 0 0 0 0 0 0 0 0 0 0 0 0 0 0 0 0 0 1 0"/>
<feBlend mode="normal" in2="BackgroundImageFix" result="effect1_dropShadow_668_969"/>
<feBlend mode="normal" in="SourceGraphic" in2="effect1_dropShadow_668_969" result="shape"/>
</filter>
</defs>
</svg>
