<svg width="32" height="32" viewBox="0 0 32 32" fill="none" xmlns="http://www.w3.org/2000/svg">
<mask id="mask0_556_1446" style="mask-type:alpha" maskUnits="userSpaceOnUse" x="0" y="0" width="32" height="32">
<rect width="32" height="32" fill="#D9D9D9"/>
</mask>
<g mask="url(#mask0_556_1446)">
<path d="M5 25.0934V7.80678C5 7.30843 5.17307 6.88258 5.5192 6.52925C5.86582 6.17642 6.28358 6 6.77247 6H25.2275C25.7164 6 26.1342 6.17642 26.4808 6.52925C26.8269 6.88258 27 7.30843 27 7.80678V21.6361C27 22.1344 26.8269 22.56 26.4808 22.9129C26.1342 23.2657 25.7164 23.4421 25.2275 23.4421H8.75833L6.52753 25.7161C6.24251 26.0067 5.91667 26.0742 5.55 25.9187C5.18333 25.7627 5 25.4876 5 25.0934ZM6.03913 24.7197L8.3 22.3836H25.2275C25.4314 22.3836 25.6047 22.3109 25.7475 22.1653C25.8897 22.0198 25.9609 21.8434 25.9609 21.6361V7.80678C25.9609 7.59897 25.8897 7.4223 25.7475 7.27678C25.6047 7.13176 25.4314 7.05925 25.2275 7.05925H6.77247C6.5686 7.05925 6.39529 7.13176 6.25253 7.27678C6.11027 7.4223 6.03913 7.59897 6.03913 7.80678V24.7197ZM6.03913 7.80678V7.05925V24.7197V7.80678Z" fill="#1C1B1F"/>
<rect x="9" y="10" width="14" height="1.1" rx="0.55" fill="#FF961D"/>
<rect x="9" y="14" width="14" height="1.1" rx="0.55" fill="#FF961D"/>
<rect x="9" y="18" width="9" height="1" rx="0.5" fill="#FF961D"/>
</g>
</svg>
