<svg width="20" height="20" viewBox="0 0 20 20" fill="none" xmlns="http://www.w3.org/2000/svg">
<path d="M9.98981 17.5C9.02505 17.5 8.12498 17.3158 7.28958 16.9475C6.45364 16.5791 5.72314 16.0812 5.09809 15.4536C4.47304 14.8261 3.97707 14.0926 3.61019 13.2533C3.24331 12.4146 3.05987 11.5109 3.05987 10.5423C3.05987 9.57367 3.24331 8.66999 3.61019 7.83124C3.97707 6.99195 4.47304 6.25853 5.09809 5.63097C5.72314 5.00341 6.45364 4.50546 7.28958 4.13711C8.12498 3.76876 9.02505 3.58458 9.98981 3.58458C10.9546 3.58458 11.8546 3.76876 12.69 4.13711C13.526 4.50546 14.2565 5.00341 14.8815 5.63097C15.5066 6.25853 16.0025 6.99195 16.3694 7.83124C16.7363 8.66999 16.9197 9.57367 16.9197 10.5423C16.9197 11.5109 16.7363 12.4146 16.3694 13.2533C16.0025 14.0926 15.5066 14.8261 14.8815 15.4536C14.2565 16.0812 13.526 16.5791 12.69 16.9475C11.8546 17.3158 10.9546 17.5 9.98981 17.5ZM9.37834 7.06344V10.4809C9.37834 10.5764 9.39519 10.6683 9.42889 10.7568C9.46313 10.8457 9.52102 10.9311 9.60255 11.013L12.0076 13.4277C12.1163 13.5368 12.2522 13.5914 12.4153 13.5914C12.5783 13.5914 12.721 13.53 12.8433 13.4072C12.9656 13.2844 13.0268 13.1412 13.0268 12.9775C13.0268 12.8138 12.9656 12.6705 12.8433 12.5477L10.6013 10.2967V7.04297C10.6013 6.87926 10.5437 6.73929 10.4284 6.62306C10.3127 6.50737 10.1665 6.44952 9.98981 6.44952C9.81316 6.44952 9.66723 6.50737 9.552 6.62306C9.43623 6.73929 9.37834 6.88608 9.37834 7.06344ZM3.01911 5.87653C2.89682 5.99932 2.75767 6.06071 2.60168 6.06071C2.44515 6.06071 2.30573 5.9925 2.18344 5.85607C2.06115 5.74693 2 5.60696 2 5.43615C2 5.26589 2.06115 5.11937 2.18344 4.99659L4.48662 2.68417C4.59533 2.56139 4.73121 2.5 4.89427 2.5C5.05732 2.5 5.2 2.56821 5.32229 2.70464C5.44459 2.81378 5.50573 2.95375 5.50573 3.12456C5.50573 3.29482 5.44459 3.44134 5.32229 3.56412L3.01911 5.87653ZM16.9401 5.85607L14.6369 3.54366C14.5147 3.42087 14.4535 3.2809 14.4535 3.12374C14.4535 2.96712 14.5214 2.82742 14.6573 2.70464C14.766 2.58186 14.9054 2.52046 15.0756 2.52046C15.2451 2.52046 15.3911 2.58186 15.5134 2.70464L17.8166 5.01705C17.9389 5.12619 18 5.26262 18 5.42633C18 5.59004 17.9321 5.73329 17.7962 5.85607C17.6875 5.97885 17.5481 6.04025 17.3779 6.04025C17.2084 6.04025 17.0624 5.97885 16.9401 5.85607Z" fill="#EA4713"/>
</svg>
