<svg width="32" height="32" viewBox="0 0 32 32" fill="none" xmlns="http://www.w3.org/2000/svg">
<mask id="mask0_1583_3470" style="mask-type:alpha" maskUnits="userSpaceOnUse" x="0" y="0" width="32" height="32">
<rect width="32" height="32" fill="#D9D9D9"/>
</mask>
<g mask="url(#mask0_1583_3470)">
<path d="M7.22395 28C6.58528 28 6.05518 27.7947 5.63365 27.384C5.21122 26.9724 5 26.4556 5 25.8333V6.16667C5 5.54444 5.21122 5.02756 5.63365 4.616C6.05518 4.20533 6.58528 4 7.22395 4H17.0778C17.3743 4 17.6594 4.05556 17.9331 4.16667C18.2068 4.27778 18.4463 4.43333 18.6516 4.63333L23.5101 9.36667C23.7154 9.56667 23.8751 9.8 23.9891 10.0667C24.1032 10.3333 24.1602 10.6111 24.1602 10.9V14.8H22.7916V10.6667H18.4121C18.0928 10.6667 17.8305 10.5667 17.6252 10.3667C17.4199 10.1667 17.3173 9.91111 17.3173 9.6V5.33333H7.22395C6.99585 5.33333 6.7965 5.41689 6.62588 5.584C6.45435 5.75022 6.36858 5.94444 6.36858 6.16667V25.8333C6.36858 26.0556 6.45435 26.2498 6.62588 26.416C6.7965 26.5831 6.99585 26.6667 7.22395 26.6667H13.5879V28H7.22395ZM21.9362 19.4333L22.7916 20.2333L17.5225 25.3667V26.7667H18.9596L24.2286 21.6333L25.084 22.4667L19.8491 27.6333C19.7123 27.7444 19.5809 27.8222 19.455 27.8667C19.33 27.9111 19.1991 27.9333 19.0622 27.9333H16.8725C16.7128 27.9333 16.5814 27.8889 16.4783 27.8C16.3761 27.7111 16.325 27.5778 16.325 27.4V25.3333C16.325 25.2 16.3478 25.0667 16.3935 24.9333C16.4391 24.8 16.5189 24.6778 16.633 24.5667L21.9362 19.4333ZM25.084 22.4667L21.9362 19.4333L23.5443 17.8667C23.7496 17.6667 24.0065 17.5667 24.3148 17.5667C24.6223 17.5667 24.8787 17.6667 25.084 17.8667L26.6921 19.4333C26.8974 19.6333 27 19.8831 27 20.1827C27 20.4831 26.8974 20.7333 26.6921 20.9333L25.084 22.4667Z" fill="#1E1D1D"/>
</g>
</svg>
