<svg width="32" height="32" viewBox="0 0 32 32" fill="none" xmlns="http://www.w3.org/2000/svg">
<path d="M16 15.0094C14.6905 15.0094 13.5774 14.5472 12.6607 13.6226C11.744 12.6981 11.2857 11.5755 11.2857 10.2547C11.2857 8.96038 11.744 7.84408 12.6607 6.90581C13.5774 5.9686 14.6905 5.5 16 5.5C17.3095 5.5 18.4226 5.9686 19.3393 6.90581C20.256 7.84408 20.7143 8.96038 20.7143 10.2547C20.7143 11.5755 20.256 12.6981 19.3393 13.6226C18.4226 14.5472 17.3095 15.0094 16 15.0094ZM25.35 26.5H6.65C6.17857 26.5 5.78571 26.3415 5.47143 26.0245C5.15714 25.7075 5 25.3113 5 24.8359V23.8849C5 23.2245 5.19014 22.6101 5.57043 22.0417C5.94967 21.4743 6.45357 21.0321 7.08214 20.7151C8.575 20.0019 10.0616 19.4667 11.5419 19.1096C13.0211 18.7535 14.5071 18.5755 16 18.5755C17.4929 18.5755 18.9794 18.7535 20.4597 19.1096C21.939 19.4667 23.425 20.0019 24.9179 20.7151C25.5464 21.0321 26.0509 21.4743 26.4311 22.0417C26.8104 22.6101 27 23.2245 27 23.8849V24.8359C27 25.3113 26.8429 25.7075 26.5286 26.0245C26.2143 26.3415 25.8214 26.5 25.35 26.5ZM6.57143 24.9151H25.4286V23.8849C25.4286 23.5151 25.3175 23.178 25.0954 22.8737C24.8723 22.5705 24.5643 22.3132 24.1714 22.1019C22.8619 21.4679 21.5199 20.9861 20.1454 20.6565C18.7699 20.3257 17.3881 20.1604 16 20.1604C14.6119 20.1604 13.2306 20.3257 11.8561 20.6565C10.4806 20.9861 9.1381 21.4679 7.82857 22.1019C7.43571 22.3132 7.12824 22.5705 6.90614 22.8737C6.683 23.178 6.57143 23.5151 6.57143 23.8849V24.9151ZM16 13.4245C16.8643 13.4245 17.6044 13.1139 18.2204 12.4926C18.8354 11.8724 19.1429 11.1264 19.1429 10.2547C19.1429 9.38302 18.8354 8.63706 18.2204 8.01683C17.6044 7.39555 16.8643 7.08491 16 7.08491C15.1357 7.08491 14.3961 7.39555 13.7811 8.01683C13.1651 8.63706 12.8571 9.38302 12.8571 10.2547C12.8571 11.1264 13.1651 11.8724 13.7811 12.4926C14.3961 13.1139 15.1357 13.4245 16 13.4245Z" fill="#1C1B1F"/>
</svg>
