<svg width="32" height="32" viewBox="0 0 32 32" fill="none" xmlns="http://www.w3.org/2000/svg">
<mask id="mask0_414_1054" style="mask-type:alpha" maskUnits="userSpaceOnUse" x="0" y="0" width="32" height="32">
<rect width="32" height="32" fill="#D9D9D9"/>
</mask>
<g mask="url(#mask0_414_1054)">
<path d="M11.1111 15.7525C11.3556 15.7525 11.5747 15.653 11.7687 15.454C11.9618 15.2558 12.0583 15.0313 12.0583 14.7804C12.0583 14.5296 11.9618 14.3046 11.7687 14.1056C11.5747 13.9074 11.3556 13.8083 11.1111 13.8083C10.8667 13.8083 10.6479 13.9074 10.4548 14.1056C10.2609 14.3046 10.1639 14.5296 10.1639 14.7804C10.1639 15.0313 10.2609 15.2558 10.4548 15.454C10.6479 15.653 10.8667 15.7525 11.1111 15.7525ZM16 15.7525C16.2444 15.7525 16.4636 15.653 16.6576 15.454C16.8507 15.2558 16.9472 15.0313 16.9472 14.7804C16.9472 14.5296 16.8507 14.3046 16.6576 14.1056C16.4636 13.9074 16.2444 13.8083 16 13.8083C15.7556 13.8083 15.5368 13.9074 15.3437 14.1056C15.1497 14.3046 15.0528 14.5296 15.0528 14.7804C15.0528 15.0313 15.1497 15.2558 15.3437 15.454C15.5368 15.653 15.7556 15.7525 16 15.7525ZM20.8889 15.7525C21.1333 15.7525 21.3525 15.653 21.5464 15.454C21.7396 15.2558 21.8361 15.0313 21.8361 14.7804C21.8361 14.5296 21.7396 14.3046 21.5464 14.1056C21.3525 13.9074 21.1333 13.8083 20.8889 13.8083C20.6444 13.8083 20.4257 13.9074 20.2326 14.1056C20.0386 14.3046 19.9417 14.5296 19.9417 14.7804C19.9417 15.0313 20.0386 15.2558 20.2326 15.454C20.4257 15.653 20.6444 15.7525 20.8889 15.7525ZM5 24.972V8.03831C5 7.45295 5.18863 6.96668 5.56589 6.57951C5.94233 6.19317 6.41574 6 6.98611 6H25.0139C25.5843 6 26.0581 6.19317 26.4353 6.57951C26.8118 6.96668 27 7.45295 27 8.03831V21.5225C27 22.1079 26.8118 22.5942 26.4353 22.9813C26.0581 23.3677 25.5843 23.5608 25.0139 23.5608H8.75833L6.68056 25.6932C6.375 26.0068 6.01852 26.08 5.61111 25.9127C5.2037 25.7455 5 25.4319 5 24.972Z" fill="#1C1B1F"/>
</g>
</svg>
