<svg width="32" height="32" viewBox="0 0 32 32" fill="none" xmlns="http://www.w3.org/2000/svg">
<path d="M12.06 14.78C12.06 14.53 11.96 14.3 11.77 14.11C11.57 13.91 11.36 13.81 11.11 13.81C10.86 13.81 10.65 13.91 10.45 14.11C10.25 14.31 10.16 14.53 10.16 14.78C10.16 15.03 10.26 15.2601 10.45 15.4501C10.65 15.6501 10.87 15.7501 11.11 15.7501C11.35 15.7501 11.57 15.6501 11.77 15.4501C11.97 15.2501 12.06 15.03 12.06 14.78ZM19.94 14.78C19.94 15.03 20.04 15.2601 20.23 15.4501C20.43 15.6501 20.64 15.7501 20.89 15.7501C21.14 15.7501 21.35 15.6501 21.55 15.4501C21.75 15.2501 21.84 15.03 21.84 14.78C21.84 14.53 21.74 14.3 21.55 14.11C21.35 13.91 21.13 13.81 20.89 13.81C20.65 13.81 20.43 13.91 20.23 14.11C20.03 14.31 19.94 14.53 19.94 14.78ZM16.95 14.78C16.95 14.53 16.85 14.3 16.66 14.11C16.46 13.91 16.24 13.81 16 13.81C15.76 13.81 15.54 13.91 15.34 14.11C15.14 14.31 15.05 14.53 15.05 14.78C15.05 15.03 15.15 15.2601 15.34 15.4501C15.54 15.6501 15.76 15.7501 16 15.7501C16.24 15.7501 16.46 15.6501 16.66 15.4501C16.86 15.2501 16.95 15.03 16.95 14.78ZM25.78 8.04001V21.5201C25.78 21.7501 25.71 21.9401 25.56 22.0901C25.42 22.2301 25.24 22.3101 25.01 22.3101H8.23997L6.21997 24.3801V8.04001C6.21997 7.81 6.28997 7.62 6.43997 7.47C6.57997 7.33 6.75997 7.25 6.98997 7.25H25.01C25.24 7.25 25.42 7.33 25.56 7.47C25.71 7.62 25.78 7.81 25.78 8.04001Z" fill="#FF9600"/>
<path d="M21.8399 14.7801C21.8399 15.0301 21.7399 15.2601 21.5499 15.4501C21.3499 15.6501 21.1299 15.7501 20.8899 15.7501C20.6499 15.7501 20.4299 15.6501 20.2299 15.4501C20.0299 15.2501 19.9399 15.0301 19.9399 14.7801C19.9399 14.5301 20.0399 14.3001 20.2299 14.1101C20.4299 13.9101 20.6399 13.8101 20.8899 13.8101C21.1399 13.8101 21.3499 13.9101 21.5499 14.1101C21.7499 14.3101 21.8399 14.5301 21.8399 14.7801Z" fill="#1E1D1D"/>
<path d="M16.95 14.7801C16.95 15.0301 16.85 15.2601 16.66 15.4501C16.46 15.6501 16.24 15.7501 16 15.7501C15.76 15.7501 15.54 15.6501 15.34 15.4501C15.14 15.2501 15.05 15.0301 15.05 14.7801C15.05 14.5301 15.15 14.3001 15.34 14.1101C15.54 13.9101 15.76 13.8101 16 13.8101C16.24 13.8101 16.46 13.9101 16.66 14.1101C16.86 14.3101 16.95 14.5301 16.95 14.7801Z" fill="#1E1D1D"/>
<path d="M12.06 14.7801C12.06 15.0301 11.96 15.2601 11.77 15.4501C11.57 15.6501 11.36 15.7501 11.11 15.7501C10.86 15.7501 10.65 15.6501 10.45 15.4501C10.25 15.2501 10.16 15.0301 10.16 14.7801C10.16 14.5301 10.26 14.3001 10.45 14.1101C10.65 13.9101 10.87 13.8101 11.11 13.8101C11.35 13.8101 11.57 13.9101 11.77 14.1101C11.97 14.3101 12.06 14.5301 12.06 14.7801Z" fill="#1E1D1D"/>
<path d="M25.01 6C25.58 6 26.06 6.19 26.44 6.58C26.81 6.97001 27 7.45001 27 8.04001V21.5201C27 22.1101 26.81 22.5901 26.44 22.9801C26.06 23.3701 25.58 23.5601 25.01 23.5601H8.76L6.68 25.6901C6.38 26.0101 6.02 26.0801 5.61 25.9101C5.2 25.7501 5 25.4301 5 24.9701V8.04001C5 7.45001 5.19 6.97001 5.57 6.58C5.94 6.19 6.42 6 6.99 6H25.01ZM25.01 22.3101C25.24 22.3101 25.42 22.2301 25.56 22.0901C25.71 21.9401 25.78 21.7501 25.78 21.5201V8.04001C25.78 7.81001 25.71 7.62001 25.56 7.47001C25.42 7.33001 25.24 7.25001 25.01 7.25001H6.99C6.76 7.25001 6.58 7.33001 6.44 7.47001C6.29 7.62001 6.22 7.81001 6.22 8.04001V24.3801L8.24 22.3101H25.01Z" fill="#1E1D1D"/>
</svg>
