<svg width="32" height="32" viewBox="0 0 32 32" fill="none" xmlns="http://www.w3.org/2000/svg">
<path d="M17.8427 18.6122C18.0992 18.6122 18.3146 18.5251 18.4888 18.3509C18.663 18.1771 18.7502 17.9527 18.7502 17.6777V15.0925H21.3624C21.6189 15.0925 21.8343 15.0008 22.0085 14.8173C22.1828 14.6343 22.2699 14.4143 22.2699 14.1573C22.2699 13.9008 22.1828 13.6854 22.0085 13.5112C21.8343 13.337 21.6189 13.2498 21.3624 13.2498H18.7502V10.6376C18.7502 10.3811 18.663 10.1657 18.4888 9.99148C18.3146 9.81724 18.0992 9.73013 17.8427 9.73013C17.5677 9.73013 17.3431 9.81724 17.1688 9.99148C16.9946 10.1657 16.9075 10.3811 16.9075 10.6376V13.2498H14.3223C14.0473 13.2498 13.8229 13.337 13.6491 13.5112C13.4749 13.6854 13.3878 13.9008 13.3878 14.1573C13.3878 14.4323 13.4749 14.6569 13.6491 14.8312C13.8229 15.0054 14.0473 15.0925 14.3223 15.0925H16.9075V17.6777C16.9075 17.9527 16.9992 18.1771 17.1827 18.3509C17.3657 18.5251 17.5857 18.6122 17.8427 18.6122ZM10.5003 23.3424C10.0053 23.3424 9.57437 23.1591 9.20742 22.7926C8.8409 22.4256 8.65765 21.9947 8.65765 21.4997V6.84268C8.65765 6.34769 8.8409 5.91694 9.20742 5.55043C9.57437 5.18348 10.0053 5 10.5003 5H25.1573C25.6523 5 26.0831 5.18348 26.4496 5.55043C26.8165 5.91694 27 6.34769 27 6.84268V21.4997C27 21.9947 26.8165 22.4256 26.4496 22.7926C26.0831 23.1591 25.6523 23.3424 25.1573 23.3424H10.5003ZM10.5003 21.4997H25.1573V6.84268H10.5003V21.4997ZM6.84268 27C6.34769 27 5.91694 26.8165 5.55043 26.4496C5.18348 26.0831 5 25.6523 5 25.1573V9.59285C5 9.31785 5.08712 9.09324 5.26135 8.919C5.43559 8.74476 5.65097 8.65765 5.90748 8.65765C6.18248 8.65765 6.40709 8.74476 6.58133 8.919C6.75556 9.09324 6.84268 9.31785 6.84268 9.59285V25.1573H22.4072C22.6821 25.1573 22.9068 25.2491 23.081 25.4325C23.2552 25.6156 23.3424 25.8356 23.3424 26.0925C23.3424 26.349 23.2552 26.5644 23.081 26.7386C22.9068 26.9129 22.6821 27 22.4072 27H6.84268Z" fill="#1E1D1D"/>
</svg>
