<svg width="32" height="32" viewBox="0 0 32 32" fill="none" xmlns="http://www.w3.org/2000/svg">
<path fill-rule="evenodd" clip-rule="evenodd" d="M23.0251 24.2469C23.3625 24.5843 23.9095 24.5843 24.2469 24.2469C24.5842 23.9095 24.5842 23.3625 24.2469 23.0251L17.2218 16L24.2468 8.97488C24.5842 8.6375 24.5842 8.09049 24.2468 7.7531C23.9094 7.41572 23.3624 7.41572 23.0251 7.7531L16.0001 14.7782L8.97483 7.75286C8.63745 7.41547 8.09045 7.41547 7.75307 7.75286C7.41569 8.09024 7.41569 8.63725 7.75307 8.97464L14.7783 16L7.75304 23.0254C7.41565 23.3627 7.41566 23.9098 7.75304 24.2471C8.09042 24.5845 8.63742 24.5845 8.9748 24.2471L16.0001 17.2218L23.0251 24.2469Z" fill="#1E1D1D"/>
</svg>
