<svg width="32" height="32" viewBox="0 0 32 32" fill="none" xmlns="http://www.w3.org/2000/svg">
<mask id="mask0_556_1446" style="mask-type:alpha" maskUnits="userSpaceOnUse" x="0" y="0" width="32" height="32">
<rect width="32" height="32" fill="#D9D9D9"/>
</mask>
<g mask="url(#mask0_556_1446)">
<path d="M9.79747 19.0818H17.2833C17.4056 19.0818 17.5175 19.03 17.6192 18.9263C17.7214 18.8221 17.7725 18.6976 17.7725 18.5525C17.7725 18.407 17.7214 18.2824 17.6192 18.1788C17.5175 18.0746 17.3953 18.0225 17.2525 18.0225H9.76667C9.62391 18.0225 9.50682 18.0796 9.4154 18.1937C9.32349 18.3083 9.27753 18.4382 9.27753 18.5832C9.27753 18.7287 9.32862 18.8481 9.4308 18.9412C9.53249 19.0349 9.65471 19.0818 9.79747 19.0818ZM9.79747 15.2507H22.2333C22.3761 15.2507 22.4932 15.1989 22.5846 15.0952C22.6765 14.991 22.7225 14.8665 22.7225 14.7214C22.7225 14.5759 22.6714 14.4513 22.5692 14.3477C22.4675 14.2435 22.3453 14.1914 22.2025 14.1914H9.76667C9.62391 14.1914 9.50682 14.2435 9.4154 14.3477C9.32349 14.4513 9.27753 14.5861 9.27753 14.7521C9.27753 14.8976 9.32862 15.0172 9.4308 15.1109C9.53249 15.2041 9.65471 15.2507 9.79747 15.2507ZM9.79747 11.4196H22.2333C22.3761 11.4196 22.4932 11.3678 22.5846 11.2641C22.6765 11.16 22.7225 11.0354 22.7225 10.8903C22.7225 10.7448 22.6714 10.6202 22.5692 10.5166C22.4675 10.4124 22.3453 10.3603 22.2025 10.3603H9.76667C9.62391 10.3603 9.50682 10.4124 9.4154 10.5166C9.32349 10.6202 9.27753 10.7448 9.27753 10.8903C9.27753 11.0354 9.32862 11.16 9.4308 11.2641C9.53249 11.3678 9.65471 11.4196 9.79747 11.4196ZM5 25.0934V7.80678C5 7.30843 5.17307 6.88258 5.5192 6.52925C5.86582 6.17642 6.28358 6 6.77247 6H25.2275C25.7164 6 26.1342 6.17642 26.4808 6.52925C26.8269 6.88258 27 7.30843 27 7.80678V21.6361C27 22.1344 26.8269 22.56 26.4808 22.9129C26.1342 23.2657 25.7164 23.4421 25.2275 23.4421H8.75833L6.52753 25.7161C6.24251 26.0067 5.91667 26.0742 5.55 25.9187C5.18333 25.7627 5 25.4876 5 25.0934ZM6.03913 24.7197L8.3 22.3836H25.2275C25.4314 22.3836 25.6047 22.3109 25.7475 22.1653C25.8897 22.0198 25.9609 21.8434 25.9609 21.6361V7.80678C25.9609 7.59897 25.8897 7.4223 25.7475 7.27678C25.6047 7.13176 25.4314 7.05925 25.2275 7.05925H6.77247C6.5686 7.05925 6.39529 7.13176 6.25253 7.27678C6.11027 7.4223 6.03913 7.59897 6.03913 7.80678V24.7197ZM6.03913 7.80678V7.05925V24.7197V7.80678Z" fill="#1C1B1F"/>
</g>
</svg>
