<svg width="32" height="32" viewBox="0 0 32 32" fill="none" xmlns="http://www.w3.org/2000/svg">
<path d="M7.27501 10.929C6.98501 10.619 6.74501 10.269 6.58501 9.86898C6.30501 9.11898 6.30501 8.29898 6.62501 7.62898C6.89501 7.03898 7.36501 6.60898 7.95501 6.40898C9.04501 6.03898 10.295 6.51898 11.025 7.52898C9.48501 8.32898 8.20501 9.47898 7.27501 10.929Z" fill="#FF9600"/>
<path d="M24.685 10.839C23.775 9.43897 22.455 8.27897 20.905 7.48897C21.635 6.50897 22.865 6.04897 23.935 6.40897C24.515 6.61897 24.995 7.04897 25.265 7.63897C25.585 8.30897 25.595 9.12897 25.305 9.87897C25.165 10.239 24.945 10.559 24.685 10.839Z" fill="#FF9600"/>
<path d="M14.425 16.159C14.425 15.879 14.225 15.649 13.975 15.649C13.725 15.649 13.535 15.879 13.535 16.159C13.535 16.439 13.735 16.669 13.975 16.669C14.215 16.669 14.425 16.439 14.425 16.159ZM17.835 15.649C17.595 15.649 17.395 15.879 17.395 16.159C17.395 16.439 17.595 16.669 17.835 16.669C18.075 16.669 18.275 16.439 18.275 16.159C18.275 15.879 18.085 15.649 17.835 15.649ZM15.905 18.519C16.395 18.519 16.785 18.259 16.785 17.939C16.785 17.619 16.395 17.349 15.905 17.349C15.415 17.349 15.035 17.619 15.035 17.939C15.035 18.259 15.425 18.519 15.905 18.519ZM26.425 18.869C26.425 22.629 21.745 25.699 16.005 25.699C10.265 25.699 5.58502 22.639 5.58502 18.879C5.58502 17.759 5.99502 16.659 6.76502 15.699C6.82502 15.619 6.86502 15.519 6.86502 15.399C6.88502 14.169 7.20502 12.989 7.80502 11.879C9.36502 9.03896 12.505 7.27896 16.005 7.27896C17.415 7.27896 18.755 7.55896 20.015 8.11896C21.805 8.90896 23.285 10.219 24.175 11.819C24.795 12.939 25.125 14.149 25.145 15.399C25.145 15.509 25.185 15.619 25.245 15.689C26.015 16.649 26.425 17.759 26.425 18.869Z" fill="#FF9600"/>
<path d="M17.835 16.669C18.078 16.669 18.275 16.4407 18.275 16.159C18.275 15.8773 18.078 15.649 17.835 15.649C17.592 15.649 17.395 15.8773 17.395 16.159C17.395 16.4407 17.592 16.669 17.835 16.669Z" fill="#1E1D1D"/>
<path d="M15.905 18.519C15.425 18.519 15.035 18.259 15.035 17.939C15.035 17.619 15.425 17.349 15.905 17.349C16.385 17.349 16.785 17.619 16.785 17.939C16.785 18.259 16.395 18.519 15.905 18.519Z" fill="#1E1D1D"/>
<path d="M13.975 15.649C14.225 15.649 14.425 15.879 14.425 16.159C14.425 16.439 14.225 16.669 13.975 16.669C13.725 16.669 13.535 16.439 13.535 16.159C13.535 15.879 13.735 15.649 13.975 15.649Z" fill="#1E1D1D"/>
<path d="M23.935 6.40897C22.865 6.04897 21.635 6.50897 20.905 7.48897C22.455 8.27897 23.775 9.43897 24.685 10.839C24.945 10.559 25.165 10.239 25.305 9.87897C25.595 9.12897 25.585 8.30897 25.265 7.63897C24.995 7.04897 24.515 6.61897 23.935 6.41897V6.40897ZM6.625 7.62897C6.305 8.29897 6.305 9.11897 6.585 9.86897C6.745 10.269 6.985 10.619 7.275 10.929C8.205 9.47897 9.485 8.32897 11.025 7.52897C10.295 6.51897 9.045 6.03897 7.955 6.40897C7.365 6.60897 6.895 7.03897 6.625 7.62897ZM4.625 18.889C4.625 17.589 5.065 16.339 5.905 15.239C5.955 14.039 6.255 12.879 6.785 11.799C6.305 11.359 5.935 10.839 5.695 10.219C5.315 9.21897 5.335 8.13897 5.755 7.22897C6.135 6.40897 6.805 5.79897 7.645 5.50897C9.185 4.97897 10.935 5.66897 11.875 7.11897C13.155 6.60897 14.595 6.32897 15.995 6.32897C17.395 6.32897 18.745 6.59897 20.005 7.09897C20.965 5.66897 22.705 4.97897 24.245 5.50897C25.085 5.79897 25.745 6.40897 26.135 7.22897C26.555 8.13897 26.575 9.22897 26.185 10.219C25.955 10.799 25.615 11.309 25.175 11.729C25.735 12.829 26.055 14.009 26.095 15.239H26.085C26.925 16.349 27.375 17.599 27.375 18.889C27.375 23.179 22.265 26.669 15.995 26.669C9.725 26.669 4.625 23.179 4.625 18.889ZM16.005 25.699C21.745 25.699 26.425 22.629 26.425 18.869C26.425 17.759 26.015 16.649 25.245 15.689C25.185 15.619 25.145 15.509 25.145 15.399C25.125 14.149 24.795 12.939 24.175 11.819C23.285 10.219 21.805 8.90897 20.015 8.11897C18.755 7.55897 17.415 7.27897 16.005 7.27897C12.505 7.27897 9.365 9.03897 7.805 11.879C7.205 12.989 6.885 14.169 6.865 15.399C6.865 15.519 6.825 15.619 6.765 15.699C5.995 16.659 5.585 17.759 5.585 18.879C5.585 22.639 10.265 25.699 16.005 25.699Z" fill="#1E1D1D"/>
<path d="M26.095 15.239C26.055 14.009 25.735 12.829 25.175 11.729C25.615 11.309 25.955 10.799 26.185 10.219C26.575 9.22897 26.555 8.13897 26.135 7.22897C25.745 6.40897 25.085 5.79897 24.245 5.50897C22.705 4.97897 20.965 5.66897 20.005 7.09897C18.745 6.59897 17.395 6.32897 15.995 6.32897C14.595 6.32897 13.155 6.60897 11.875 7.11897C10.935 5.66897 9.185 4.97897 7.645 5.50897C6.805 5.79897 6.135 6.40897 5.755 7.22897C5.335 8.13897 5.315 9.21897 5.695 10.219C5.935 10.839 6.305 11.359 6.785 11.799C6.255 12.879 5.955 14.039 5.905 15.239C5.065 16.339 4.625 17.589 4.625 18.889C4.625 23.179 9.725 26.669 15.995 26.669C22.265 26.669 27.375 23.179 27.375 18.889C27.375 17.599 26.925 16.349 26.085 15.239H26.095V15.239Z" stroke="#1E1D1D" stroke-width="0.18" stroke-miterlimit="10"/>
<path d="M23.935 6.41897C24.515 6.61897 24.995 7.04897 25.265 7.63897C25.585 8.30897 25.595 9.12897 25.305 9.87897C25.165 10.239 24.945 10.559 24.685 10.839C23.775 9.43897 22.455 8.27897 20.905 7.48897C21.635 6.50897 22.865 6.04897 23.935 6.40897V6.41897Z" stroke="#1E1D1D" stroke-width="0.18" stroke-miterlimit="10"/>
<path d="M6.58501 9.86898C6.30501 9.11898 6.30501 8.29898 6.62501 7.62898C6.89501 7.03898 7.36501 6.60898 7.95501 6.40898C9.04501 6.03898 10.295 6.51898 11.025 7.52898C9.48501 8.32898 8.20501 9.47898 7.27501 10.929C6.98501 10.619 6.74501 10.269 6.58501 9.86898V9.86898Z" stroke="#1E1D1D" stroke-width="0.18" stroke-miterlimit="10"/>
<path d="M16.005 25.699C10.265 25.699 5.58502 22.639 5.58502 18.879C5.58502 17.759 5.99502 16.659 6.76502 15.699C6.82502 15.619 6.86502 15.519 6.86502 15.399C6.88502 14.169 7.20502 12.989 7.80502 11.879C9.36502 9.03896 12.505 7.27896 16.005 7.27896C17.415 7.27896 18.755 7.55896 20.015 8.11896C21.805 8.90896 23.285 10.219 24.175 11.819C24.795 12.939 25.125 14.149 25.145 15.399C25.145 15.509 25.185 15.619 25.245 15.689C26.015 16.649 26.425 17.759 26.425 18.869C26.425 22.629 21.745 25.699 16.005 25.699V25.699Z" stroke="#1E1D1D" stroke-width="0.18" stroke-miterlimit="10"/>
<path d="M17.835 16.669C18.078 16.669 18.275 16.4407 18.275 16.159C18.275 15.8773 18.078 15.649 17.835 15.649C17.592 15.649 17.395 15.8773 17.395 16.159C17.395 16.4407 17.592 16.669 17.835 16.669Z" stroke="#1E1D1D" stroke-width="0.25" stroke-miterlimit="10"/>
<path d="M13.975 16.669C14.225 16.669 14.425 16.439 14.425 16.159C14.425 15.879 14.225 15.649 13.975 15.649C13.725 15.649 13.535 15.879 13.535 16.159C13.535 16.439 13.735 16.669 13.975 16.669Z" stroke="#1E1D1D" stroke-width="0.25" stroke-miterlimit="10"/>
<path d="M15.905 18.519C16.395 18.519 16.785 18.259 16.785 17.939C16.785 17.619 16.395 17.349 15.905 17.349C15.415 17.349 15.035 17.619 15.035 17.939C15.035 18.259 15.425 18.519 15.905 18.519Z" stroke="#1E1D1D" stroke-width="0.25" stroke-miterlimit="10"/>
<path d="M15.905 18.439V18.519V19.179" stroke="#1E1D1D" stroke-width="0.75" stroke-linecap="round" stroke-linejoin="round"/>
<path d="M17.325 18.979C17.005 19.159 16.685 19.349 15.905 19.349C15.125 19.349 14.695 19.109 14.495 18.979" stroke="#1E1D1D" stroke-width="0.75" stroke-linecap="round" stroke-linejoin="round"/>
</svg>
