<svg width="33" height="33" viewBox="0 0 33 33" fill="none" xmlns="http://www.w3.org/2000/svg">
<path d="M26.25 8.91C26.25 9.27 26.13 9.57 25.9 9.8L24.33 11.37L21.13 8.2L22.7 6.63C22.93 6.38 23.23 6.25 23.59 6.25C23.95 6.25 24.27 6.38 24.52 6.63L25.87 8.01C26.12 8.24 26.25 8.54 26.25 8.91Z" fill="#FF961D"/>
<path d="M23.4 12.3L9.77 25.93C9.66 26.06 9.55 26.14 9.43 26.19C9.32 26.23 9.18 26.25 9.03 26.25H7.31C7.01 26.25 6.76 26.15 6.55 25.96C6.35 25.77 6.25 25.52 6.25 25.23V23.47C6.25 23.34 6.28 23.22 6.33 23.1C6.38 22.98 6.46 22.86 6.57 22.73L20.2 9.10001L23.4 12.3ZM8.91 24.97L21.58 12.3L20.2 10.92L7.53 23.59V24.97H8.91Z" fill="#1E1D1D"/>
</svg>
