<svg width="32" height="32" viewBox="0 0 32 32" fill="none" xmlns="http://www.w3.org/2000/svg">
<g clip-path="url(#clip0_1531_4777)">
<path d="M26.0889 15.2417C26.0505 14.0129 25.7337 12.8322 25.1673 11.7283C25.6089 11.3059 25.9545 10.7972 26.1849 10.2212C26.5688 9.23248 26.5496 8.13815 26.1273 7.22622C25.7433 6.41027 25.0809 5.79592 24.2362 5.50794C22.7003 4.97997 20.9628 5.67112 20.0029 7.10143C18.7358 6.60226 17.3919 6.33348 15.9904 6.33348C14.5889 6.33348 13.149 6.61186 11.8723 7.12062C10.9315 5.67112 9.18446 4.97997 7.63896 5.50794C6.80382 5.79592 6.13187 6.41027 5.74789 7.22622C5.32552 8.13815 5.30633 9.22288 5.6903 10.2212C5.93028 10.8356 6.30466 11.3635 6.78462 11.7955C6.24706 12.8802 5.94948 14.0417 5.90148 15.2417C5.05674 16.336 4.61517 17.5935 4.61517 18.8894C4.61517 23.1803 9.72202 26.6745 15.9904 26.6745C22.2587 26.6745 27.3656 23.1803 27.3656 18.8894C27.3656 17.6031 26.924 16.3456 26.0793 15.2417H26.0889ZM23.929 6.41987C24.5146 6.62146 24.9946 7.05343 25.2633 7.63899C25.5801 8.31094 25.5897 9.12688 25.3017 9.87563C25.1577 10.2404 24.937 10.5572 24.6778 10.8356C23.7658 9.44366 22.4507 8.28214 20.8956 7.495C21.6348 6.50627 22.8635 6.0455 23.929 6.41027V6.41987ZM6.58304 9.86603C6.29506 9.11729 6.30466 8.30134 6.62143 7.62939C6.89022 7.04383 7.36058 6.61186 7.94614 6.41027C9.04047 6.0359 10.2884 6.51587 11.0179 7.5334C9.48204 8.33014 8.19572 9.48206 7.27419 10.9316C6.97661 10.6244 6.73663 10.2692 6.58304 9.86603V9.86603ZM16 25.7049C10.2596 25.7049 5.58471 22.6427 5.58471 18.8798C5.58471 17.7567 5.98788 16.6624 6.75582 15.7024C6.82302 15.616 6.86142 15.52 6.86142 15.4048C6.88062 14.1665 7.19739 12.9858 7.80215 11.8819C9.35724 9.04049 12.4962 7.28381 16 7.28381C17.4111 7.28381 18.755 7.56219 20.0125 8.11895C21.798 8.9061 23.2763 10.2212 24.169 11.8243C24.793 12.9378 25.1193 14.1473 25.1385 15.4048C25.1385 15.5104 25.1769 15.616 25.2441 15.6928C26.0121 16.6528 26.4153 17.7567 26.4153 18.8702C26.4153 22.6331 21.7404 25.6953 16 25.6953V25.7049Z" fill="#95918C" stroke="#95918C" stroke-width="0.18" stroke-miterlimit="10"/>
<path d="M17.8335 16.6719C18.0773 16.6719 18.275 16.4442 18.275 16.1632C18.275 15.8822 18.0773 15.6544 17.8335 15.6544C17.5896 15.6544 17.3919 15.8822 17.3919 16.1632C17.3919 16.4442 17.5896 16.6719 17.8335 16.6719Z" fill="#95918C" stroke="#95918C" stroke-width="0.25" stroke-miterlimit="10"/>
<path d="M13.9745 16.6719C14.2184 16.6719 14.4161 16.4442 14.4161 16.1632C14.4161 15.8822 14.2184 15.6544 13.9745 15.6544C13.7307 15.6544 13.533 15.8822 13.533 16.1632C13.533 16.4442 13.7307 16.6719 13.9745 16.6719Z" fill="#95918C" stroke="#95918C" stroke-width="0.25" stroke-miterlimit="10"/>
<path d="M15.904 18.5246C16.3864 18.5246 16.7775 18.2625 16.7775 17.9391C16.7775 17.6157 16.3864 17.3535 15.904 17.3535C15.4216 17.3535 15.0305 17.6157 15.0305 17.9391C15.0305 18.2625 15.4216 18.5246 15.904 18.5246Z" fill="#95918C" stroke="#95918C" stroke-width="0.25" stroke-miterlimit="10"/>
<path d="M15.904 18.4382V19.1774" stroke="#95918C" stroke-width="0.75" stroke-linecap="round" stroke-linejoin="round"/>
<path d="M17.3151 18.9758C16.9983 19.1582 16.6816 19.3502 15.904 19.3502C15.1265 19.3502 14.6945 19.1102 14.4929 18.9758" stroke="#95918C" stroke-width="0.75" stroke-linecap="round" stroke-linejoin="round"/>
</g>
<defs>
<clipPath id="clip0_1531_4777">
<rect width="23" height="21.5793" fill="white" transform="translate(4.5 5.21036)"/>
</clipPath>
</defs>
</svg>
