<svg width="32" height="32" viewBox="0 0 32 32" fill="none" xmlns="http://www.w3.org/2000/svg">
<mask id="mask0_414_1059" style="mask-type:alpha" maskUnits="userSpaceOnUse" x="0" y="0" width="32" height="32">
<rect width="32" height="32" fill="#D9D9D9"/>
</mask>
<g mask="url(#mask0_414_1059)">
<path d="M7.28 24.72H8.656L21.328 12.048L19.952 10.672L7.28 23.344V24.72ZM24.08 11.12L20.88 7.952L22.448 6.384C22.6827 6.128 22.9813 6 23.344 6C23.7067 6 24.016 6.128 24.272 6.384L25.616 7.76C25.872 7.99467 26 8.29333 26 8.656C26 9.01867 25.8827 9.31733 25.648 9.552L24.08 11.12ZM7.056 26C6.75733 26 6.50645 25.904 6.30336 25.712C6.10112 25.52 6 25.2747 6 24.976V23.216C6 23.088 6.02645 22.9655 6.07936 22.8486C6.13312 22.7309 6.21333 22.608 6.32 22.48L19.952 8.848L23.152 12.048L9.52 25.68C9.41333 25.808 9.30155 25.8933 9.18464 25.936C9.06688 25.9787 8.93333 26 8.784 26H7.056Z" fill="#1C1B1F"/>
</g>
</svg>
