<svg width="20" height="20" viewBox="0 0 20 20" fill="none" xmlns="http://www.w3.org/2000/svg">
<path d="M10 18C14.4183 18 18 14.4183 18 10C18 5.58172 14.4183 2 10 2C5.58172 2 2 5.58172 2 10C2 14.4183 5.58172 18 10 18Z" fill="#95918C"/>
<path fill-rule="evenodd" clip-rule="evenodd" d="M6.93381 13.066C7.01952 13.1517 7.13578 13.1999 7.25702 13.1999C7.37825 13.1999 7.49451 13.1517 7.58023 13.066L9.99996 10.6462L12.4197 13.066C12.5054 13.1517 12.6217 13.1999 12.7429 13.1999C12.8333 13.1999 12.9217 13.1731 12.9968 13.1228C13.072 13.0726 13.1306 13.0012 13.1652 12.9177C13.1998 12.8342 13.2088 12.7423 13.1912 12.6536C13.1735 12.5649 13.13 12.4835 13.0661 12.4195L10.6464 9.9998L13.0661 7.58007C13.1518 7.49434 13.2 7.37809 13.2 7.25686C13.2 7.13564 13.1518 7.01938 13.0661 6.93365C12.9804 6.84795 12.8641 6.7998 12.7429 6.7998C12.6217 6.7998 12.5054 6.84795 12.4197 6.93365L9.99996 9.35338L7.58023 6.93365C7.4945 6.84795 7.37824 6.7998 7.25702 6.7998C7.13579 6.7998 7.01954 6.84795 6.93381 6.93365C6.8481 7.01938 6.79996 7.13564 6.79996 7.25686C6.79996 7.37809 6.8481 7.49434 6.93381 7.58007L9.35354 9.9998L6.93381 12.4195C6.8481 12.5053 6.79996 12.6215 6.79996 12.7427C6.79996 12.864 6.8481 12.9802 6.93381 13.066Z" fill="white"/>
</svg>
