<svg width="32" height="32" viewBox="0 0 32 32" fill="none" xmlns="http://www.w3.org/2000/svg">
<mask id="mask0_414_1064" style="mask-type:alpha" maskUnits="userSpaceOnUse" x="0" y="0" width="32" height="32">
<rect width="32" height="32" fill="#D9D9D9"/>
</mask>
<g mask="url(#mask0_414_1064)">
<path d="M20.8167 19.7353C20.6792 19.598 20.6105 19.4557 20.6105 19.3082C20.6105 19.1616 20.6792 19.0294 20.8167 18.9118L23.1146 16.5882H13.5106C13.3535 16.5882 13.216 16.5345 13.0982 16.4271C12.9804 16.3188 12.9214 16.1765 12.9214 16C12.9214 15.8235 12.9804 15.6812 13.0982 15.5729C13.216 15.4655 13.3535 15.4118 13.5106 15.4118H23.1146L20.7872 13.0882C20.6694 12.9706 20.6105 12.8333 20.6105 12.6765C20.6105 12.5196 20.6792 12.3824 20.8167 12.2647C20.9345 12.1275 21.072 12.0588 21.2291 12.0588C21.3863 12.0588 21.5237 12.1275 21.6416 12.2647L24.7349 15.3235C24.8331 15.4412 24.9018 15.5537 24.9411 15.6612C24.9804 15.7694 25 15.8824 25 16C25 16.1176 24.9804 16.2302 24.9411 16.3376C24.9018 16.4459 24.8331 16.5588 24.7349 16.6765L21.6121 19.7647C21.4943 19.8824 21.3615 19.9412 21.2138 19.9412C21.0669 19.9412 20.9345 19.8726 20.8167 19.7353ZM8.88543 26C8.35516 26 7.90815 25.8188 7.54442 25.4565C7.18147 25.0933 7 24.6373 7 24.0882V7.91176C7 7.36275 7.18147 6.90706 7.54442 6.54471C7.90815 6.18157 8.35516 6 8.88543 6H15.8674C16.0442 6 16.1868 6.05373 16.2952 6.16118C16.4028 6.26941 16.4566 6.41176 16.4566 6.58824C16.4566 6.76471 16.4028 6.90667 16.2952 7.01412C16.1868 7.12235 16.0442 7.17647 15.8674 7.17647H8.88543C8.70867 7.17647 8.54684 7.2502 8.39993 7.39765C8.25224 7.54431 8.1784 7.71569 8.1784 7.91176V24.0882C8.1784 24.2843 8.25224 24.4557 8.39993 24.6024C8.54684 24.7498 8.70867 24.8235 8.88543 24.8235H15.8674C16.0442 24.8235 16.1868 24.8773 16.2952 24.9847C16.4028 25.0929 16.4566 25.2353 16.4566 25.4118C16.4566 25.5882 16.4028 25.7306 16.2952 25.8388C16.1868 25.9463 16.0442 26 15.8674 26H8.88543Z" fill="#1C1B1F"/>
</g>
</svg>
