<svg width="20" height="20" viewBox="0 0 20 20" fill="none" xmlns="http://www.w3.org/2000/svg">
<path d="M9.12211 11.0972L7.95906 9.91205C7.79291 9.74572 7.59575 9.66255 7.36757 9.66255C7.13884 9.66255 6.94139 9.74572 6.77525 9.91205C6.6091 10.0784 6.52602 10.2794 6.52602 10.515C6.52602 10.7506 6.60217 10.9447 6.75448 11.0972L8.54058 12.8853C8.70673 13.0516 8.90057 13.1348 9.12211 13.1348C9.34364 13.1348 9.53748 13.0516 9.70363 12.8853L13.2343 9.37147C13.4005 9.20514 13.4835 9.00748 13.4835 8.77849C13.4835 8.55006 13.4005 8.35268 13.2343 8.18635C13.0682 8.02001 12.8674 7.93685 12.632 7.93685C12.3966 7.93685 12.2028 8.01308 12.0505 8.16555L9.12211 11.0972ZM9.99439 18C8.95596 18 7.98343 17.8026 7.07681 17.4079C6.16963 17.0125 5.38042 16.4786 4.70918 15.8061C4.03738 15.1341 3.50404 14.344 3.10916 13.4358C2.71483 12.5282 2.51767 11.5546 2.51767 10.515C2.51767 9.47543 2.71483 8.50155 3.10916 7.59337C3.50404 6.68574 4.03738 5.89566 4.70918 5.22312C5.38042 4.55114 6.16963 4.01776 7.07681 3.623C7.98343 3.22768 8.95596 3.03002 9.99439 3.03002C11.0328 3.03002 12.0056 3.22768 12.9128 3.623C13.8194 4.01776 14.6086 4.55114 15.2804 5.22312C15.9517 5.89566 16.4847 6.68574 16.8796 7.59337C17.274 8.50155 17.4711 9.47543 17.4711 10.515C17.4711 11.5546 17.274 12.5282 16.8796 13.4358C16.4847 14.344 15.9517 15.1341 15.2804 15.8061C14.6086 16.4786 13.8194 17.0125 12.9128 17.4079C12.0056 17.8026 11.0328 18 9.99439 18ZM2.87073 5.79531C2.71843 5.94778 2.52819 6.02041 2.30001 6.0132C2.07128 6.00655 1.88076 5.92699 1.72846 5.77452C1.57615 5.62204 1.5 5.42799 1.5 5.19235C1.5 4.95671 1.57615 4.76266 1.72846 4.61018L4.11685 2.21915C4.26916 2.06667 4.45968 1.99376 4.68841 2.00042C4.91659 2.00763 5.10683 2.08746 5.25913 2.23994C5.41144 2.39241 5.48759 2.58646 5.48759 2.8221C5.48759 3.05774 5.41144 3.2518 5.25913 3.40427L2.87073 5.79531ZM17.0973 5.77452L14.7089 3.38348C14.5566 3.23101 14.484 3.04028 14.4912 2.81129C14.4979 2.58286 14.5773 2.39241 14.7297 2.23994C14.882 2.08746 15.0758 2.01123 15.3112 2.01123C15.5466 2.01123 15.7404 2.08746 15.8927 2.23994L18.2811 4.63098C18.4334 4.78345 18.5062 4.9739 18.4996 5.20233C18.4924 5.43131 18.4126 5.62204 18.2603 5.77452C18.108 5.92699 17.9142 6.00322 17.6788 6.00322C17.4434 6.00322 17.2496 5.92699 17.0973 5.77452ZM9.99439 16.3367C11.6143 16.3367 12.9884 15.7717 14.1166 14.6417C15.2453 13.5123 15.8096 12.1368 15.8096 10.515C15.8096 8.89326 15.2453 7.51741 14.1166 6.38745C12.9884 5.25805 11.6143 4.69335 9.99439 4.69335C8.37443 4.69335 7.00038 5.25805 5.87222 6.38745C4.74351 7.51741 4.17916 8.89326 4.17916 10.515C4.17916 12.1368 4.74351 13.5123 5.87222 14.6417C7.00038 15.7717 8.37443 16.3367 9.99439 16.3367Z" fill="#6A6A6A"/>
</svg>
