<svg width="32" height="32" viewBox="0 0 32 32" fill="none" xmlns="http://www.w3.org/2000/svg">
<path d="M7.54255 27C6.96808 27 6.48426 26.8063 6.09106 26.4188C5.69702 26.0305 5.5 25.5533 5.5 24.9872V20.9302L9.58511 16.37L10.5106 17.2821L6.80851 21.402H25.1915L21.5532 17.345L22.4787 16.4329L26.5 20.9302V24.9872C26.5 25.5533 26.3034 26.0305 25.9102 26.4188C25.5162 26.8063 25.0319 27 24.4574 27H7.54255ZM7.54255 25.742H24.4574C24.6702 25.742 24.8511 25.6686 25 25.5219C25.1489 25.3751 25.2234 25.1969 25.2234 24.9872V22.66H6.7766V24.9872C6.7766 25.1969 6.85106 25.3751 7 25.5219C7.14894 25.6686 7.32979 25.742 7.54255 25.742ZM14.5957 17.8167L10.766 14.0113C10.3617 13.592 10.1651 13.1043 10.1762 12.5483C10.1864 11.9931 10.3936 11.5163 10.7979 11.1179L16.4149 5.61427C16.8191 5.21591 17.2979 5.01127 17.8511 5.00037C18.4043 4.99031 18.883 5.18446 19.2872 5.58282L23.1489 9.38822C23.5532 9.78658 23.7553 10.2583 23.7553 10.8035C23.7553 11.3486 23.5532 11.8203 23.1489 12.2187L17.4681 17.8167C17.0638 18.2151 16.5851 18.4143 16.0319 18.4143C15.4787 18.4143 15 18.2151 14.5957 17.8167ZM22.2234 11.3695C22.3511 11.2437 22.4149 11.0601 22.4149 10.8185C22.4149 10.5779 22.3511 10.3841 22.2234 10.2374L18.4255 6.52631C18.2979 6.40051 18.1119 6.33761 17.8677 6.33761C17.6226 6.33761 17.4362 6.40051 17.3085 6.52631L11.6915 12.03C11.5638 12.1768 11.5 12.3705 11.5 12.6112C11.5 12.8527 11.5638 13.0364 11.6915 13.1622L15.4894 16.8732C15.617 17.02 15.8034 17.0934 16.0485 17.0934C16.2928 17.0934 16.4787 17.02 16.6064 16.8732L22.2234 11.3695Z" fill="#1C1B1F"/>
</svg>
