<svg width="32" height="32" viewBox="0 0 32 32" fill="none" xmlns="http://www.w3.org/2000/svg">
<g clip-path="url(#clip0_414_1084)">
<path d="M18.35 7.99C18.99 8.63 19.32 9.4 19.32 10.31C19.32 11.22 18.99 11.99 18.35 12.63C17.7 13.27 16.92 13.59 16 13.59C15.08 13.59 14.3 13.27 13.65 12.63C13.01 11.99 12.68 11.22 12.68 10.31C12.68 9.4 13.01 8.63 13.65 7.99C14.3 7.35 15.08 7.03 16 7.03C16.92 7.03 17.7 7.35 18.35 7.99Z" fill="#FF9600"/>
<path d="M7.61004 21.98C8.95004 21.33 10.32 20.85 11.72 20.52C13.13 20.2 14.55 20.03 16 20.03C17.45 20.03 18.87 20.2 20.26 20.52C21.65 20.85 23.03 21.33 24.39 21.98C24.91 22.25 25.3 22.56 25.56 22.92C25.83 23.28 25.97 23.64 25.97 24.01V24.97H6.04004V24.01C6.04004 23.64 6.17004 23.28 6.44004 22.92C6.70004 22.56 7.09004 22.25 7.61004 21.98Z" fill="#FF9600"/>
<path d="M12.68 10.31C12.68 11.22 13.01 11.99 13.65 12.63C14.3 13.27 15.08 13.59 16 13.59C16.92 13.59 17.7 13.27 18.35 12.63C18.99 11.99 19.32 11.22 19.32 10.31C19.32 9.40001 18.99 8.63001 18.35 7.99001C17.7 7.35001 16.92 7.03001 16 7.03001C15.08 7.03001 14.3 7.35001 13.65 7.99001C13.01 8.63001 12.68 9.40001 12.68 10.31ZM19.13 13.41C18.29 14.25 17.24 14.67 16 14.67C14.76 14.67 13.71 14.25 12.87 13.41C12.02 12.58 11.6 11.54 11.6 10.31C11.6 9.08001 12.02 8.04001 12.87 7.20001C13.71 6.37001 14.76 5.95001 16 5.95001C17.24 5.95001 18.29 6.37001 19.13 7.20001C19.98 8.04001 20.4 9.08001 20.4 10.31C20.4 11.54 19.98 12.58 19.13 13.41Z" fill="#1E1D1D"/>
<path d="M16 20.03C14.55 20.03 13.13 20.2 11.72 20.52C10.32 20.85 8.95001 21.33 7.61001 21.98C7.09001 22.25 6.70001 22.56 6.44001 22.92C6.17001 23.28 6.04001 23.64 6.04001 24.01V24.97H25.97V24.01C25.97 23.64 25.83 23.28 25.56 22.92C25.3 22.56 24.91 22.25 24.39 21.98C23.03 21.33 21.65 20.85 20.26 20.52C18.87 20.2 17.45 20.03 16 20.03ZM11.6 19.49C13.08 19.14 14.55 18.96 16 18.96C17.45 18.96 18.92 19.14 20.4 19.49C21.88 19.84 23.39 20.37 24.93 21.08C25.56 21.35 26.08 21.76 26.47 22.29C26.85 22.83 27.05 23.4 27.05 24.01V24.94C27.05 25.25 26.94 25.52 26.73 25.73C26.51 25.94 26.25 26.05 25.93 26.05H6.07001C5.75001 26.05 5.49001 25.94 5.27001 25.73C5.06001 25.52 4.95001 25.25 4.95001 24.94V24.01C4.95001 23.4 5.15001 22.83 5.53001 22.29C5.92001 21.76 6.44001 21.34 7.07001 21.04C8.61001 20.36 10.12 19.84 11.6 19.49Z" fill="#1E1D1D"/>
<path d="M7.07001 21.04C6.44001 21.34 5.92001 21.76 5.53001 22.29C5.15001 22.83 4.95001 23.4 4.95001 24.01V24.94C4.95001 25.25 5.06001 25.52 5.27001 25.73C5.49001 25.94 5.75001 26.05 6.07001 26.05H25.93C26.25 26.05 26.51 25.94 26.73 25.73C26.94 25.52 27.05 25.25 27.05 24.94V24.01C27.05 23.4 26.85 22.83 26.47 22.29C26.08 21.76 25.56 21.35 24.93 21.08C23.39 20.37 21.88 19.84 20.4 19.49C18.92 19.14 17.45 18.96 16 18.96C14.55 18.96 13.08 19.14 11.6 19.49C10.12 19.84 8.61001 20.36 7.07001 21.04V21.04Z" stroke="#1E1D1D" stroke-width="0.1"/>
<path d="M25.56 22.92C25.83 23.28 25.97 23.64 25.97 24.01V24.97H6.04004V24.01C6.04004 23.64 6.17004 23.28 6.44004 22.92C6.70004 22.56 7.09004 22.25 7.61004 21.98C8.95004 21.33 10.32 20.85 11.72 20.52C13.13 20.2 14.55 20.03 16 20.03C17.45 20.03 18.87 20.2 20.26 20.52C21.65 20.85 23.03 21.33 24.39 21.98C24.91 22.25 25.3 22.56 25.56 22.92Z" stroke="#1E1D1D" stroke-width="0.1"/>
<path d="M12.87 13.41C13.71 14.25 14.76 14.67 16 14.67C17.24 14.67 18.29 14.25 19.13 13.41C19.98 12.58 20.4 11.54 20.4 10.31C20.4 9.08001 19.98 8.04001 19.13 7.20001C18.29 6.37001 17.24 5.95001 16 5.95001C14.76 5.95001 13.71 6.37001 12.87 7.20001C12.02 8.04001 11.6 9.08001 11.6 10.31C11.6 11.54 12.02 12.58 12.87 13.41V13.41Z" stroke="#1E1D1D" stroke-width="0.1"/>
<path d="M18.35 12.63C17.7 13.27 16.92 13.59 16 13.59C15.08 13.59 14.3 13.27 13.65 12.63C13.01 11.99 12.68 11.22 12.68 10.31C12.68 9.4 13.01 8.63 13.65 7.99C14.3 7.35 15.08 7.03 16 7.03C16.92 7.03 17.7 7.35 18.35 7.99C18.99 8.63 19.32 9.4 19.32 10.31C19.32 11.22 18.99 11.99 18.35 12.63Z" stroke="#1E1D1D" stroke-width="0.1"/>
</g>
<defs>
<clipPath id="clip0_414_1084">
<rect width="22.6" height="20.6" fill="white" transform="translate(4.70001 5.70001)"/>
</clipPath>
</defs>
</svg>
