<svg width="20" height="20" viewBox="0 0 20 20" fill="none" xmlns="http://www.w3.org/2000/svg">
<mask id="mask0_556_601" style="mask-type:alpha" maskUnits="userSpaceOnUse" x="0" y="0" width="20" height="20">
<rect width="20" height="20" fill="#D9D9D9"/>
</mask>
<g mask="url(#mask0_556_601)">
<path d="M4.16667 17.5C3.70833 17.5 3.31583 17.3369 2.98917 17.0108C2.66306 16.6842 2.5 16.2917 2.5 15.8333V4.16667C2.5 3.70833 2.66306 3.31583 2.98917 2.98917C3.31583 2.66306 3.70833 2.5 4.16667 2.5H15.8333C16.2917 2.5 16.6842 2.66306 17.0108 2.98917C17.3369 3.31583 17.5 3.70833 17.5 4.16667V15.8333C17.5 16.2917 17.3369 16.6842 17.0108 17.0108C16.6842 17.3369 16.2917 17.5 15.8333 17.5H4.16667ZM5 10.4792L7.75 7.72917C7.83333 7.64583 7.92361 7.58667 8.02083 7.55167C8.11806 7.51722 8.22222 7.5 8.33333 7.5C8.44444 7.5 8.54861 7.51722 8.64583 7.55167C8.74306 7.58667 8.83333 7.64583 8.91667 7.72917L11.6667 10.4792L14.4167 7.72917C14.5 7.64583 14.5903 7.58667 14.6875 7.55167C14.7847 7.51722 14.8889 7.5 15 7.5C15.1111 7.5 15.2153 7.51722 15.3125 7.55167C15.4097 7.58667 15.5 7.64583 15.5833 7.72917L15.8333 7.97917V4.16667H4.16667V9.64583L5 10.4792ZM4.16667 15.8333H15.8333V10.3333L15 9.5L12.25 12.25C12.1806 12.3194 12.0939 12.375 11.99 12.4167C11.8856 12.4583 11.7778 12.4792 11.6667 12.4792C11.5556 12.4792 11.4514 12.4583 11.3542 12.4167C11.2569 12.375 11.1667 12.3194 11.0833 12.25L8.33333 9.5L5.58333 12.25C5.5 12.3333 5.40972 12.3922 5.3125 12.4267C5.21528 12.4617 5.11111 12.4792 5 12.4792C4.88889 12.4792 4.78472 12.4617 4.6875 12.4267C4.59028 12.3922 4.5 12.3333 4.41667 12.25L4.16667 12V15.8333ZM4.16667 15.8333V10.3333V12V15.8333Z" fill="#444444"/>
</g>
</svg>
