<svg width="32" height="32" viewBox="0 0 32 32" fill="none" xmlns="http://www.w3.org/2000/svg">
<path d="M7.54255 27C6.96808 27 6.48426 26.8061 6.09106 26.4184C5.69702 26.0298 5.5 25.5522 5.5 24.9857V20.9256L8.7234 17.432L9.61702 18.3133L6.80851 21.3977H25.1915L22.383 18.3448L23.3085 17.432L26.5 20.9256V24.9857C26.5 25.5522 26.3034 26.0298 25.9102 26.4184C25.5162 26.8061 25.0319 27 24.4574 27H7.54255ZM14.5957 17.8097L10.7979 14.0014C10.3723 13.6028 10.1651 13.1202 10.1762 12.5536C10.1864 11.9871 10.3936 11.5045 10.7979 11.1059L16.4149 5.598C16.8191 5.19933 17.2979 5 17.8511 5C18.4043 5 18.883 5.19933 19.2872 5.598L23.1489 9.37482C23.5532 9.77349 23.7553 10.2456 23.7553 10.7911C23.7553 11.3367 23.5532 11.8088 23.1489 12.2074L17.4681 17.8097C17.0638 18.2084 16.5851 18.4077 16.0319 18.4077C15.4787 18.4077 15 18.2084 14.5957 17.8097ZM22.2234 11.3577C22.3511 11.2108 22.4149 11.0165 22.4149 10.7748C22.4149 10.5339 22.3511 10.3505 22.2234 10.2246L18.4255 6.51073C18.2979 6.38484 18.1064 6.32189 17.8511 6.32189C17.5957 6.32189 17.4043 6.38484 17.2766 6.51073L11.6915 12.0186C11.5426 12.1655 11.4681 12.3594 11.4681 12.6002C11.4681 12.8419 11.5426 13.0258 11.6915 13.1516L15.4894 16.8655C15.617 16.9914 15.8034 17.0544 16.0485 17.0544C16.2928 17.0544 16.4787 16.9914 16.6064 16.8655L22.2234 11.3577Z" fill="#1C1B1F"/>
</svg>
