<svg width="32" height="32" viewBox="0 0 32 32" fill="none" xmlns="http://www.w3.org/2000/svg">
<path d="M16 15.0094C14.6905 15.0094 13.5774 14.5472 12.6607 13.6226C11.744 12.6981 11.2857 11.5755 11.2857 10.2547C11.2857 8.96038 11.744 7.84408 12.6607 6.90581C13.5774 5.9686 14.6905 5.5 16 5.5C17.3095 5.5 18.4226 5.9686 19.3393 6.90581C20.256 7.84408 20.7143 8.96038 20.7143 10.2547C20.7143 11.5755 20.256 12.6981 19.3393 13.6226C18.4226 14.5472 17.3095 15.0094 16 15.0094ZM6.65 26.5C6.17857 26.5 5.78571 26.3415 5.47143 26.0245C5.15714 25.7075 5 25.3113 5 24.8358V23.8849C5 23.2245 5.19014 22.6101 5.57043 22.0417C5.94967 21.4743 6.45357 21.0321 7.08214 20.7151C8.575 20.0019 10.0616 19.4667 11.5419 19.1096C13.0211 18.7535 14.5071 18.5755 16 18.5755C17.4929 18.5755 18.9794 18.7535 20.4597 19.1096C21.939 19.4667 23.425 20.0019 24.9179 20.7151C25.5464 21.0321 26.0509 21.4743 26.4311 22.0417C26.8104 22.6101 27 23.2245 27 23.8849V24.8358C27 25.3113 26.8429 25.7075 26.5286 26.0245C26.2143 26.3415 25.8214 26.5 25.35 26.5H6.65Z" fill="#1C1B1F"/>
</svg>
