<svg width="48" height="48" viewBox="0 0 48 48" fill="none" xmlns="http://www.w3.org/2000/svg">
<mask id="mask0_556_1268" style="mask-type:alpha" maskUnits="userSpaceOnUse" x="0" y="0" width="48" height="48">
<rect width="48" height="48" fill="#D9D9D9"/>
</mask>
<g mask="url(#mask0_556_1268)">
<path d="M11.8941 36.1457H13.5412L31.7412 17.9328L30.0529 16.2434L11.8941 34.4563V36.1457ZM35.7353 16.5731L31.4118 12.2877L33.1412 10.5158C33.498 10.1587 33.9441 9.98703 34.4794 10.0008C35.0147 10.0145 35.4608 10.1999 35.8176 10.557L37.4647 12.2053C37.8216 12.5624 38 13.0019 38 13.5238C38 14.0458 37.8216 14.4853 37.4647 14.8424L35.7353 16.5731ZM11.1941 38C10.8647 38 10.5833 37.8833 10.35 37.6498C10.1167 37.4163 10 37.1347 10 36.805V34.1679C10 34.0031 10.0275 33.8588 10.0824 33.7352C10.1373 33.6116 10.2333 33.4811 10.3706 33.3438L30.0941 13.6063L34.4176 17.8916L14.6529 37.6291C14.5157 37.7665 14.3784 37.8626 14.2412 37.9176C14.1039 37.9725 13.9667 38 13.8294 38H11.1941ZM30.9176 17.0675L30.0529 16.2434L31.7412 17.9328L30.9176 17.0675Z" fill="#1C1B1F"/>
</g>
</svg>
